<svg width="122" height="23" viewBox="0 0 122 23" fill="none" xmlns="http://www.w3.org/2000/svg">
<path d="M10.4454 2.24939L12.6406 7.25614C12.8085 7.6394 13.1722 7.90197 13.5897 7.93948L18.9373 8.41895C19.5424 8.50702 19.7837 9.24906 19.345 9.67634L15.3168 13.0604C14.9906 13.3344 14.8422 13.7649 14.9319 14.1808L16.1029 19.6621C16.2056 20.2639 15.5745 20.7238 15.033 20.4384L10.3655 17.7051C10.0067 17.4947 9.56312 17.4947 9.20433 17.7051L4.5368 20.4368C3.99698 20.7205 3.36421 20.2623 3.46695 19.6605L4.63791 14.1792C4.72598 13.7633 4.5792 13.3327 4.25303 13.0588L0.223165 9.67797C-0.213907 9.25232 0.0274612 8.50865 0.63088 8.42058L5.97848 7.94111C6.39598 7.9036 6.75966 7.64103 6.92764 7.25777L9.12278 2.25103C9.39514 1.70306 10.1747 1.70306 10.4454 2.24939Z" fill="white"/>
<path d="M10.2857 7.55536L9.9139 3.86635C9.89922 3.66086 9.85682 3.30859 10.1863 3.30859C10.4472 3.30859 10.5891 3.85167 10.5891 3.85167L11.7046 6.81332C12.1253 7.94025 11.9525 8.32676 11.5464 8.55508C11.08 8.81602 10.3917 8.61216 10.2857 7.55536Z" fill="white"/>
<path d="M14.8863 12.7319L18.086 10.235C18.2442 10.1029 18.5296 9.89254 18.3013 9.6528C18.1203 9.46362 17.631 9.73598 17.631 9.73598L14.8308 10.8303C13.9958 11.1189 13.4413 11.5462 13.3924 12.0844C13.3288 12.802 13.973 13.3549 14.8863 12.7319Z" fill="white"/>
<path d="M35.2856 2.24939L37.4807 7.25614C37.6487 7.6394 38.0124 7.90197 38.4299 7.93948L43.7775 8.41895C44.3825 8.50702 44.6239 9.24906 44.1852 9.67634L40.157 13.0604C39.8308 13.3344 39.6824 13.7649 39.7721 14.1808L40.943 19.6621C41.0458 20.2639 40.4146 20.7238 39.8732 20.4384L35.2057 17.7051C34.8469 17.4947 34.4033 17.4947 34.0445 17.7051L29.377 20.4368C28.8371 20.7205 28.2044 20.2623 28.3071 19.6605L29.4781 14.1792C29.5661 13.7633 29.4194 13.3327 29.0932 13.0588L25.0633 9.67797C24.6263 9.25232 24.8676 8.50865 25.471 8.42058L30.8186 7.94111C31.2361 7.9036 31.5998 7.64103 31.7678 7.25777L33.9629 2.25103C34.2353 1.70306 35.0149 1.70306 35.2856 2.24939Z" fill="white"/>
<path d="M35.1259 7.55536L34.7541 3.86635C34.7394 3.66086 34.697 3.30859 35.0264 3.30859C35.2874 3.30859 35.4292 3.85167 35.4292 3.85167L36.5448 6.81332C36.9655 7.94025 36.7926 8.32676 36.3866 8.55508C35.9201 8.81602 35.2319 8.61216 35.1259 7.55536Z" fill="white"/>
<path d="M39.7263 12.7319L42.9261 10.235C43.0842 10.1029 43.3696 9.89254 43.1413 9.6528C42.9603 9.46362 42.471 9.73598 42.471 9.73598L39.6709 10.8303C38.8359 11.1189 38.2814 11.5462 38.2324 12.0844C38.1688 12.802 38.813 13.3549 39.7263 12.7319Z" fill="white"/>
<path d="M60.1256 2.24939L62.3207 7.25614C62.4887 7.6394 62.8524 7.90197 63.2699 7.93948L68.6175 8.41895C69.2225 8.50702 69.4639 9.24906 69.0252 9.67634L64.9969 13.0604C64.6708 13.3344 64.5224 13.7649 64.6121 14.1808L65.783 19.6621C65.8858 20.2639 65.2546 20.7238 64.7132 20.4384L60.0456 17.7051C59.6869 17.4947 59.2433 17.4947 58.8845 17.7051L54.2169 20.4368C53.6771 20.7205 53.0444 20.2623 53.1471 19.6605L54.3181 14.1792C54.4061 13.7633 54.2593 13.3327 53.9332 13.0588L49.9033 9.67797C49.4662 9.25232 49.7076 8.50865 50.311 8.42058L55.6586 7.94111C56.0761 7.9036 56.4398 7.64103 56.6078 7.25777L58.8029 2.25103C59.0753 1.70306 59.8548 1.70306 60.1256 2.24939Z" fill="white"/>
<path d="M59.9656 7.55536L59.5938 3.86635C59.5791 3.66086 59.5367 3.30859 59.8662 3.30859C60.1271 3.30859 60.269 3.85167 60.269 3.85167L61.3845 6.81332C61.8052 7.94025 61.6324 8.32676 61.2263 8.55508C60.7599 8.81602 60.0716 8.61216 59.9656 7.55536Z" fill="white"/>
<path d="M64.5664 12.7319L67.7662 10.235C67.9244 10.1029 68.2098 9.89254 67.9814 9.6528C67.8004 9.46362 67.3111 9.73598 67.3111 9.73598L64.511 10.8303C63.676 11.1189 63.1215 11.5462 63.0725 12.0844C63.0089 12.802 63.6531 13.3549 64.5664 12.7319Z" fill="white"/>
<path d="M84.9656 2.24939L87.1607 7.25614C87.3287 7.6394 87.6924 7.90197 88.1099 7.93948L93.4575 8.41895C94.0625 8.50702 94.3039 9.24906 93.8652 9.67634L89.8369 13.0604C89.5108 13.3344 89.3624 13.7649 89.4521 14.1808L90.623 19.6621C90.7258 20.2639 90.0946 20.7238 89.5532 20.4384L84.8856 17.7051C84.5269 17.4947 84.0833 17.4947 83.7245 17.7051L79.0569 20.4368C78.5171 20.7205 77.8843 20.2623 77.9871 19.6605L79.1581 14.1792C79.2461 13.7633 79.0993 13.3327 78.7732 13.0588L74.7433 9.67797C74.3062 9.25232 74.5476 8.50865 75.151 8.42058L80.4986 7.94111C80.9161 7.9036 81.2798 7.64103 81.4478 7.25777L83.6429 2.25103C83.9153 1.70306 84.6948 1.70306 84.9656 2.24939Z" fill="white"/>
<path d="M84.8059 7.55536L84.434 3.86635C84.4194 3.66086 84.377 3.30859 84.7064 3.30859C84.9673 3.30859 85.1092 3.85167 85.1092 3.85167L86.2247 6.81332C86.6455 7.94025 86.4726 8.32676 86.0665 8.55508C85.6001 8.81602 84.9119 8.61216 84.8059 7.55536Z" fill="white"/>
<path d="M89.4064 12.7319L92.6062 10.235C92.7643 10.1029 93.0497 9.89254 92.8214 9.6528C92.6404 9.46362 92.1511 9.73598 92.1511 9.73598L89.351 10.8303C88.5159 11.1189 87.9615 11.5462 87.9125 12.0844C87.8489 12.802 88.4931 13.3549 89.4064 12.7319Z" fill="white"/>
<path d="M109.445 2.24939L111.641 7.25614C111.809 7.6394 112.172 7.90197 112.59 7.93948L117.937 8.41895C118.542 8.50702 118.784 9.24906 118.345 9.67634L114.317 13.0604C113.991 13.3344 113.842 13.7649 113.932 14.1808L115.103 19.6621C115.206 20.2639 114.574 20.7238 114.033 20.4384L109.366 17.7051C109.007 17.4947 108.563 17.4947 108.204 17.7051L103.537 20.4368C102.997 20.7205 102.364 20.2623 102.467 19.6605L103.638 14.1792C103.726 13.7633 103.579 13.3327 103.253 13.0588L99.2232 9.67797C98.7861 9.25232 99.0275 8.50865 99.6309 8.42058L104.978 7.94111C105.396 7.9036 105.76 7.64103 105.928 7.25777L108.123 2.25103C108.395 1.70306 109.175 1.70306 109.445 2.24939Z" fill="white"/>
<path d="M109.286 7.55536L108.914 3.86635C108.899 3.66086 108.857 3.30859 109.186 3.30859C109.447 3.30859 109.589 3.85167 109.589 3.85167L110.705 6.81332C111.125 7.94025 110.952 8.32676 110.546 8.55508C110.08 8.81602 109.392 8.61216 109.286 7.55536Z" fill="white"/>
<path d="M113.886 12.7319L117.086 10.235C117.244 10.1029 117.53 9.89254 117.301 9.6528C117.12 9.46362 116.631 9.73598 116.631 9.73598L113.831 10.8303C112.996 11.1189 112.441 11.5462 112.392 12.0844C112.329 12.802 112.973 13.3549 113.886 12.7319Z" fill="white"/>
<path d="M109.806 2.24939L112.001 7.25614C112.169 7.6394 112.533 7.90197 112.95 7.93948L118.298 8.41895C118.903 8.50702 119.144 9.24906 118.705 9.67634L114.677 13.0604C114.351 13.3344 114.203 13.7649 114.292 14.1808L115.463 19.6621C115.566 20.2639 114.935 20.7238 114.393 20.4384L109.726 17.7051C109.367 17.4947 108.923 17.4947 108.565 17.7051L103.897 20.4368C103.357 20.7205 102.725 20.2623 102.827 19.6605L103.998 14.1792C104.086 13.7633 103.939 13.3327 103.613 13.0588L99.5835 9.67797C99.1464 9.25232 99.3878 8.50865 99.9912 8.42058L105.339 7.94111C105.756 7.9036 106.12 7.64103 106.288 7.25777L108.483 2.25103C108.755 1.70306 109.535 1.70306 109.806 2.24939Z" fill="white"/>
<path d="M109.646 7.55536L109.274 3.86635C109.259 3.66086 109.217 3.30859 109.546 3.30859C109.807 3.30859 109.949 3.85167 109.949 3.85167L111.065 6.81332C111.486 7.94025 111.313 8.32676 110.907 8.55508C110.44 8.81602 109.752 8.61216 109.646 7.55536Z" fill="white"/>
<path d="M114.246 12.7319L117.446 10.235C117.604 10.1029 117.89 9.89254 117.661 9.6528C117.48 9.46362 116.991 9.73598 116.991 9.73598L114.191 10.8303C113.356 11.1189 112.801 11.5462 112.753 12.0844C112.689 12.802 113.333 13.3549 114.246 12.7319Z" fill="white"/>
</svg>
