<svg width="145" height="39" viewBox="0 0 145 39" fill="none" xmlns="http://www.w3.org/2000/svg">
<g clip-path="url(#clip0_117_1311)">
<path d="M16.1402 0.386719H0.291016V38.2904L16.1402 0.386719Z" fill="white"/>
<path d="M27.2913 0.386719H43.1198V38.2904L27.2913 0.386719Z" fill="white"/>
<path d="M21.7157 14.3564L31.8034 38.2902H25.185L22.17 30.6702H14.7875L21.7157 14.3564Z" fill="white"/>
<path d="M68.9765 24.4911L70.8454 29.8499C70.9074 29.9841 71.0003 30.0461 71.1655 30.0461H74.7586C74.9548 30.0461 74.9858 29.9531 74.9548 29.757L67.531 9.13759C67.5 8.97238 67.4691 8.94141 67.3039 8.94141H62.8434C62.7195 8.94141 62.6472 9.03433 62.6472 9.16856C62.5852 10.2527 62.4923 10.5831 62.3581 10.9032L55.7397 29.726C55.7087 29.9531 55.781 30.0461 55.9668 30.0461H59.1779C59.3741 30.0461 59.4671 29.9841 59.5393 29.7879L61.3049 24.4911H68.9765ZM62.3271 20.9909C63.2977 18.0585 64.578 14.3002 65.0943 12.1525H65.1253C65.7654 14.4034 67.2729 18.8639 67.9544 20.9909H62.3271Z" fill="white"/>
<path d="M84.4986 30.3661C86.4294 30.3661 88.4841 30.0151 90.5698 29.1168C90.735 29.0548 90.766 28.9826 90.766 28.8277C90.704 28.2495 90.6318 27.4131 90.6318 26.773V7.36164C90.6318 7.23773 90.6318 7.17578 90.4769 7.17578H86.9767C86.8425 7.17578 86.7805 7.23773 86.7805 7.40294V13.9801C86.2332 13.9181 85.8512 13.8871 85.3969 13.8871C79.749 13.8871 76.2798 17.6145 76.2798 22.2712C76.2798 27.6713 79.842 30.3661 84.4986 30.3661ZM86.7805 26.773C86.2023 26.9588 85.5621 27.0311 84.9116 27.0311C82.351 27.0311 80.255 25.5856 80.255 22.075C80.255 18.9671 82.4129 17.1292 85.273 17.1292C85.8512 17.1292 86.3572 17.1912 86.7805 17.3564V26.773Z" fill="white"/>
<path d="M101.932 13.8867C97.1106 13.8867 94.1266 17.5831 94.1266 22.1469C94.1266 26.2253 96.5014 30.3657 101.86 30.3657C106.393 30.3657 109.573 27.0307 109.573 22.0436C109.573 17.6451 106.878 13.8867 101.932 13.8867ZM101.736 17.1288C104.462 17.1288 105.619 19.4726 105.619 22.1469C105.619 25.4509 103.915 27.0926 101.932 27.0926C99.4854 27.0926 98.0399 25.0379 98.0399 22.0746C98.0399 19.0287 99.5783 17.1288 101.736 17.1288Z" fill="white"/>
<path d="M113.192 7.17578C113.058 7.17578 112.965 7.23773 112.965 7.40294V29.3749C112.965 29.4678 113.058 29.633 113.192 29.664C114.73 30.139 116.341 30.3661 118.003 30.3661C122.763 30.3661 127.389 27.4131 127.389 21.4658C127.389 17.1602 124.436 13.8871 119.81 13.8871C118.747 13.8871 117.756 14.0523 116.888 14.3415L116.847 7.43391C116.847 7.20676 116.785 7.17578 116.558 7.17578H113.192ZM123.434 21.8582C123.434 25.4204 120.998 27.093 118.365 27.093C117.817 27.093 117.332 27.0621 116.888 26.9278V17.5526C117.394 17.3564 118.003 17.1912 119.129 17.1912C121.669 17.1912 123.434 18.8019 123.434 21.8582Z" fill="white"/>
<path d="M140.452 23.0142C142.021 23.0142 143.312 22.9832 143.756 22.8799C143.921 22.849 143.983 22.787 144.014 22.6528C144.107 22.3017 144.148 21.5686 144.148 20.6704C144.148 17.6141 142.31 13.8867 137.561 13.8867C132.708 13.8867 130.013 17.8413 130.013 22.3017C130.013 26.2563 132.099 30.3657 137.943 30.3657C140.132 30.3657 141.546 30.0146 142.765 29.4364C142.889 29.3745 142.95 29.2712 142.95 29.0854V26.4112C142.95 26.2563 142.858 26.2253 142.765 26.2873C141.546 26.8035 140.225 27.0616 138.779 27.0616C135.506 27.0616 134.019 25.2547 133.926 23.0142H140.452ZM133.926 20.247C134.184 18.6776 135.176 16.9739 137.396 16.9739C139.843 16.9739 140.483 19.0287 140.483 19.9579C140.483 19.9889 140.483 20.1231 140.483 20.216C140.349 20.247 139.936 20.247 138.717 20.247H133.926Z" fill="white"/>
</g>
<defs>
<clipPath id="clip0_117_1311">
<rect width="143.857" height="37.9037" fill="white" transform="translate(0.291016 0.386719)"/>
</clipPath>
</defs>
</svg>
