<svg width="57" height="56" viewBox="0 0 57 56" fill="none" xmlns="http://www.w3.org/2000/svg">
<path d="M16.0484 12.9292L43.7676 40.6484L41.1526 43.2634L13.4334 15.5442L16.0484 12.9292Z" fill="#474EFF"/>
<path d="M43.7675 15.5439L16.0483 43.2632L13.4333 40.6482L41.1525 12.9289L43.7675 15.5439Z" fill="#474EFF"/>
<path d="M37.6219 10.5957L23.0089 46.9711L19.5772 45.5925L34.1902 9.21712L37.6219 10.5957Z" fill="#474EFF"/>
<path d="M47.3509 22.1045L11.2966 37.4929L9.84491 34.0915L45.8992 18.7031L47.3509 22.1045Z" fill="#474EFF"/>
<path d="M46.0981 37.1162L9.72272 22.5032L11.1013 19.0716L47.4767 33.6846L46.0981 37.1162Z" fill="#474EFF"/>
<path d="M34.5913 46.8511L19.203 10.7968L22.6043 9.34509L37.9927 45.3993L34.5913 46.8511Z" fill="#474EFF"/>
</svg>
