<svg width="39" height="38" viewBox="0 0 39 38" fill="none" xmlns="http://www.w3.org/2000/svg">
<path d="M7.04846 3.92886L34.7677 31.6481L32.1527 34.2631L4.43344 6.54388L7.04846 3.92886Z" fill="#474EFF"/>
<path d="M34.7676 6.54386L7.04836 34.2631L4.43334 31.6481L32.1526 3.92884L34.7676 6.54386Z" fill="#474EFF"/>
<path d="M28.6219 1.59538L14.0089 37.9708L10.5773 36.5922L25.1903 0.216797L28.6219 1.59538Z" fill="#474EFF"/>
<path d="M38.3509 13.1044L2.2967 28.4928L0.844965 25.0915L36.8992 9.7031L38.3509 13.1044Z" fill="#474EFF"/>
<path d="M37.0982 28.1163L0.722778 13.5033L2.10136 10.0716L38.4768 24.6846L37.0982 28.1163Z" fill="#474EFF"/>
<path d="M25.5914 37.8508L10.203 1.7966L13.6044 0.344865L28.9927 36.3991L25.5914 37.8508Z" fill="#474EFF"/>
</svg>
