<svg width="124" height="34" viewBox="0 0 124 34" fill="none" xmlns="http://www.w3.org/2000/svg">
<path d="M11.915 3.74871H14.6264C16.2776 3.50442 17.9639 3.71926 19.5022 4.37014C21.4319 5.53661 22.8316 7.41462 23.4026 9.60356C23.807 10.7506 23.807 10.7506 24.7821 10.3443H25.5432V1.26351H0.0230947V2.86453H1.06959C1.52435 2.86141 1.97404 2.96062 2.38562 3.15496C2.7972 3.34944 3.16021 3.6339 3.44797 3.9877C4.42312 5.56497 4.5896 7.33333 4.5896 16.5335C4.5896 26.3074 4.37555 28.6971 3.44797 29.9158C3.21898 30.2291 2.92252 30.4865 2.58069 30.6685C2.23887 30.8506 1.86052 30.9528 1.47391 30.9673C0.0230948 31.2302 0.0230947 31.2063 0.0230947 31.8515C-0.0571367 32.0673 -0.0571367 32.3049 0.0230947 32.5205H16.1248C16.2313 32.3095 16.2868 32.0762 16.2868 31.8395C16.2868 31.6028 16.2313 31.3696 16.1248 31.1585C15.7347 31.0494 15.3374 30.9696 14.9357 30.9195C14.501 30.8675 14.0714 30.7796 13.6513 30.6566C13.0496 30.2153 12.5729 29.6239 12.2684 28.9407C11.9639 28.2575 11.8421 27.5063 11.915 26.7615C11.6772 25.1842 11.5583 22.2927 11.5583 19.9031V18.0151H12.5096C13.695 17.9788 14.8795 18.1074 16.0296 18.3976C16.5807 18.7397 17.0497 19.1998 17.4032 19.7451C17.7569 20.2904 17.9862 20.9073 18.0751 21.552L18.2892 22.2927H19.7399V11.7065H18.408L18.194 12.7339C18.1039 13.3932 17.8612 14.022 17.4853 14.5699C17.1094 15.1178 16.6108 15.5693 16.0296 15.8884C15.4668 16.0566 14.8739 16.0975 14.2935 16.0079H11.5583V13.427C11.5583 10.7506 11.701 5.11087 11.7961 4.2267L11.915 3.74871ZM123.224 22.699C122.099 20.8809 120.346 19.5446 118.3 18.9472C116.732 18.4547 115.283 17.641 114.043 16.5574C113.764 16.2864 113.556 15.9509 113.435 15.5801C113.315 15.2095 113.287 14.8149 113.353 14.4306C113.355 13.6772 113.655 12.9552 114.186 12.4233C114.546 12.0445 115.001 11.7709 115.504 11.6321C116.007 11.4932 116.538 11.4941 117.04 11.6348C118.08 11.9324 119.02 12.5072 119.761 13.2981C120.502 14.0891 121.016 15.0666 121.25 16.1273C121.63 17.2027 121.678 17.2027 122.367 16.916L122.796 16.7486V10.7984L122.486 10.6549C120.145 9.82871 117.661 9.48725 115.185 9.65133C113.052 9.70562 111.017 10.5578 109.477 12.041C108.778 12.6978 108.231 13.5002 107.874 14.3918C107.516 15.2835 107.357 16.2428 107.407 17.2027C107.421 18.6702 108.001 20.0753 109.025 21.1218C110.156 22.2402 111.545 23.061 113.068 23.5114C116.754 24.9691 117.825 25.9012 117.825 27.5978C117.841 28.3134 117.614 29.013 117.182 29.5818C116.749 30.1507 116.137 30.555 115.446 30.7283C114.616 30.9116 113.756 30.9116 112.925 30.7283C111.838 30.3043 110.867 29.6256 110.093 28.7485C109.32 27.8715 108.766 26.8216 108.478 25.6861L108.169 24.9214H107.74C107.536 24.9367 107.335 24.9851 107.146 25.0648H106.908V31.8515H107.312C108.919 32.3885 110.577 32.757 112.259 32.9508H114.638C115.669 33.0268 116.706 32.9299 117.706 32.664C118.975 32.4287 120.161 31.8637 121.146 31.0252C122.13 30.1868 122.88 29.1041 123.319 27.8845C123.603 27.2035 123.748 26.4723 123.747 25.7339C123.841 24.6936 123.66 23.647 123.224 22.699ZM100.819 10.3443C99.394 9.74307 97.8584 9.45142 96.313 9.48847C94.7678 9.52552 93.2478 9.89046 91.8527 10.5594C90.5414 11.2039 89.3791 12.1174 88.4411 13.2411C87.5029 14.3648 86.8097 15.6737 86.4062 17.0832C85.8917 18.6208 85.6739 20.2429 85.764 21.8626C85.747 22.7438 85.8187 23.6245 85.9781 24.4913C86.3622 26.6224 87.3862 28.5844 88.9126 30.1136C90.4388 31.643 92.3944 32.6663 94.5165 33.0463C95.8984 33.2212 97.2967 33.2212 98.6787 33.0463C100.113 32.7924 101.485 32.2651 102.722 31.4931C103.745 30.9168 104.611 30.096 105.243 29.1034C105.202 28.9476 105.131 28.8017 105.033 28.6744C104.935 28.5471 104.812 28.441 104.672 28.3625C104.401 28.4613 104.145 28.5981 103.911 28.7687C102.728 29.5521 101.331 29.9448 99.9155 29.8919C98.9758 29.9558 98.0336 29.8087 97.1575 29.4615C96.2813 29.1144 95.4929 28.5757 94.8495 27.8845C94.3517 27.4201 93.9409 26.8698 93.6365 26.2596C92.8974 24.774 92.4992 23.1408 92.4711 21.4802V20.5482H105.647V20.0704C105.677 19.5928 105.677 19.114 105.647 18.6366C105.643 16.9492 105.194 15.2931 104.345 13.8368C103.497 12.3803 102.281 11.1753 100.819 10.3443ZM94.1836 18.6127H92.5186V17.2027C93.0657 13.5942 94.4213 11.4436 96.0863 11.4436C97.7511 11.4436 98.4647 13.5704 98.7738 17.4656V18.5648H97.3468L94.1836 18.6127ZM59.9823 9.55565C59.1605 9.52362 58.3435 9.69612 57.604 10.0575C55.9964 10.842 54.698 12.1464 53.9174 13.7616L53.6083 14.3351V9.55565H53.4892C53.204 9.55565 44.4038 11.324 44.1184 11.4436C43.833 11.563 43.9282 11.5869 43.9282 12.0171C43.9282 12.4472 43.9282 12.519 44.1184 12.5429L45.046 12.7339C45.3058 12.7405 45.5607 12.8061 45.7915 12.9263C46.0222 13.0462 46.2228 13.2175 46.3779 13.427C46.9725 14.2155 47.0914 15.6016 47.0914 21.5041C47.2089 24.1614 47.0975 26.8238 46.7585 29.4618C46.6787 29.8596 46.478 30.2226 46.184 30.5008C45.89 30.7791 45.5172 30.9587 45.1174 31.0151L44.3087 31.1824H43.9995V31.8515C43.9132 32.0743 43.9132 32.3216 43.9995 32.5444H57.2947V31.8515C57.3408 31.6228 57.3408 31.3872 57.2947 31.1585C56.4942 31.1272 55.6982 31.0232 54.9163 30.8479C54.4905 30.6241 54.1423 30.276 53.9173 29.8494C53.6923 29.4229 53.6011 28.9378 53.6558 28.4581C53.4655 27.0722 53.3703 23.0097 53.418 19.9031C53.4655 16.7964 53.418 16.6053 53.6795 16.3902C54.4755 15.7771 55.4602 15.4641 56.4623 15.506C57.4068 15.5267 58.3341 15.7638 59.1736 16.199C59.4647 16.3615 59.7769 16.4821 60.1012 16.5574C60.1012 16.5574 62.4796 10.7745 62.4796 10.5116C62.1752 10.1562 61.7875 9.88272 61.3514 9.71579C60.9154 9.54887 60.4449 9.4939 59.9823 9.55565ZM43.9519 19.5924C43.869 17.8847 43.381 16.2217 42.5288 14.742C41.6765 13.2621 40.4847 12.0084 39.0525 11.0852C37.3505 10.1626 35.4569 9.65391 33.5238 9.5999C31.5906 9.54602 29.6719 9.94827 27.9216 10.7745C25.4469 12.0856 23.5783 14.3145 22.7129 16.9876C21.8191 19.9805 21.8191 23.1712 22.7129 26.1641C23.1815 27.7997 24.0574 29.2884 25.2578 30.4893C26.7528 31.955 28.6807 32.8942 30.7519 33.1659C32.0815 33.2776 33.418 33.2776 34.7476 33.1659C35.2369 33.091 35.7212 32.9873 36.1984 32.8552C38.1344 32.311 39.876 31.2242 41.2196 29.7218C42.5633 28.2195 43.4532 26.3637 43.7855 24.3717C44.0229 22.7902 44.0788 21.1866 43.9519 19.5924ZM34.0578 31.5408C31.6794 32.2577 29.8957 29.9397 29.301 25.0648C29.0826 22.5126 29.0826 19.9461 29.301 17.3938C29.7767 13.4748 30.9897 11.4913 32.8687 11.4913C33.2477 11.4677 33.6269 11.5357 33.9745 11.6895C34.322 11.8434 34.6279 12.0786 34.8665 12.3755C36.4601 13.9767 37.2449 17.155 37.2449 21.9343C37.4428 24.6391 37.0196 27.3535 36.0081 29.868C35.5615 30.6014 34.8705 31.1519 34.0578 31.4214V31.5408ZM76.8689 10.0336C76.1978 9.94692 75.5184 9.94692 74.8473 10.0336C73.5589 10.0326 72.2855 10.3097 71.1132 10.8462L70.3759 11.1568V5.97117C70.5047 4.22113 70.5047 2.4639 70.3759 0.713867C70.0905 0.713867 61.005 2.45834 60.8623 2.53C60.7922 2.70642 60.7922 2.90321 60.8623 3.07964C60.8623 3.58151 60.8623 3.55762 61.9326 3.79662C62.233 3.86434 62.5217 3.97712 62.7888 4.13115C63.2531 4.56978 63.5621 5.14874 63.6688 5.77995C63.9396 7.59865 64.0273 9.44003 63.9304 11.2762V32.2577L64.5726 32.4011C65.524 32.6162 68.2115 33.0702 69.0915 33.1659C70.8487 33.3062 72.6144 33.3062 74.3716 33.1659C76.3221 32.9657 78.1811 32.2345 79.7486 31.0512C81.3161 29.8679 82.5325 28.2773 83.2667 26.4507C83.7045 25.2784 84.0077 24.0598 84.1706 22.8185C84.3121 21.137 84.2562 19.4446 84.004 17.7763C83.7489 15.9061 82.9274 14.16 81.651 12.7751C80.3746 11.39 78.7051 10.4329 76.8689 10.0336ZM70.6375 31.1346C70.6375 30.824 70.3996 20.3572 70.4473 16.1751V12.9013L71.137 12.7339C71.6023 12.667 72.0748 12.667 72.5403 12.7339C73.0549 12.6814 73.5725 12.7988 74.0148 13.0685C74.903 13.6845 75.6405 14.4948 76.172 15.4386C76.7034 16.3822 77.0149 17.4348 77.0829 18.517C77.2562 20.2571 77.2562 22.0103 77.0829 23.7504C76.9405 26.2796 75.9707 28.6907 74.324 30.6089C73.8567 31.0548 73.2697 31.3539 72.6354 31.4692C72.1554 31.553 71.6645 31.553 71.1845 31.4692C70.7327 31.4692 70.7327 31.3257 70.7327 31.1346H70.6375Z" fill="white"/>
</svg>
