<svg width="104" height="60" viewBox="0 0 104 60" fill="none" xmlns="http://www.w3.org/2000/svg">
<path d="M44.6523 47.3262C42.1989 47.3262 40.9785 45.9856 40.9785 43.9093C40.9785 41.9517 42.2241 40.1721 45.0298 40.1721C45.4701 40.1721 46.0615 40.2196 46.527 40.3501L46.376 41.8568C45.9105 41.7145 45.4198 41.6314 44.9291 41.6314C43.6709 41.6314 42.9538 42.4856 42.9538 43.7551C42.9538 45.1076 43.7464 45.7957 45.0172 45.7957C45.5204 45.7957 46.0363 45.7008 46.4389 45.5229L46.5899 47.0415C45.9734 47.2194 45.3317 47.3262 44.6523 47.3262ZM54.8057 47.2194L52.0881 40.2789H49.924L47.1938 47.2194H49.0307L49.4963 46.0093H52.3397L52.7926 47.2194H54.8057ZM51.8993 44.7636H49.924L50.5783 43.0788C50.7041 42.7585 50.8173 42.4026 50.9054 42.0941H50.918C51.0061 42.4026 51.1444 42.806 51.2703 43.1263L51.8993 44.7636ZM60.241 41.6314V40.2789H55.7871V47.2194H57.6114V44.4551H60.1026V43.1382H57.6114V41.6314H60.241ZM66.1544 47.2194V45.8432H63.4493V44.3246H66.0285V43.0195H63.4493V41.6314H66.1544V40.2789H61.625V47.2194H66.1544ZM28.2962 17.7844C32.9514 8.92186 42.6392 2.81181 53.8243 2.81181C65.412 2.81181 75.4145 9.38457 79.8432 18.7691C80.6484 19.3505 81.2901 20.1098 81.7556 21.0233C82.2211 20.4301 82.7622 19.8962 83.3535 19.4335C78.9122 8.10324 67.3496 0 53.8118 0C40.9407 0 29.8563 7.33206 24.9872 17.7844H28.2962ZM82.1457 32.2706C80.7491 45.8551 68.5826 56.5091 53.8118 56.5091C39.5693 56.5091 27.73 46.5788 25.6666 33.6824C25.3772 33.718 25.0627 33.7417 24.723 33.7417C23.9429 33.7417 23.2132 33.5638 22.5841 33.2316C24.4587 47.9076 37.745 59.3209 53.8118 59.3209C69.7527 59.3209 82.9635 48.0855 84.9891 33.5638C83.9197 33.3621 82.9509 32.9112 82.1457 32.2706ZM26.0944 28.391C26.0944 28.735 26.3083 28.9249 26.736 28.9249C27.0632 28.9249 27.2896 28.8774 27.5035 28.8062L26.7864 31.4164C26.3837 31.7248 25.8301 31.9621 24.7355 31.9621C23.7038 31.9621 22.5841 31.3808 22.2821 30.1113H22.257C21.6405 31.013 20.6088 31.9265 18.8851 31.9265C16.9223 31.9265 15.0854 30.1232 15.0854 27.6554C15.0854 23.2301 18.0798 19.3505 21.6027 19.3505C22.8986 19.3505 23.8548 20.1098 24.2071 20.8454H24.2323L24.572 19.5759H28.4849L26.1573 27.9876C26.1195 28.13 26.0944 28.2723 26.0944 28.391ZM20.2691 28.9723C21.9047 28.9723 23.2132 26.3148 23.2132 24.2385C23.2132 23.0284 22.7099 22.2809 21.9802 22.2809C20.3445 22.2809 19.0486 24.7131 19.0486 26.9792C19.0612 28.2605 19.489 28.9723 20.2691 28.9723ZM12.9088 13.2167L10.9083 20.5013H7.19671L9.22236 13.2167H5.59884C4.71812 14.4268 3.68643 15.1862 1.77401 15.1862L1.08202 17.6776C1.29591 17.7014 1.52238 17.7132 1.74885 17.7132C2.50375 17.7132 3.32156 17.5353 4.03871 17.2149L0 31.7723H4.08904L6.35374 23.586H10.0653L7.77547 31.7723H11.8645L16.9978 13.2404H12.9088V13.2167ZM49.0433 13.2167H53.0443L47.911 31.7485H44.5517L44.9669 30.2299H44.9417C44.3252 31.0604 43.2683 31.9028 41.6956 31.9028C39.7329 31.9028 37.896 30.0994 37.896 27.6317C37.896 23.2063 40.8904 19.3268 44.4133 19.3268C45.6211 19.3268 46.5773 19.8962 46.9925 20.5844H47.0177L49.0433 13.2167ZM43.0796 28.9723C44.7152 28.9723 46.0363 26.3148 46.0363 24.2385C46.0363 23.0284 45.5204 22.2809 44.8033 22.2809C43.1677 22.2809 41.8718 24.7131 41.8718 26.9792C41.8718 28.2605 42.2995 28.9723 43.0796 28.9723ZM37.9966 19.3623C36.7762 19.3623 35.5684 20.3945 35.0022 21.2725H34.9644L35.4174 19.564H31.5171L28.1452 31.7485H32.1461L33.744 26.0063C34.1718 24.4521 35.1783 22.7792 36.7384 22.7792C37.1914 22.7792 37.6066 22.9097 37.896 23.0758L38.8773 19.5284C38.6383 19.4335 38.3363 19.3623 37.9966 19.3623ZM101.559 33.018C101.937 33.018 102.39 32.8875 102.603 32.7451L103.157 35.1536C102.578 35.6281 101.509 35.9603 100.49 35.9603C98.3634 35.9603 96.9669 34.7858 96.9669 32.9587C96.9669 31.9977 97.1178 31.357 97.1178 30.313C97.1178 29.0079 96.212 28.1181 95.2558 27.9876L94.2115 31.7604H90.2105L95.3438 13.2286H99.3448L97.2688 20.7623H97.294C98.0866 19.9318 99.2819 19.3742 100.578 19.3742C102.754 19.3742 104 20.703 104 22.2928C104 25.0334 101.131 26.7775 98.8289 27.2046V27.2283C99.76 27.8571 100.452 29.2808 100.452 30.6808C100.452 31.1553 100.427 31.4875 100.427 31.8909C100.452 32.6146 100.754 33.018 101.559 33.018ZM95.8848 25.7453C98.376 25.7453 100.364 24.2504 100.364 22.8504C100.364 22.3047 100.024 21.9843 99.4203 21.9843C97.9986 21.9843 96.2874 23.847 95.8848 25.7453ZM75.8422 19.3386C78.6354 19.3386 80.6233 21.2606 80.6233 24.4284C80.6233 28.3554 77.5659 31.9146 73.4517 31.9146C70.9102 31.9146 68.8468 29.9096 68.8468 27.0741C68.8468 22.9335 71.8287 19.3386 75.8422 19.3386ZM73.9173 29.0672C75.4648 29.0672 76.8236 26.3741 76.8236 24.2267C76.8236 23.0046 76.3707 22.0436 75.5277 22.0436C73.8921 22.0436 72.6591 24.4758 72.6591 26.9198C72.6591 28.2961 73.2127 29.0672 73.9173 29.0672ZM85.354 26.7656C85.354 23.9419 87.0273 22.0199 88.8139 22.0199C89.7324 22.0199 90.4873 22.5182 90.9528 22.9453L91.6951 20.2284C91.0912 19.8132 89.8079 19.3386 88.5246 19.3386C84.6746 19.3386 81.5417 23.1589 81.5417 26.9198C81.5417 29.874 83.6555 31.9146 86.3479 31.9146C87.4048 31.9146 88.1471 31.713 88.5875 31.535L89.3675 28.6639C88.8517 28.9842 88.3107 29.1147 87.3922 29.1147C86.1718 29.1266 85.354 28.3554 85.354 26.7656ZM68.3562 33.279C68.9223 33.279 69.3249 33.1723 69.6143 32.9824L70.2057 35.4146C69.5137 35.9603 68.5575 36.423 67.1609 36.423C64.6823 36.423 62.9335 35.1061 62.9335 32.9468C62.9335 30.9774 63.4367 30.052 63.4367 28.2249C63.4367 26.4809 62.2415 24.9622 60.9456 24.63L58.9702 31.7248H54.8938L58.9073 17.2031C58.1902 17.5234 57.3724 17.7014 56.6175 17.7014C56.391 17.7014 56.1645 17.6895 55.9506 17.6658L56.6426 15.1743C58.555 15.1743 59.5867 14.415 60.4675 13.2048H64.33C68.5071 13.2048 70.407 15.2811 70.407 18.1285C70.407 20.8335 67.639 23.4199 64.9717 23.9656V24.025C65.9027 24.5707 67.1357 26.2436 67.1357 28.4503C67.1357 29.6842 66.9973 30.8587 66.9973 31.8791C67.0099 32.7333 67.5887 33.279 68.3562 33.279ZM62.5183 21.8894C65.022 21.8894 66.2676 20.1454 66.2676 18.2708C66.2676 16.9776 65.6259 15.9336 63.9023 15.9336H63.3612L61.713 21.9013H62.5183" fill="white"/>
</svg>
