<svg width="164" height="34" viewBox="0 0 164 34" fill="none" xmlns="http://www.w3.org/2000/svg">
<path d="M5.84535 22.3913C5.84535 24.2809 6.2601 25.7317 6.80221 26.6094C7.51297 27.759 8.57309 28.246 9.65387 28.246C11.0479 28.246 12.3231 27.9001 14.7807 24.5012C16.7494 21.7769 19.0693 17.9529 20.6302 15.5556L23.2737 11.4941C25.1099 8.67338 27.2353 5.53776 29.6722 3.41236C31.6617 1.67761 33.8078 0.713867 35.9676 0.713867C39.5937 0.713867 43.0477 2.81518 45.6911 6.75621C48.584 11.0724 49.9884 16.509 49.9884 22.1194C49.9884 25.4546 49.3309 27.9053 48.2123 29.8414C47.1315 31.7138 45.0251 33.5845 41.4816 33.5845V28.246C44.5157 28.246 45.2729 25.458 45.2729 22.2674C45.2729 17.7205 44.2128 12.6746 41.8774 9.0692C40.2201 6.51183 38.0723 4.94919 35.7094 4.94919C33.1538 4.94919 31.0972 6.87668 28.7859 10.3135C27.5572 12.1394 26.2957 14.3646 24.8793 16.8755L23.3201 19.6377C20.188 25.1913 19.3946 26.4562 17.8285 28.5438C15.0835 32.1991 12.7396 33.5845 9.65387 33.5845C5.99335 33.5845 3.67864 31.9995 2.24507 29.6108C1.07481 27.6643 0.5 25.1104 0.5 22.2002L5.84535 22.3913Z" fill="white"/>
<path d="M4.71458 7.1331C7.16525 3.35556 10.7019 0.713867 14.7582 0.713867C17.1073 0.713867 19.4427 1.40914 21.8813 3.40031C24.5488 5.57734 27.3919 9.16213 30.9388 15.0702L32.2106 17.1905C35.2808 22.3052 37.0276 24.9366 38.0499 26.1774C39.3647 27.771 40.2854 28.246 41.4815 28.246C44.5156 28.246 45.2728 25.458 45.2728 22.2674L49.9883 22.1194C49.9883 25.4546 49.3309 27.9053 48.2122 29.8414C47.1315 31.7138 45.025 33.5845 41.4815 33.5845C39.2786 33.5845 37.3271 33.1061 35.169 31.0701C33.5099 29.5075 31.5704 26.7316 30.0783 24.2362L25.6399 16.8222C23.413 13.1014 21.3702 10.3272 20.1879 9.07092C18.9161 7.71996 17.2811 6.08847 14.6721 6.08847C12.5605 6.08847 10.7673 7.57023 9.26656 9.83676L4.71458 7.1331Z" fill="white"/>
<path d="M14.6722 6.08847C12.5606 6.08847 10.7673 7.57023 9.26665 9.83675C7.14468 13.0395 5.84535 17.81 5.84535 22.3913C5.84535 24.2809 6.2601 25.7317 6.80221 26.6094L2.24507 29.6108C1.07481 27.6643 0.5 25.1104 0.5 22.2002C0.5 16.9082 1.9525 11.3925 4.71467 7.1331C7.16534 3.35556 10.7019 0.713867 14.7583 0.713867L14.6722 6.08847Z" fill="white"/>
<path d="M60.3796 1.75391H66.5631L77.0765 20.7741L87.5917 1.75391H93.6409V33.0068H88.5967V9.05428L79.3758 25.641H74.6431L65.4238 9.05428V33.0068H60.3796V1.75391ZM109.446 13.4066C105.829 13.4066 103.65 16.1292 103.129 19.5006H115.406C115.153 16.0277 113.15 13.4066 109.446 13.4066ZM98.1275 21.4212C98.1275 14.3273 102.712 9.16442 109.534 9.16442C116.244 9.16442 120.251 14.262 120.251 21.7998V23.1852H103.129C103.736 26.8526 106.17 29.3239 110.093 29.3239C113.224 29.3239 115.181 28.3688 117.036 26.622L119.715 29.9039C117.191 32.2255 113.979 33.5644 109.914 33.5644C102.53 33.5644 98.1275 28.1795 98.1275 21.4212ZM126.367 13.8541H121.724V9.72374H126.367V2.89319H131.234V9.72374H138.288V13.8541H131.234V24.3228C131.234 27.8972 132.377 29.1673 135.185 29.1673C136.467 29.1673 137.202 29.0572 138.288 28.8765V32.9621C136.935 33.3441 135.645 33.5197 134.247 33.5197C128.993 33.5197 126.367 30.6491 126.367 24.9027V13.8541ZM158.782 17.8708C157.804 15.403 155.624 13.5856 152.419 13.5856C148.254 13.5856 145.589 16.5405 145.589 21.3541C145.589 26.0472 148.043 29.1449 152.219 29.1449C155.503 29.1449 157.847 27.2347 158.782 24.858V17.8708ZM163.648 33.0068H158.871V29.7473C157.536 31.6662 155.106 33.5644 151.17 33.5644C144.84 33.5644 140.61 28.2655 140.61 21.3541C140.61 14.3773 144.941 9.16442 151.438 9.16442C154.649 9.16442 157.169 10.4483 158.871 12.7148V9.72374H163.648V33.0068Z" fill="white"/>
</svg>
