<svg width="125" height="25" viewBox="0 0 125 25" fill="none" xmlns="http://www.w3.org/2000/svg">
<path d="M35.1918 17.4304C34.5609 17.3044 33.9557 17.0736 33.4011 16.7464L34.4103 14.4815C34.8716 14.7458 35.3643 14.9538 35.8751 15.1007C36.405 15.2514 36.952 15.3287 37.5029 15.3287C37.8126 15.3449 38.1223 15.3001 38.4149 15.198C38.5769 15.1436 38.6865 14.9938 38.6913 14.8231C38.6913 14.6437 38.5769 14.4968 38.333 14.3995C37.947 14.2583 37.5486 14.1495 37.1445 14.0732C36.5441 13.9521 35.9514 13.7946 35.37 13.601C34.8992 13.4254 34.4789 13.1335 34.1492 12.7538C33.7604 12.3035 33.5669 11.7178 33.6117 11.1244C33.5936 10.5424 33.7651 9.97096 34.0996 9.49491C34.4646 8.98929 34.9678 8.59909 35.5482 8.37013C36.2944 8.0782 37.0912 7.93987 37.8927 7.96277C38.5178 7.95895 39.1402 8.02955 39.7482 8.17456C40.3172 8.28904 40.8652 8.48652 41.376 8.76128L40.3505 11.1244C39.5624 10.7075 38.6865 10.4842 37.7945 10.4728C36.9968 10.4728 36.6061 10.6683 36.6061 11.0595C36.6061 11.4506 36.7204 11.3695 36.9644 11.4669C37.3437 11.6042 37.7364 11.7025 38.1366 11.7597C38.7342 11.8628 39.3222 12.0154 39.895 12.2158C40.3782 12.3789 40.8099 12.6651 41.1482 13.0467C41.537 13.497 41.7305 14.0828 41.6857 14.6761C41.7038 15.2581 41.5323 15.8295 41.1978 16.3056C40.8327 16.8112 40.3296 17.2014 39.7492 17.4304C39.002 17.7175 38.2053 17.8559 37.4047 17.8377C36.6528 17.7948 35.9094 17.6574 35.1908 17.4304H35.1918Z" fill="white"/>
<path d="M44.7316 17.0725C43.9758 16.7157 43.3383 16.15 42.8922 15.4431C42.4491 14.6885 42.2242 13.8251 42.2413 12.9502C42.227 12.0802 42.4529 11.2235 42.8922 10.4736C43.3478 9.77434 43.9835 9.21148 44.7316 8.84418C45.5417 8.42633 46.4413 8.21358 47.3524 8.22503C48.1739 8.21263 48.9897 8.37386 49.7454 8.69727C50.4097 8.96057 51.0015 9.37938 51.4714 9.91935L49.5177 11.6633C49.0602 11.005 48.3159 10.6053 47.5154 10.5881C46.9083 10.5442 46.3127 10.7713 45.8876 11.2073C45.4892 11.6547 45.2739 12.2366 45.2853 12.8367C45.2739 13.4368 45.4892 14.0187 45.8876 14.4662C46.3127 14.9022 46.9083 15.1292 47.5154 15.0853C48.3159 15.0672 49.0602 14.6675 49.5177 14.0102L51.4714 15.8514C51.0244 16.4496 50.4297 16.9208 49.7454 17.2204C48.9897 17.5438 48.1749 17.705 47.3524 17.6926C46.4413 17.7041 45.5417 17.4913 44.7316 17.0735V17.0725Z" fill="white"/>
<path d="M61.4171 8.28894V17.4799H58.3083V14.0903H55.4598V17.4799H52.3672V8.28894H55.4598V11.5478H58.3083V8.28894H61.4171Z" fill="white"/>
<path d="M69.1652 15.8832H65.6657L65.0634 17.5127H61.9051L65.9259 8.32172H68.9699L72.9745 17.5127H69.7189L69.1652 15.8832ZM68.3027 13.7319L67.4079 11.4184L66.5292 13.7319H68.3037H68.3027Z" fill="white"/>
<path d="M77.4022 15.1655H76.5721V17.479H73.4796V8.289H77.8911C78.6507 8.27374 79.4045 8.41779 80.105 8.71258C81.809 9.50536 82.5476 11.5317 81.7547 13.2365C81.7175 13.3157 81.6775 13.3939 81.6346 13.4702C81.3201 13.9711 80.876 14.3765 80.3489 14.6437L82.2702 17.479H79.0147L77.4032 15.1655H77.4022ZM78.6392 10.9612C78.3714 10.7523 78.0331 10.653 77.6948 10.6845H76.5712V12.8358H77.6948C78.035 12.8625 78.3733 12.7576 78.6392 12.5429C78.8613 12.3455 78.9804 12.0573 78.9652 11.7606C78.9795 11.4592 78.8603 11.1673 78.6392 10.9621V10.9612Z" fill="white"/>
<path d="M91.4507 17.4799V13.2918L89.4646 16.6489H88.097L86.0947 13.39V17.4799H83.2461V8.28894H85.7859L88.7813 13.1773L91.6947 8.28894H94.2345V17.4799H91.4507Z" fill="white"/>
<path d="M102.015 15.8832H98.5317L97.9132 17.5127H94.7549L98.7757 8.32172H101.82L105.84 17.4793H102.585L102.015 15.8823V15.8832ZM101.169 13.7319L100.306 11.3364L99.378 13.7319H101.169Z" fill="white"/>
<path d="M108.331 17.0729C107.575 16.7161 106.937 16.1504 106.491 15.4434C105.608 13.9046 105.608 12.0119 106.491 10.473C106.947 9.77375 107.583 9.21088 108.331 8.84359C109.14 8.42382 110.041 8.21108 110.952 8.22443C111.758 8.16719 112.567 8.27881 113.328 8.55071C114.014 8.85503 114.612 9.32536 115.071 9.91971L113.117 11.6636C112.656 11.0006 111.905 10.6009 111.098 10.5885C110.492 10.5513 109.899 10.7774 109.471 11.2076C109.076 11.657 108.866 12.2389 108.884 12.8371C108.866 13.4352 109.076 14.0172 109.471 14.4665C109.899 14.8968 110.492 15.1229 111.098 15.0857C111.905 15.0733 112.656 14.6726 113.117 14.0105L115.071 15.7544C114.617 16.3526 114.017 16.8248 113.328 17.1234C112.577 17.4459 111.768 17.6062 110.952 17.5957C110.048 17.6396 109.148 17.4602 108.331 17.0738V17.0729Z" fill="white"/>
<path d="M125 8.28894V17.4799H121.907V14.0903H119.059V17.4799H115.95V8.28894H119.059V11.5478H121.907V8.28894H125Z" fill="white"/>
<path d="M21.8333 20.8025L22.0665 20.5019L22.4593 20.3342L22.6819 20.5778L22.9853 20.9154C23.6516 19.6536 24.1359 18.2292 24.427 16.6715L24.4338 16.6359L24.446 16.602C24.8957 15.3579 25.1238 14.0551 25.1238 12.7296C25.1238 12.6892 25.1225 12.6469 25.1208 12.6021C25.1198 12.5703 25.1187 12.5381 25.1181 12.5059L25.1052 11.8752L25.779 12.0873C25.315 9.134 23.3852 6.52605 22.5315 5.49303L22.5284 5.4893C22.4766 5.42525 22.4196 5.35713 22.3491 5.27477C22.2644 5.17615 22.1885 5.08972 22.117 5.01076C22.1092 5.00228 22.0993 4.99144 22.0895 4.98059C22.0797 4.96975 22.0702 4.9589 22.06 4.94806L22.0522 4.93958C22.0261 4.91078 22.0075 4.89146 22.0055 4.88908L21.4103 4.27463L22.4128 4.10788C20.6908 3.11588 18.377 2.23639 17.605 1.95407L17.6006 1.95238C17.4904 1.91069 17.3769 1.86968 17.263 1.83037C17.2223 1.81647 17.1996 1.808 17.1996 1.808L16.5567 1.56737L17.1203 0.981385C15.5376 0.722792 13.5377 1.17152 13.5146 1.17694L13.4109 1.20066L13.3072 1.17694C13.2841 1.17152 11.2839 0.722792 9.70113 0.981385L10.2712 1.57279L9.56014 1.83003C9.43474 1.87307 9.32222 1.9134 9.21648 1.9534L9.21139 1.95543C8.43968 2.23808 6.1276 3.11791 4.40896 4.10788L5.40062 4.2726L4.74279 4.96771C4.72686 4.985 4.71093 5.00262 4.69534 5.02025C4.63264 5.08938 4.56113 5.17072 4.48114 5.26426C4.41506 5.34052 4.34863 5.41949 4.2822 5.50049C3.42983 6.53452 1.5058 9.14112 1.04217 12.0866L1.70847 11.8765L1.7017 12.5011C1.70136 12.5401 1.7 12.5787 1.69865 12.6174C1.69729 12.6547 1.69593 12.6916 1.69593 12.7292C1.69593 14.0554 1.92436 15.3589 2.37512 16.6037L2.38766 16.6379L2.39444 16.6735C2.68455 18.2288 3.16818 19.6526 3.83517 20.9151L4.36964 20.3206L4.76109 20.5094L5.07018 20.8737C6.09167 22.0775 7.3033 23.1116 8.65862 23.9358L9.8777 24.677C7.50292 24.1731 6.21843 23.2329 4.4964 21.5393L3.67181 22.4561L3.35323 21.9193C2.47781 20.4443 1.85489 18.7463 1.5014 16.8721C1.06691 15.6608 0.827294 14.3987 0.787301 13.1139L0 13.3623L0.0508374 12.6953C0.164713 11.198 0.658175 9.6173 1.51733 7.99762C2.23752 6.63992 3.05872 5.55031 3.60742 4.88908L2.04197 4.62914L2.90519 3.99841C4.5208 2.81797 7.3016 1.70361 8.65015 1.19999L8.02654 0.552995L8.67624 0.315076C10.3705 -0.30514 12.8659 0.161886 13.4112 0.276101C13.9566 0.161886 16.452 -0.30514 18.1456 0.315076L18.7953 0.552995L18.1716 1.19999C19.5222 1.70361 22.2986 2.81594 23.9173 3.99808L24.7808 4.6288L23.214 4.88875C23.2239 4.90095 23.2337 4.91315 23.2435 4.92501C23.7919 5.58861 24.5931 6.65823 25.2994 7.98644C26.1623 9.60984 26.6574 11.1939 26.7716 12.695L26.8221 13.3616L26.0342 13.1132C25.9945 14.397 25.7552 15.6588 25.3218 16.8691C24.9669 18.7463 24.3436 20.4453 23.4689 21.9189L23.15 22.4561L22.3257 21.539C20.6152 23.221 19.6991 24.0463 17.342 24.5554L18.4567 23.8562C19.7561 23.0411 20.8996 22.0074 21.835 20.8015L21.8333 20.8025Z" fill="white"/>
<path d="M7.14033 8.68556C7.14033 8.68556 7.11051 8.53067 7.0817 8.32156C7.00273 7.74642 7.40062 7.22449 7.93543 7.19806C8.20521 7.1845 8.45228 7.18247 8.51362 7.21365L9.18332 6.74086C9.18332 6.74086 7.8185 6.08031 6.97155 5.92204C6.79261 5.88848 6.61603 5.99084 6.54181 6.1708C6.33812 6.66426 6.02869 7.77523 6.50656 9.27188L7.14 8.6859L7.14033 8.68556Z" fill="white"/>
<path d="M20.9231 6.17764C20.8489 5.99767 20.6723 5.89532 20.4934 5.92887C19.6464 6.08715 18.2816 6.74769 18.2816 6.74769L18.9513 7.22048C19.0127 7.1893 19.2601 7.19167 19.5295 7.20489C20.0643 7.23133 20.4619 7.75326 20.3832 8.3284C20.3544 8.53751 20.3249 8.69239 20.3249 8.69239L20.9584 9.27838C21.4366 7.78173 21.1268 6.67076 20.9231 6.1773V6.17764Z" fill="white"/>
<path d="M16.8232 19.0648C16.8232 19.0648 16.8232 19.0625 16.8229 19.0615C16.8182 19.0337 16.808 19.0106 16.7938 18.9916V18.991C16.7938 18.9591 16.7849 18.9544 16.7704 18.9672C16.6172 18.8408 16.1752 18.9635 15.7872 18.9249C14.8758 18.5005 15.0944 18.4999 14.6006 18.262C13.9181 17.9329 13.672 17.8559 12.9484 18.3013C12.8152 18.3833 12.6786 18.4602 12.5387 18.5304L12.4299 18.5849C12.3818 18.6019 12.3282 18.6212 12.2642 18.6459C11.8286 18.8144 11.366 18.9086 10.899 18.9089C10.7773 18.9089 10.6804 18.9239 10.6268 18.9771C10.5313 19.0604 10.4394 19.3143 10.4391 19.4214C10.4381 20.2582 11.2261 20.4154 11.2261 20.4154C11.2261 20.4151 11.2261 20.4147 11.2261 20.4144C11.2264 20.4144 11.2271 20.4154 11.2271 20.4154C11.2271 20.4127 11.2271 20.41 11.2264 20.4073C11.244 20.0846 11.3843 19.9762 11.4992 19.942C11.5738 19.9247 11.6375 19.9294 11.6504 19.9308C11.6514 19.9308 11.6521 19.9308 11.6521 19.9308L11.6643 19.9616L11.9144 20.6493C12.0666 21.0682 12.4933 21.3983 13.043 21.5227L13.6774 21.666L13.7035 21.6592L13.7296 21.666L14.3641 21.5227C14.9138 21.3986 15.3405 21.0685 15.4927 20.6493L15.7428 19.9616L15.755 19.9308C15.755 19.9308 15.7557 19.9308 15.7567 19.9308C15.7699 19.9294 15.8333 19.9243 15.9078 19.942C16.0227 19.9762 16.163 20.0846 16.1807 20.4073C16.1807 20.41 16.1807 20.4127 16.18 20.4154C16.18 20.4154 16.1807 20.4147 16.181 20.4144C16.181 20.4147 16.181 20.4151 16.181 20.4154C16.181 20.4154 16.203 20.411 16.2393 20.3998C16.7782 20.2348 17.0561 19.6386 16.8443 19.1164L16.8232 19.0648Z" fill="white"/>
<path d="M19.8209 11.5836L19.5617 11.445L20.3178 10.5163C18.5859 6.71572 16.4304 7.4532 16.4304 7.4532C16.4006 7.03871 16.8256 6.71674 16.8256 6.71674C14.6704 6.79943 13.6479 7.60198 13.6368 7.62164H13.6354C13.6252 7.60198 12.6024 6.79943 10.4472 6.71674C10.4472 6.71674 10.8726 7.03871 10.8424 7.4532C10.8424 7.4532 8.68655 6.71606 6.95503 10.5163L7.74267 11.4826L7.55389 11.5836C7.55389 11.5836 6.12028 12.2302 6.49715 13.5954L6.62391 13.6181C7.18549 13.7184 7.70505 13.9658 8.11751 14.3332C8.30323 14.5847 8.50387 14.8755 8.7018 15.1978C8.86448 15.4628 9.02546 15.7482 9.17425 16.0505C9.58942 15.9095 10.1679 15.9515 10.5425 16.0539C10.5425 16.0539 9.7965 16.1203 9.37048 16.425C9.49317 16.6954 9.53621 16.873 9.62975 17.1625C10.049 16.9367 11.0668 16.7002 11.671 16.7256C11.671 16.7256 10.3937 17.1448 9.79616 17.542C9.94426 17.9552 10.0625 18.0694 10.2879 18.1802C10.7787 18.4212 11.3636 18.0525 11.8063 17.7542C12.2753 17.438 12.721 17.2211 13.2677 17.0154C13.2677 17.0154 13.3219 16.8564 13.3219 16.5605C13.3219 16.283 13.2741 15.8847 13.0894 15.3845H13.0887L12.4587 15.27C12.0866 15.2022 11.7388 15.0473 11.4589 14.8141C11.2488 14.6389 11.1125 14.4532 11.3572 14.3823C11.3572 14.3823 10.9932 14.0248 11.6307 13.8879C11.6307 13.8879 11.4833 14.3139 13.6357 13.9123H13.6371C15.7919 14.3139 15.6411 13.8879 15.6411 13.8879C16.2789 14.0244 15.9146 14.3823 15.9146 14.3823C16.1115 14.4566 15.8543 14.6752 15.6391 14.8256C15.5069 14.9182 15.3632 14.9951 15.2114 15.0575C14.5647 15.3232 14.3132 15.3747 14.2254 15.3838C14.1987 15.3845 14.1838 15.3848 14.1838 15.3848C14.1217 15.5533 14.075 15.7099 14.0407 15.8542C13.9726 16.1396 13.9516 16.3769 13.9516 16.5612C13.9516 16.8571 14.0055 17.0157 14.0055 17.0157C14.056 17.0303 14.1062 17.0455 14.1563 17.0621C14.4959 17.173 14.8199 17.3241 15.1198 17.5122C15.2395 17.5875 15.3554 17.6681 15.4666 17.7549C15.7706 17.9908 16.1705 18.2334 16.5538 18.2599C16.8476 18.2805 17.1317 18.1745 17.3557 17.8416C16.9859 17.2597 15.7157 16.7419 15.7157 16.7419C16.4694 16.7103 17.173 17.0608 17.5929 17.3268C17.5966 17.3146 17.6007 17.3021 17.6044 17.2896C17.6878 17.0137 17.7898 16.7432 17.9044 16.4806C17.4723 16.1488 16.7294 16.0715 16.7294 16.0715C17.2642 15.9251 17.8166 16.0481 18.0708 16.123C18.1545 15.9519 18.2433 15.7848 18.3345 15.6234C18.5351 15.2679 18.7483 14.9385 18.9547 14.6443C18.973 14.625 18.9909 14.6053 19.0086 14.5853C19.4498 14.079 20.0701 13.7404 20.7516 13.6188L20.8784 13.596C21.2552 12.2306 19.8216 11.5842 19.8216 11.5842L19.8209 11.5836ZM11.9666 11.507C11.8629 12.216 12.356 12.4719 11.4823 12.8264C11.4823 12.8264 11.7937 12.4197 11.5029 12.2085C11.2128 11.9984 11.2952 11.6829 11.2952 11.6829C11.2952 11.6829 9.81988 11.871 9.44843 11.0332C9.44843 11.0332 9.44843 10.9118 8.71434 10.9118C8.71434 10.9118 9.22881 10.3472 10.2222 10.3411C11.0146 10.336 10.979 10.4475 11.2721 10.6268C11.489 10.7593 11.8879 10.4333 12.0611 10.4309C12.3912 10.4265 12.5556 10.4211 12.7508 10.5797C13.4046 11.1108 12.0713 10.7976 11.9666 11.5073V11.507ZM16.0339 11.71L16.0251 11.7076C16.0373 11.7856 16.0542 12.0336 15.8126 12.2089C15.5218 12.4197 15.7906 13.332 15.7906 13.332C14.9168 12.9775 15.4527 12.216 15.349 11.507C15.2666 10.9495 14.4708 11.0684 14.4156 10.8518C14.3725 10.7929 14.4078 10.7088 14.5783 10.5651C14.58 10.5638 14.5813 10.5628 14.583 10.5614C14.7172 10.4296 14.8406 10.394 14.9541 10.4143C15.0422 10.4072 15.1432 10.4089 15.268 10.4106C15.4411 10.413 15.6675 10.8607 15.8844 10.7231C16.1779 10.5373 16.2281 10.3794 17.1069 10.3174C17.1818 10.312 17.2537 10.3113 17.3228 10.314C17.883 10.2886 18.2701 10.5709 18.4619 10.7563C18.5632 10.8441 18.6144 10.9098 18.6144 10.9098C18.6093 10.9098 18.6046 10.9098 18.5995 10.9098C18.6002 10.9108 18.6009 10.9115 18.6009 10.9115C18.4422 10.9115 18.3182 10.9173 18.2209 10.9261C17.8807 10.9603 17.8803 11.0355 17.8803 11.0355C17.5092 11.9049 16.0336 11.7096 16.0336 11.7096L16.0339 11.71Z" fill="white"/>
</svg>
