<svg width="125" height="25" viewBox="0 0 125 25" fill="none" xmlns="http://www.w3.org/2000/svg">
<g clip-path="url(#clip0_94_376)">
<path d="M26.3496 20.6032C24.4483 17.8047 21.6932 15.6958 18.4953 14.5913C18.3272 14.5358 18.1803 14.4297 18.0748 14.2875C17.9693 14.1453 17.9104 13.974 17.906 13.797C18.0189 12.6958 18.4102 11.6416 19.0432 10.7335C19.6761 9.82542 20.5299 9.09345 21.5239 8.60654C21.771 8.48986 22.0425 8.43421 22.3156 8.44429C22.5887 8.45437 22.8553 8.52986 23.0932 8.66444C23.7624 9.11745 24.2324 9.8098 24.4065 10.5989L24.6256 11.1942C24.0399 10.7705 23.335 10.5432 22.6121 10.5448L22.6825 11.8305C23.7928 11.7715 25.269 13.4084 25.6981 13.9869C25.7411 14.0768 25.8042 14.1557 25.8825 14.2174C25.9608 14.279 26.0523 14.3218 26.1498 14.3424C26.2474 14.3631 26.3483 14.3609 26.4449 14.3363C26.5415 14.3116 26.6311 14.265 26.7068 14.2001C27.1986 13.8354 26.7382 13.2169 26.7382 13.2169L26.3594 12.5821C25.9846 11.8437 25.7402 11.0461 25.637 10.2245C25.2528 8.87169 24.5829 7.95178 23.6397 7.49941C23.2204 7.30407 22.7648 7.19881 22.3023 7.19042C21.8399 7.18204 21.3808 7.2707 20.9547 7.45071C18.7437 8.60113 17.0424 10.6038 16.5965 14.1492C16.6064 14.4834 16.7236 14.8055 16.9308 15.0679C17.138 15.3302 17.4241 15.5189 17.7469 15.6059C18.0261 15.7428 21.3286 16.1032 25.3036 21.3542L25.3318 21.3921C25.4878 21.5396 25.6105 21.7186 25.6919 21.9173C25.7733 22.1159 25.8113 22.3296 25.8036 22.5441C25.7447 22.7671 25.572 22.9635 25.1078 22.983H22.0991C20.2972 19.1443 17.0305 16.897 12.1858 16.706C11.8168 16.6898 7.03817 16.587 0.690297 19.9603C0.409456 20.1091 0.438135 20.2677 0.490083 20.3932L0.698414 21.1259C0.707389 21.1533 0.722195 21.1785 0.741816 21.1997C0.761437 21.2209 0.785408 21.2376 0.812085 21.2486C0.838763 21.2597 0.867516 21.2648 0.896371 21.2637C0.925226 21.2626 0.9535 21.2553 0.979255 21.2422C7.72052 17.7368 12.1723 17.9668 12.1723 17.9668C14.0753 17.9646 15.9366 18.5244 17.5228 19.5759C19.1089 20.6274 20.3493 22.1238 21.0883 23.8775L21.255 24.2703L25.4525 24.2476H25.5715C25.9307 24.2118 26.2684 24.0603 26.5339 23.8158C26.7994 23.5713 26.9782 23.2471 27.0433 22.8921C27.2365 22.1924 27.0028 21.4224 26.3496 20.6037" fill="white"/>
<path d="M18.8384 24.2698H2.3391C2.25205 24.2657 2.16761 24.2387 2.09422 24.1917C2.02082 24.1447 1.96103 24.0793 1.92082 24.002L1.60156 23.3526C1.60156 23.3526 1.33966 22.9652 1.79582 22.9814H17.3492C16.5364 21.9463 14.728 20.3808 11.2221 20.3781C11.0897 20.3914 10.956 20.3695 10.8347 20.3147C10.7134 20.2599 10.6087 20.174 10.5311 20.0659L10.2016 19.5248C9.94616 19.0919 11.2227 19.0919 11.2227 19.0919C17.2453 19.0946 19.0245 23.2044 19.097 23.3786C19.097 23.3786 19.6317 24.2926 18.8384 24.2698Z" fill="white"/>
<path d="M16.2129 6.44498e-05C12.7162 -0.00982023 9.31106 1.11755 6.51113 3.21215C3.78038 5.25376 1.75403 8.0959 0.714116 11.343C0.400652 12.1809 0.341175 13.0927 0.543122 13.9642C0.788249 14.7845 1.69841 15.1649 2.88671 15.2786C3.60119 15.3374 4.32017 15.3094 5.02792 15.1952C3.40206 15.6602 1.81249 16.2439 0.272021 16.9414C0.185189 16.9809 0.112633 17.0462 0.0642229 17.1284C0.0158128 17.2106 -0.0061013 17.3057 0.0014617 17.4008V17.4084L0.0166135 17.5745L0.0220243 17.6286C0.0247299 17.6622 0.028518 17.6985 0.0317648 17.7369L0.0377169 17.8029C0.0409636 17.8391 0.0447515 17.8759 0.0479982 17.9111L0.0550325 17.9858C0.0593614 18.0339 0.0636905 18.081 0.0680194 18.127V18.1357C0.0966988 18.4495 0.310441 18.3397 0.310441 18.3397V18.3424C2.96967 16.8196 5.91593 15.8651 8.96294 15.5394C11.602 15.2456 8.81738 14.6557 8.81738 14.6557C7.17921 14.3682 5.52367 14.1903 3.86181 14.1233C2.67134 14.0399 2.11237 13.9068 1.85534 13.4885C1.49874 12.9058 1.93542 11.7488 1.93542 11.7488C2.89158 8.75167 4.76015 6.12806 7.28006 4.2446C10.0158 2.21163 13.3635 1.1731 16.7695 1.30072C20.1756 1.42834 23.4361 2.71446 26.0121 4.94646C28.588 7.17846 30.3252 10.2227 30.9364 13.5759C31.5476 16.9291 30.9962 20.3905 29.3734 23.3878C29.2029 23.6862 29.0135 23.9734 28.8063 24.2476L30.3447 24.2703C30.4091 24.1877 30.4635 24.0978 30.5071 24.0025C31.8482 21.526 32.5231 18.7437 32.4656 15.928C32.4082 13.1123 31.6204 10.3598 30.1794 7.94009C28.7384 5.52039 26.6936 3.51646 24.2453 2.1246C21.797 0.732728 19.0291 0.000649369 16.2129 6.44498e-05Z" fill="white"/>
<path d="M49.8374 23.2963C50.1157 23.1077 50.3408 22.8508 50.4912 22.5501C50.6416 22.2494 50.7122 21.9152 50.6962 21.5794C50.7166 21.0505 50.5795 20.5275 50.3023 20.0767C49.9849 19.6283 49.5742 19.2541 49.0983 18.9798C48.3301 18.5317 47.5335 18.134 46.7136 17.7894C45.6464 17.3374 44.6106 16.8148 43.613 16.225C42.9072 15.7988 42.3135 15.2102 41.8814 14.508C41.4319 13.7046 41.2132 12.7926 41.2493 11.8728C41.2081 11.2081 41.3353 10.5438 41.6191 9.94141C41.9028 9.33897 42.334 8.81788 42.8727 8.42638C43.9546 7.65547 45.6721 7.27001 48.0252 7.27001C49.047 7.26731 50.0662 7.37123 51.0663 7.58007C51.9169 7.74569 52.7454 8.00973 53.5349 8.36686L52.9635 12.0156H52.3196C52.086 11.2148 51.7697 10.4404 51.3758 9.70505C51.0668 9.14828 50.6084 8.68892 50.0523 8.37876C49.3638 8.03908 48.6006 7.879 47.8337 7.9134C45.7341 7.9134 44.6844 8.5972 44.6844 9.96478C44.6644 10.4539 44.7967 10.9372 45.0632 11.3479C45.3688 11.7583 45.7613 12.0962 46.2125 12.3376C46.7211 12.632 47.5638 13.0649 48.7406 13.6363L49.2173 13.8527C50.3392 14.3773 51.4336 14.9585 52.4965 15.594C53.1755 16.0117 53.7505 16.5785 54.1778 17.2515C54.6214 18.0308 54.8363 18.9194 54.7979 19.8153C54.8361 20.5051 54.6946 21.193 54.3873 21.8117C54.08 22.4304 53.6174 22.9587 53.0447 23.345C51.8762 24.1387 50.0438 24.5355 47.5474 24.5355C46.4307 24.5243 45.3173 24.4125 44.2206 24.2016C43.2481 24.0511 42.2985 23.7784 41.3944 23.39L42.0383 19.1925H42.6584C42.7883 20.2042 43.1038 21.1833 43.5891 22.0804C43.9402 22.7076 44.4837 23.205 45.1394 23.4993C45.8689 23.7813 46.6472 23.915 47.4289 23.8927C48.2737 23.9426 49.1137 23.735 49.838 23.2974" fill="white"/>
<path d="M61.082 14.0432C60.7013 15.163 60.5314 16.3436 60.5809 17.5253H64.5852V15.7364C64.63 15.0122 64.5124 14.2871 64.241 13.6141C64.1019 13.3819 63.8983 13.195 63.6549 13.0764C63.4116 12.9578 63.139 12.9124 62.8704 12.9458C62.4943 12.915 62.1183 13.0047 61.7967 13.2021C61.4751 13.3994 61.2248 13.694 61.082 14.0432ZM61.4272 22.1757C61.9755 23.0981 63.0051 23.5592 64.5159 23.5588C65.1945 23.5707 65.8696 23.4575 66.5072 23.2249C67.1407 22.9744 67.7445 22.6545 68.3075 22.2709L68.6176 22.7239C67.1385 23.9324 65.1829 24.5364 62.7508 24.5361C60.5567 24.5361 58.8277 24.0074 57.5636 22.95C56.2995 21.8927 55.6682 20.3465 55.6697 18.3116C55.6697 16.3881 56.3136 14.9173 57.6015 13.8993C58.8893 12.8813 60.6934 12.3728 63.0138 12.3739C64.1578 12.3403 65.2957 12.5518 66.3514 12.994C67.1716 13.336 67.8726 13.9126 68.3665 14.6514C68.8026 15.3392 69.0303 16.1385 69.0223 16.9528C69.0251 17.3528 68.985 17.7519 68.9028 18.1433H60.5809C60.5964 19.9081 60.8787 21.2515 61.4277 22.1735" fill="white"/>
<path d="M77.072 23.6302C77.2577 23.5011 77.4055 23.3246 77.4999 23.1191C77.5943 22.9135 77.6319 22.6864 77.6088 22.4614C77.6239 22.1275 77.5227 21.7988 77.3225 21.5312C77.0734 21.2503 76.7634 21.03 76.4162 20.8873C76.0027 20.6968 75.3429 20.4345 74.4367 20.1005C73.242 19.732 72.126 19.1449 71.1457 18.3689C70.8146 18.0526 70.5558 17.6685 70.3871 17.2429C70.2183 16.8173 70.1435 16.3602 70.1679 15.903C70.1353 15.3812 70.2417 14.8601 70.4763 14.3928C70.711 13.9256 71.0654 13.5289 71.5033 13.2434C72.3937 12.6633 73.7452 12.3733 75.5579 12.3733C76.4713 12.3727 77.3823 12.4646 78.2771 12.6476C78.9912 12.7756 79.6876 12.9878 80.3517 13.2797L80.0649 16.1416H79.6596C79.3301 15.229 78.8004 14.4018 78.1093 13.7207C77.3695 13.1266 76.4331 12.8329 75.4865 12.8982C74.9069 12.8694 74.3283 12.9713 73.7934 13.1963C73.597 13.297 73.4354 13.4541 73.3293 13.6475C73.2232 13.8409 73.1775 14.0617 73.1981 14.2813C73.1824 14.5986 73.2796 14.9113 73.4725 15.1638C73.7115 15.4283 74.0035 15.6394 74.3296 15.7834C74.7192 15.9746 75.3671 16.2526 76.2733 16.6173C77.2871 17.0071 78.275 17.4611 79.2311 17.9766C79.8217 18.2891 80.3287 18.739 80.7094 19.2883C81.0455 19.849 81.2113 20.4953 81.1867 21.1486C81.2231 21.665 81.114 22.1813 80.8716 22.6388C80.6292 23.0962 80.2633 23.4765 79.8155 23.7363C78.901 24.2687 77.5301 24.5351 75.703 24.5355C74.6828 24.5314 73.6648 24.44 72.6602 24.2622C71.8468 24.1467 71.0501 23.9345 70.2869 23.6302L70.6202 20.3867H71.0255C71.1994 21.4475 71.7397 22.4138 72.5526 23.1172C73.3843 23.7131 74.3925 24.0114 75.4145 23.9641C75.9869 24.0027 76.5592 23.8874 77.072 23.6302Z" fill="white"/>
<path d="M88.1022 13.1601C87.7364 13.2398 87.5537 13.3908 87.554 13.613C87.5653 13.7473 87.6059 13.8776 87.6731 13.9945L90.4404 19.5518L93.0377 13.4912C93.0793 13.4188 93.1042 13.338 93.1108 13.2548C93.1108 13.1595 93.0069 13.1038 92.8007 13.0881L92.1801 13.0172V12.6595H94.923V13.0172L94.3029 13.1125C94.162 13.1288 94.0249 13.169 93.8976 13.2315C93.7883 13.3182 93.7056 13.4339 93.6589 13.5654L88.817 24.6794H88.3884L82.6169 13.6612C82.5533 13.5361 82.4589 13.4294 82.3425 13.3511C82.2206 13.281 82.0875 13.2325 81.9491 13.2077L81.2338 13.0172V12.6595H88.7223V13.0172L88.1022 13.1601Z" fill="white"/>
<path d="M101.385 22.1757V18.3104C100.69 18.3315 100.004 18.4729 99.358 18.7282C98.9376 18.9026 98.6003 19.232 98.4159 19.6481C98.2285 20.168 98.1434 20.7192 98.1654 21.2715C98.1275 21.7324 98.2415 22.1931 98.49 22.5831C98.6157 22.725 98.7728 22.8355 98.9488 22.9059C99.1247 22.9763 99.3147 23.0045 99.5036 22.9884C100.214 22.9772 100.891 22.6854 101.388 22.1767M101.662 23.9776C101.454 23.7187 101.355 23.3884 101.388 23.0577V22.9386C100.322 23.9722 98.8041 24.4889 96.8326 24.4889C95.9686 24.5408 95.1133 24.2923 94.4116 23.7855C94.1073 23.514 93.8702 23.1756 93.7187 22.7969C93.5673 22.4182 93.5057 22.0096 93.5388 21.6032C93.5146 21.1782 93.5795 20.7529 93.7294 20.3545C93.8792 19.9562 94.1107 19.5935 94.4089 19.2899C95.1288 18.6654 96.0076 18.2526 96.9478 18.0972C98.4113 17.8229 99.8962 17.6793 101.385 17.6681V15.9295C101.447 15.2473 101.261 14.5656 100.861 14.0096C100.612 13.79 100.32 13.6245 100.004 13.5239C99.6878 13.4233 99.3541 13.3897 99.0241 13.4252C98.3332 13.4193 97.6455 13.5198 96.9852 13.7234C96.3115 13.9426 95.6667 14.2422 95.0648 14.6157L94.7547 14.1628C95.5972 13.5849 96.5272 13.1464 97.509 12.8641C98.683 12.5249 99.9007 12.3608 101.123 12.3771C102.919 12.3771 104.2 12.7308 104.965 13.4382C105.362 13.8384 105.67 14.3187 105.867 14.8471C106.065 15.3754 106.147 15.9398 106.11 16.5026V23.1058C106.102 23.1697 106.108 23.2344 106.126 23.296C106.145 23.3575 106.176 23.4146 106.218 23.4635C106.358 23.5538 106.517 23.6108 106.683 23.6302L107.518 23.8207V24.2498H102.601C102.264 24.2842 101.926 24.1858 101.659 23.9754" fill="white"/>
<path d="M123.7 23.4636C123.84 23.554 123.999 23.611 124.165 23.6302L125 23.8207V24.2498H120.04C119.87 24.2659 119.698 24.2443 119.537 24.1866C119.376 24.1289 119.23 24.0365 119.109 23.9159C118.898 23.6268 118.796 23.2716 118.823 22.9143V15.665C118.869 15.1331 118.748 14.6002 118.477 14.1401C118.334 13.9786 118.154 13.8533 117.953 13.7746C117.752 13.6959 117.535 13.6659 117.32 13.6872C116.235 13.7375 115.2 14.1576 114.387 14.8776V23.1059C114.374 23.2384 114.413 23.3709 114.495 23.4755C114.624 23.5725 114.777 23.6342 114.937 23.6546L115.748 23.8212V24.2504H108.21V23.8212L109.045 23.6308C109.211 23.6115 109.37 23.5545 109.51 23.4641C109.552 23.4151 109.583 23.3581 109.602 23.2965C109.62 23.235 109.626 23.1703 109.619 23.1064V14.0908C109.626 14.027 109.62 13.9623 109.602 13.9008C109.583 13.8392 109.552 13.7822 109.51 13.7332C109.37 13.6429 109.211 13.5859 109.045 13.5665L108.21 13.3755V12.9464L113.935 12.2305H114.34V14.1623C115.011 13.6309 115.759 13.2046 116.559 12.8982C117.486 12.539 118.474 12.361 119.468 12.3739C120.947 12.3739 122.005 12.6839 122.64 13.304C122.98 13.6801 123.24 14.1214 123.404 14.601C123.567 15.0807 123.632 15.5887 123.593 16.0941V23.1059C123.586 23.1697 123.591 23.2345 123.61 23.296C123.629 23.3575 123.66 23.4146 123.701 23.4636" fill="white"/>
</g>
<defs>
<clipPath id="clip0_94_376">
<rect width="125" height="24.6794" fill="white"/>
</clipPath>
</defs>
</svg>
