<svg width="107" height="31" viewBox="0 0 107 31" fill="none" xmlns="http://www.w3.org/2000/svg">
<path d="M43.811 3.63548C41.5313 3.63548 39.5489 4.42154 37.9134 6.04277C36.2779 7.66401 35.485 9.62915 35.485 11.8891C35.485 14.1981 36.2779 16.1141 37.9134 17.7353C39.5489 19.3566 41.5313 20.1917 43.811 20.1917C46.1404 20.1917 48.0732 19.3566 49.7087 17.7353C51.3442 16.1141 52.1371 14.149 52.1371 11.8891C52.1371 9.62915 51.3442 7.66401 49.7087 6.04277C48.1228 4.47067 46.1404 3.63548 43.811 3.63548ZM43.811 1.67035C46.6855 1.67035 49.114 2.65292 51.1459 4.66718C53.1779 6.68144 54.1691 9.08873 54.1691 11.9382C54.1691 14.7876 53.1779 17.1949 51.1459 19.2092C49.114 21.2234 46.6855 22.206 43.811 22.206C40.9366 22.206 38.5081 21.2234 36.4762 19.2092C34.4442 17.1949 33.453 14.7876 33.453 11.9382C33.453 9.08873 34.4442 6.68144 36.4762 4.66718C38.5577 2.65292 40.9861 1.67035 43.811 1.67035ZM30.1821 17.8827L31.6688 19.2092C29.4387 21.2234 27.0102 22.206 24.334 22.206C21.4595 22.206 19.0311 21.2234 16.9991 19.2092C14.9671 17.1949 13.9759 14.7876 13.9759 11.9382C13.9759 9.13786 14.9671 6.68144 16.9991 4.71631C19.0311 2.70205 21.4595 1.71948 24.334 1.71948C27.0102 1.71948 29.4387 2.70205 31.6688 4.71631L30.1821 6.04277C28.3979 4.47067 26.4651 3.73374 24.3835 3.73374C22.1038 3.73374 20.1214 4.51979 18.4859 6.14103C16.8504 7.76227 16.0575 9.67827 16.0575 11.9873C16.0575 14.2963 16.8504 16.2123 18.4859 17.8336C20.1214 19.4548 22.0542 20.2409 24.3835 20.2409C26.4651 20.2409 28.3979 19.4548 30.1821 17.8827ZM8.67302 3.93025V22.0095H6.69062V3.93025H1.78418V1.96512H13.5795V3.93025H8.67302Z" fill="white"/>
<path d="M56.3497 19.16C56.7462 19.16 57.1427 19.3074 57.44 19.6022C57.7374 19.897 57.8861 20.2409 57.8861 20.683C57.8861 21.1252 57.7374 21.4691 57.44 21.7638C57.1427 22.0586 56.7958 22.206 56.3497 22.206C55.9532 22.206 55.5568 22.0586 55.2594 21.7638C54.962 21.4691 54.8134 21.1252 54.8134 20.683C54.8134 20.2409 54.962 19.897 55.2594 19.6022C55.5568 19.3074 55.9037 19.16 56.3497 19.16Z" fill="white"/>
<path d="M56.994 5.01107C56.7958 5.10933 56.5975 5.15846 56.3993 5.15846C56.0028 5.15846 55.6559 5.01107 55.3585 4.7163C55.0612 4.42153 54.9125 4.07763 54.9125 3.68461C54.9125 3.29158 55.0612 2.94768 55.3585 2.65291C55.6559 2.35814 56.0028 2.21075 56.3993 2.21075C56.7958 2.21075 57.1427 2.35814 57.44 2.65291C57.7374 2.94768 57.8861 3.29158 57.8861 3.68461C57.8861 4.07763 57.7374 4.42153 57.44 4.7163C57.3409 4.81456 57.1922 4.91281 56.994 5.01107ZM56.7958 4.86369L56.3993 4.27415H56.0524V4.7163H55.8541V2.75117H56.4984C56.6966 2.75117 56.8453 2.84942 56.9444 2.94768C57.0931 3.09506 57.1427 3.29158 57.1427 3.48809C57.1427 3.68461 57.0931 3.88112 56.9444 4.0285C56.8453 4.12676 56.7462 4.17589 56.6471 4.22502L56.994 4.76543C57.0931 4.7163 57.1922 4.61804 57.2418 4.56892C57.4896 4.32327 57.5887 4.0285 57.5887 3.68461C57.5887 3.34071 57.4896 3.04594 57.2418 2.80029C56.994 2.55465 56.6966 2.4564 56.3497 2.4564C56.0028 2.4564 55.7054 2.55465 55.4576 2.80029C55.2098 3.04594 55.1107 3.34071 55.1107 3.68461C55.1107 4.0285 55.2098 4.32327 55.4576 4.56892C55.5568 4.66717 55.7054 4.76543 55.8541 4.81456C55.9037 4.81456 55.9532 4.86369 56.0028 4.86369C56.1019 4.91281 56.201 4.91281 56.3497 4.91281C56.548 4.96194 56.6966 4.91281 56.7958 4.86369ZM56.1019 2.94768V4.0285H56.4488C56.5975 4.0285 56.7462 3.97938 56.8453 3.88112C56.9444 3.78286 56.994 3.63548 56.994 3.48809C56.994 3.34071 56.9444 3.19332 56.8453 3.09507C56.7462 2.99681 56.5975 2.94768 56.4488 2.94768H56.1019Z" fill="white"/>
<path d="M57.3905 27.6101C57.3905 27.4136 57.3409 27.2662 57.1923 27.168C57.0931 27.1188 56.8949 27.0697 56.5975 27.0697H56.0524C55.8046 27.0697 55.6063 27.1188 55.4577 27.168C55.3585 27.2662 55.2594 27.4136 55.2594 27.6101H57.3905ZM57.7374 28.3962C57.7374 28.8383 57.3905 29.0348 56.7462 29.0348H56.1019C55.7055 29.0348 55.4081 28.9857 55.2594 28.7892C55.1107 28.6418 55.0116 28.3962 55.0116 28.0523V27.7084C55.0116 27.3645 55.1107 27.1188 55.2594 26.9714C55.4081 26.8241 55.7055 26.7258 56.1019 26.7258H56.6471C57.0436 26.7258 57.3409 26.8241 57.5392 26.9714C57.6879 27.1188 57.787 27.4136 57.787 27.8066C57.787 27.9049 57.787 27.954 57.787 28.0031H55.3585V28.1014C55.3585 28.347 55.4081 28.4944 55.5072 28.5927C55.6063 28.6909 55.8046 28.7401 56.1019 28.7401H56.6967C57.1923 28.7401 57.4401 28.5927 57.4401 28.347H57.787V28.3962H57.7374ZM54.516 26.8241L53.4753 29.0348H52.9797L52.2858 27.1188L51.592 29.0348H51.0964L50.1052 26.8241H50.5017L51.3442 28.7401L52.038 26.8241H52.5832L53.277 28.7401L54.1691 26.8241H54.516ZM49.3618 28.0523V27.8066C49.3618 27.561 49.3122 27.3645 49.2131 27.2662C49.114 27.168 48.8662 27.1188 48.5688 27.1188H47.9741C47.6767 27.1188 47.4289 27.168 47.3298 27.2662C47.2307 27.3645 47.1811 27.5119 47.1811 27.8066V28.0523C47.1811 28.347 47.2307 28.4944 47.3298 28.5927C47.4289 28.6909 47.6272 28.7401 47.9741 28.7401H48.5688C48.8662 28.7401 49.114 28.6909 49.2131 28.5927C49.3122 28.4944 49.3618 28.2979 49.3618 28.0523ZM49.7087 28.0523C49.7087 28.3962 49.6096 28.6418 49.4609 28.7892C49.3122 28.9366 49.0149 29.0348 48.6184 29.0348H47.8254C47.4289 29.0348 47.1811 28.9366 46.9829 28.7892C46.8342 28.6418 46.7351 28.3962 46.7351 28.0523V27.7084C46.7351 27.3645 46.8342 27.1188 46.9829 26.9714C47.1316 26.8241 47.4289 26.7258 47.8254 26.7258H48.6184C49.0149 26.7258 49.2627 26.8241 49.4113 26.9714C49.56 27.1188 49.6591 27.3645 49.6591 27.7084V28.0523H49.7087ZM45.9917 29.0348H45.6448V25.8906H45.9917V29.0348ZM44.5049 28.0523V27.8066C44.5049 27.561 44.4553 27.3645 44.3562 27.2662C44.2571 27.168 44.0589 27.1188 43.7119 27.1188H43.2163C42.919 27.1188 42.6712 27.168 42.5721 27.2662C42.4729 27.3645 42.4234 27.5119 42.4234 27.8066V28.0523C42.4234 28.347 42.4729 28.4944 42.5721 28.5927C42.6712 28.6909 42.8694 28.7401 43.2163 28.7401H43.7119C44.0093 28.7401 44.2571 28.6909 44.3562 28.5927C44.4553 28.4944 44.5049 28.2979 44.5049 28.0523ZM44.8518 28.0523C44.8518 28.3962 44.7527 28.6418 44.604 28.7892C44.4553 28.9366 44.158 29.0348 43.7615 29.0348H43.1668C42.919 29.0348 42.7703 28.9857 42.6712 28.9366C42.5225 28.8875 42.4234 28.7892 42.3738 28.6418V28.9857H42.0765V25.8415H42.4234V27.0206C42.5721 26.8241 42.8199 26.7258 43.1172 26.7258H43.8111C44.2075 26.7258 44.4553 26.8241 44.6536 26.9714C44.8023 27.1188 44.9014 27.3645 44.9014 27.7084V28.0523H44.8518ZM40.9366 27.6101C40.9366 27.4136 40.887 27.2662 40.7383 27.168C40.6392 27.1188 40.441 27.0697 40.1436 27.0697H39.648C39.3507 27.0697 39.202 27.1188 39.0533 27.168C38.9542 27.2662 38.8551 27.4136 38.8551 27.6101H40.9366ZM41.3331 28.3962C41.3331 28.8383 40.9861 29.0348 40.3419 29.0348H39.648C39.2515 29.0348 38.9542 28.9857 38.8055 28.7892C38.6568 28.6418 38.5577 28.3962 38.5577 28.0523V27.7084C38.5577 27.3645 38.6568 27.1188 38.8055 26.9714C38.9542 26.8241 39.2515 26.7258 39.648 26.7258H40.1932C40.5897 26.7258 40.887 26.8241 41.0853 26.9714C41.2339 27.1188 41.3331 27.4136 41.3331 27.8066C41.3331 27.9049 41.3331 27.954 41.3331 28.0031H38.9046V28.1014C38.9046 28.347 38.9542 28.4944 39.0533 28.5927C39.1524 28.6909 39.3507 28.7401 39.648 28.7401H40.2427C40.7383 28.7401 40.9861 28.5927 40.9861 28.347H41.3331V28.3962ZM37.7647 29.0348H37.4178V27.7084C37.4178 27.4627 37.3683 27.3645 37.2691 27.2662C37.1205 27.168 36.9222 27.1188 36.5257 27.1188C36.2284 27.1188 35.9806 27.168 35.8815 27.2171C35.7328 27.3153 35.6832 27.4627 35.6832 27.6101V28.9857H35.3363V27.6101C35.3363 27.4136 35.2867 27.2662 35.1876 27.168C35.0885 27.1188 34.8407 27.0697 34.4938 27.0697C34.1469 27.0697 33.8991 27.1188 33.7504 27.2171C33.6017 27.3153 33.5026 27.4627 33.5026 27.6592V28.9857H33.2052V26.7749H33.5521V27.0697C33.6017 26.9714 33.7504 26.8732 33.8991 26.8241C34.0477 26.7749 34.246 26.7749 34.5433 26.7749C34.8407 26.7749 35.0885 26.8241 35.2372 26.8732C35.3859 26.9223 35.5345 27.0206 35.5841 27.2171C35.7328 26.9223 36.0301 26.8241 36.5753 26.8241C37.0213 26.8241 37.3187 26.8732 37.5169 27.0206C37.7152 27.1188 37.8143 27.3645 37.8143 27.6592V29.0348H37.7647ZM29.9838 28.4453V28.2488C29.9838 28.1505 29.9343 28.0523 29.7856 28.0031C29.6865 27.954 29.4882 27.954 29.2404 27.954H28.7448C28.497 27.954 28.3483 27.954 28.2492 28.0031C28.1005 28.0523 28.0014 28.1505 28.0014 28.347C28.0014 28.5436 28.1005 28.6909 28.2492 28.7401C28.2988 28.7401 28.497 28.7892 28.7448 28.7892H29.2404C29.4387 28.7892 29.6369 28.7892 29.6865 28.7401C29.8847 28.6418 29.9838 28.5927 29.9838 28.4453ZM30.3307 29.0348H29.9838V28.7401C29.9343 28.8875 29.8351 28.9366 29.6865 28.9857C29.5873 29.0348 29.3891 29.0348 29.1909 29.0348H28.5961C28.1997 29.0348 27.9519 28.9857 27.8032 28.8875C27.6545 28.7892 27.5554 28.5927 27.5554 28.347C27.5554 28.1014 27.6545 27.9049 27.8032 27.8066C27.9519 27.7084 28.1997 27.6592 28.5961 27.6592H29.2404C29.5873 27.6592 29.8351 27.7575 29.9838 27.9049V27.6101C29.9838 27.4136 29.9343 27.2662 29.8351 27.2171C29.736 27.168 29.5378 27.1188 29.29 27.1188H28.7448C28.497 27.1188 28.3483 27.1188 28.2492 27.168C28.1501 27.2171 28.1005 27.3153 28.1005 27.4136V27.4627H27.7536V27.4136C27.7536 27.168 27.8527 27.0206 28.0014 26.9223C28.1501 26.8241 28.3979 26.7749 28.7448 26.7749H29.3891C29.736 26.7749 29.9838 26.8241 30.1325 26.9714C30.2812 27.1188 30.3803 27.3153 30.3803 27.6101V29.0348H30.3307ZM26.8615 29.0348H26.5146V26.8241H26.8615V29.0348ZM26.8615 26.3328H26.5146V25.9397H26.8615V26.3328ZM25.8703 27.8066H25.5234V27.6101C25.5234 27.4136 25.4739 27.2662 25.3748 27.2171C25.2756 27.168 25.0774 27.1188 24.7305 27.1188C24.4331 27.1188 24.2349 27.168 24.0862 27.2662C23.9375 27.3645 23.8879 27.5119 23.8879 27.6592V29.0348H23.541V26.8241H23.8879V27.168C23.9871 27.0206 24.0862 26.9223 24.2349 26.8732C24.3836 26.8241 24.5818 26.7749 24.8296 26.7749C25.1765 26.7749 25.4739 26.8241 25.6225 26.9223C25.7712 27.0206 25.8703 27.2171 25.8703 27.5119V27.8066ZM22.5003 28.0523V27.8066C22.5003 27.561 22.4507 27.3645 22.3516 27.2662C22.2525 27.168 22.0047 27.1188 21.7073 27.1188H21.1126C20.8152 27.1188 20.5674 27.168 20.4683 27.2662C20.3692 27.3645 20.3196 27.5119 20.3196 27.8066V28.0523C20.3196 28.347 20.3692 28.4944 20.4683 28.5927C20.5674 28.6909 20.7657 28.7401 21.1126 28.7401H21.7073C22.0047 28.7401 22.2525 28.6909 22.3516 28.5927C22.4011 28.4944 22.5003 28.2979 22.5003 28.0523ZM22.8472 28.0523C22.8472 28.3962 22.7481 28.6418 22.5994 28.7892C22.4507 28.9366 22.1534 29.0348 21.7569 29.0348H21.0135C20.617 29.0348 20.3692 28.9366 20.1709 28.7892C20.0223 28.6418 19.9232 28.3962 19.9232 28.0523V27.7084C19.9232 27.3645 20.0223 27.1188 20.1709 26.9714C20.3196 26.8241 20.617 26.7258 21.0135 26.7258H21.7569C22.1534 26.7258 22.4011 26.8241 22.5994 26.9714C22.7481 27.1188 22.8472 27.3645 22.8472 27.7084V28.0523ZM19.1302 28.4944C19.1302 28.7401 19.0311 28.8875 18.8824 28.9366C18.7337 29.0348 18.4859 29.0348 18.139 29.0348H17.2469C16.9496 29.0348 16.7513 28.9857 16.6522 28.8875C16.5035 28.7892 16.454 28.5436 16.454 28.2488H16.7513V28.2979C16.7513 28.4944 16.8009 28.5927 16.8504 28.6418C16.9 28.6909 17.0487 28.6909 17.2965 28.6909H18.2877C18.4859 28.6909 18.585 28.6909 18.6842 28.6418C18.7337 28.5927 18.7833 28.4944 18.7833 28.347C18.7833 28.2488 18.7337 28.1505 18.6842 28.1014C18.6346 28.0523 18.4859 28.0523 18.3372 28.0523H17.4452C17.0487 28.0523 16.8009 28.0031 16.7018 27.954C16.5531 27.8558 16.5035 27.7084 16.5035 27.4627C16.5035 27.2171 16.5531 27.0697 16.7018 26.9714C16.8504 26.8732 17.0982 26.8241 17.4452 26.8241H18.0894C18.4364 26.8241 18.6842 26.8732 18.8328 26.9714C18.9815 27.0697 19.0806 27.168 19.0806 27.3645V27.5119H18.7337V27.4136C18.7337 27.2662 18.6346 27.2171 18.4364 27.168C18.3868 27.168 18.1886 27.168 17.9408 27.168H17.5938C17.2965 27.168 17.0487 27.168 16.9991 27.2171C16.9 27.2662 16.8504 27.3645 16.8504 27.4627C16.8504 27.6101 16.9496 27.7575 17.1478 27.7575C17.1974 27.7575 17.346 27.7575 17.6434 27.7575H18.2381C18.4859 27.7575 18.6346 27.7575 18.7337 27.7575C18.8824 27.8066 18.9815 27.8066 19.0311 27.9049C19.0806 27.954 19.1302 28.0523 19.1798 28.1505C19.1302 28.1997 19.1302 28.347 19.1302 28.4944ZM15.3636 27.6101C15.3636 27.4136 15.3141 27.2662 15.1654 27.168C15.0663 27.1188 14.868 27.0697 14.5707 27.0697H14.0255C13.7282 27.0697 13.5795 27.1188 13.4308 27.168C13.3317 27.2662 13.2326 27.4136 13.2326 27.6101H15.3636ZM15.7601 28.3962C15.7601 28.8383 15.4132 29.0348 14.7689 29.0348H14.1246C13.7282 29.0348 13.4308 28.9857 13.2821 28.7892C13.1334 28.6418 13.0343 28.3962 13.0343 28.0523V27.7084C13.0343 27.3645 13.1334 27.1188 13.2821 26.9714C13.4308 26.8241 13.7282 26.7258 14.1246 26.7258H14.6698C15.0663 26.7258 15.3636 26.8241 15.5619 26.9714C15.7106 27.1188 15.8097 27.4136 15.8097 27.8066C15.8097 27.9049 15.8097 27.954 15.8097 28.0031H13.3812V28.1014C13.3812 28.347 13.4308 28.4944 13.5299 28.5927C13.629 28.6909 13.8273 28.7401 14.1246 28.7401H14.7194C15.215 28.7401 15.4628 28.5927 15.4628 28.347H15.8097V28.3962H15.7601ZM12.2909 28.2488C12.2909 28.5436 12.1918 28.7401 12.0431 28.8383C11.8944 28.9857 11.6466 29.0348 11.2997 29.0348H10.6554C9.96159 29.0348 9.61467 28.7401 9.61467 28.1997V27.6592C9.61467 27.0697 9.96159 26.8241 10.6554 26.8241H11.2006C11.5971 26.8241 11.8449 26.8732 11.9936 26.9714C12.1422 27.0697 12.2414 27.2662 12.2414 27.561V27.6101H11.8944C11.8944 27.4136 11.8449 27.2662 11.7458 27.2171C11.6466 27.168 11.4484 27.1188 11.2006 27.1188H10.6554C10.4076 27.1188 10.2094 27.168 10.1103 27.2171C10.0112 27.3153 9.91203 27.4136 9.91203 27.6101V28.1014C9.91203 28.347 9.96159 28.4944 10.0607 28.5927C10.1598 28.6909 10.3581 28.6909 10.6059 28.6909H11.151C11.3988 28.6909 11.5971 28.6418 11.6962 28.5927C11.7953 28.5436 11.8449 28.3962 11.8449 28.1997V28.1505H12.1918V28.2488H12.2909ZM9.36687 29.0348H8.82171L7.28535 27.954H7.08711V29.0348H6.74019V25.8906H7.08711V27.6101H7.33491L8.57391 26.8241H9.11907L7.63227 27.8066L9.36687 29.0348ZM5.50119 28.4453V28.2488C5.50119 28.1505 5.45163 28.0523 5.30295 28.0031C5.20383 27.954 5.00559 27.954 4.75779 27.954H4.26219C4.01439 27.954 3.86571 27.954 3.76659 28.0031C3.61791 28.0523 3.51879 28.1505 3.51879 28.347C3.51879 28.5436 3.61791 28.6909 3.76659 28.7401C3.81615 28.7401 4.01439 28.7892 4.26219 28.7892H4.80735C5.00559 28.7892 5.20383 28.7892 5.25339 28.7401C5.40207 28.6418 5.50119 28.5927 5.50119 28.4453ZM5.84811 29.0348H5.50119V28.7401C5.45163 28.8875 5.35251 28.9366 5.20383 28.9857C5.10471 29.0348 4.90647 29.0348 4.70823 29.0348H4.16307C3.76659 29.0348 3.51879 28.9857 3.37011 28.8875C3.22143 28.7892 3.12231 28.5927 3.12231 28.347C3.12231 28.1014 3.22143 27.9049 3.37011 27.8066C3.51879 27.7084 3.76659 27.6592 4.16307 27.6592H4.80735C5.15427 27.6592 5.40207 27.7575 5.55075 27.9049V27.6101C5.55075 27.4136 5.50119 27.2662 5.40207 27.2171C5.30295 27.168 5.10471 27.1188 4.85691 27.1188H4.26219C4.01439 27.1188 3.86571 27.1188 3.76659 27.168C3.66747 27.2171 3.61791 27.3153 3.61791 27.4136V27.4627H3.27099V27.4136C3.27099 27.168 3.37011 27.0206 3.51879 26.9223C3.66747 26.8241 3.91527 26.7749 4.26219 26.7749H4.90647C5.25339 26.7749 5.50119 26.8241 5.64987 26.9714C5.79855 27.1188 5.89767 27.3153 5.89767 27.6101V29.0348H5.84811Z" fill="white"/>
<path d="M75.579 11.0047V9.58L81.9227 3.3407H72.0602V1.52295H84.5494V3.19331L78.4039 9.28523C82.2696 9.48174 85.045 11.889 85.045 15.6228C85.045 19.7004 82.0714 22.3534 77.8588 22.3534C73.7948 22.3534 71.069 19.8478 71.069 15.7702H73.101C73.101 18.7179 74.9347 20.4865 77.8588 20.4865C80.9315 20.4865 82.9139 18.5214 82.9139 15.5737C82.9139 12.7733 80.8819 11.0539 77.2145 11.0539H75.579V11.0047Z" fill="white"/>
<path d="M102.292 23.6799C103.085 23.6799 103.779 23.9746 104.324 24.5151C104.919 25.0555 105.166 25.7433 105.166 26.5784C105.166 27.3645 104.869 28.0523 104.324 28.6418C103.779 29.1822 103.085 29.477 102.292 29.477C101.499 29.477 100.805 29.1822 100.21 28.6418C99.6156 28.0523 99.3678 27.4136 99.3678 26.5784C99.3678 25.7924 99.6652 25.1046 100.21 24.5151C100.805 23.9746 101.499 23.6799 102.292 23.6799Z" fill="white"/>
<path d="M98.3766 26.5784C98.3766 25.4976 98.773 24.5641 99.566 23.8272C100.309 23.0903 101.251 22.6972 102.341 22.6972C103.085 22.6972 103.779 22.8938 104.423 23.2868C104.77 22.4516 105.018 21.5673 105.166 20.683H96.1464V29.3787C97.1376 29.2804 98.1288 29.0348 99.0208 28.6418C98.5748 28.0031 98.3766 27.3153 98.3766 26.5784Z" fill="#7B7C7F"/>
<path d="M96.4437 11.0539L96.5924 10.4152L96.0472 8.94135L96.5924 9.0396L96.8402 9.67827L96.9393 9.97304H96.9889L97.1871 9.7274L97.6827 9.23611L98.2279 9.33437L97.0384 10.4152L96.8898 11.0539H96.4437Z" fill="white"/>
<path d="M98.3766 11.6434L99.3678 9.92389L100.805 10.7591L100.607 11.103L99.5165 10.4643L99.3182 10.8082L100.359 11.3977L100.161 11.7416L99.12 11.1521L98.9217 11.496L100.012 12.1347L99.8138 12.4786L98.3766 11.6434Z" fill="white"/>
<path d="M100.359 12.8225L102.44 12.1838L102.837 12.6751L101.895 14.6403L101.548 14.2472L101.747 13.8051L101.102 13.0681L100.656 13.2155L100.359 12.8225ZM101.548 12.9208L101.994 13.412L102.193 12.9699L102.341 12.6751L102.044 12.7734L101.548 12.9208Z" fill="white"/>
<path d="M102.242 15.2298L104.076 14.4929L104.472 15.5246C104.671 15.9667 104.572 16.3106 104.225 16.458C103.927 16.5563 103.679 16.458 103.481 16.1632C103.481 16.3597 103.432 16.458 103.333 16.5563L102.936 16.9984L102.738 16.5071L103.134 16.065C103.233 15.9176 103.283 15.8685 103.184 15.6228L103.085 15.3772L102.44 15.6719L102.242 15.2298ZM103.382 15.2298L103.63 15.8193C103.729 16.0158 103.779 16.065 103.977 16.0158C104.175 15.9176 104.175 15.8193 104.126 15.6228L103.878 15.0333L103.382 15.2298Z" fill="white"/>
<path d="M103.779 17.5879L103.828 18.0301H103.779C103.58 18.0301 103.531 18.1284 103.58 18.5214C103.63 18.8653 103.679 18.9635 103.779 18.9635C103.878 18.9635 103.927 18.8653 103.977 18.6688L104.026 18.1284C104.076 17.7845 104.225 17.5388 104.522 17.5388C104.819 17.5388 105.166 17.7353 105.216 18.374C105.265 18.9635 105.018 19.3074 104.572 19.3074L104.522 18.8653H104.572C104.77 18.8653 104.819 18.767 104.819 18.374C104.77 18.0792 104.72 17.981 104.621 17.981C104.522 17.981 104.472 18.0792 104.472 18.2266L104.423 18.767C104.373 19.2092 104.175 19.4057 103.927 19.4057C103.58 19.4548 103.283 19.2092 103.233 18.5705C103.085 17.981 103.283 17.6371 103.779 17.5879Z" fill="white"/>
<path d="M94.7092 27.4627C92.479 27.4136 90.5461 26.6276 88.9602 25.0555C87.3247 23.4342 86.5318 21.4691 86.5318 19.2092C86.5318 16.9493 87.3247 14.9841 88.9602 13.3629C90.5461 11.7908 92.479 10.9556 94.7092 10.9556V8.94135C91.9338 8.99047 89.5054 9.97304 87.523 11.9382C85.491 13.9524 84.4998 16.3597 84.4998 19.2092C84.4998 22.0586 85.491 24.4659 87.523 26.4802C89.5054 28.4453 91.8843 29.4279 94.7092 29.477V27.4627Z" fill="white"/>
</svg>
