<svg width="168" height="167" viewBox="0 0 168 167" fill="none" xmlns="http://www.w3.org/2000/svg">
<path d="M70.9769 160.092L70.7601 160.427C69.8549 160.285 69.143 160.038 68.6243 159.688C68.1042 159.347 67.7473 158.934 67.5538 158.448C67.3587 157.972 67.3005 157.464 67.3791 156.926C67.4649 156.339 67.6858 155.837 68.0416 155.421C68.3861 155.013 68.8512 154.72 69.437 154.541C70.0228 154.362 70.7192 154.331 71.5262 154.449L78.5951 155.481L76.8732 161.106L76.9584 166.69L70.1435 165.695C69.1074 165.543 68.3509 165.183 67.8742 164.615C67.3861 164.056 67.2032 163.357 67.3254 162.52C67.3894 162.082 67.5623 161.665 67.844 161.268C68.1144 160.88 68.5055 160.571 69.0174 160.341C69.5279 160.12 70.181 160.037 70.9769 160.092ZM77.0928 155.735L77.5282 156.516L71.4307 155.625C70.6934 155.518 70.0966 155.599 69.6401 155.868C69.1721 156.145 68.8923 156.598 68.8007 157.226C68.7032 157.893 68.8724 158.442 69.3082 158.872C69.744 159.302 70.4402 159.587 71.3966 159.726L76.2388 160.433L76.0729 161.569L71.3055 160.873C70.6679 160.78 70.1143 160.877 69.645 161.165C69.1656 161.451 68.8772 161.928 68.7797 162.595C68.7085 163.084 68.8246 163.508 69.1282 163.867C69.4204 164.236 69.9003 164.468 70.5678 164.566L76.2319 165.393L75.5913 166.017L75.5132 160.907L77.0928 155.735Z" fill="#474EFF"/>
<path d="M51.9043 155.119L52.3355 153.99L59.5452 156.744L59.114 157.873L51.9043 155.119ZM58.4972 156.991L61.1985 152.332L61.586 153.433L53.3181 150.275L53.76 149.118L62.6769 152.524L59.7811 157.481L58.6348 163.106L49.7884 159.727L50.2304 158.57L58.4277 161.701L57.4043 162.264L58.4972 156.991Z" fill="#474EFF"/>
<path d="M36.008 143.433C36.5936 142.747 37.3022 142.266 38.1335 141.99C38.9592 141.722 39.8379 141.672 40.7695 141.841C41.6927 142.003 42.6129 142.395 43.5302 143.016C44.5641 143.716 45.3348 144.535 45.842 145.474C46.341 146.408 46.5618 147.384 46.5044 148.403C46.4413 149.43 46.0853 150.423 45.4363 151.382C44.7816 152.35 43.9919 153.049 43.0673 153.481C42.1427 153.913 41.1544 154.071 40.1024 153.955C39.042 153.833 37.9949 153.422 36.9609 152.722C36.0436 152.101 35.3379 151.393 34.8436 150.596C34.3409 149.794 34.0605 148.96 34.0023 148.094C33.9385 147.236 34.1189 146.403 34.5434 145.596L35.7317 146.401C35.4592 147.019 35.3544 147.641 35.417 148.267C35.474 148.901 35.696 149.507 36.0829 150.085C36.4642 150.672 37.0009 151.199 37.693 151.667C38.5018 152.215 39.3108 152.538 40.12 152.635C40.9209 152.728 41.6758 152.6 42.3847 152.253C43.0937 151.906 43.7106 151.345 44.2355 150.57C44.7547 149.802 45.0436 149.025 45.1022 148.238C45.1608 147.451 45.0013 146.699 44.6237 145.981C44.2321 145.266 43.6319 144.635 42.8231 144.088C42.131 143.619 41.4447 143.313 40.7643 143.168C40.0783 143.032 39.4331 143.052 38.8286 143.226C38.2185 143.409 37.6744 143.746 37.1962 144.237L36.008 143.433Z" fill="#474EFF"/>
<path d="M30.2087 131.425C31.0483 132.363 31.6068 133.356 31.8841 134.405C32.1547 135.447 32.1417 136.459 31.8452 137.441C31.5411 138.429 30.9578 139.31 30.0952 140.082C29.2251 140.862 28.2858 141.345 27.2772 141.531C26.2686 141.718 25.2615 141.62 24.2558 141.237C23.2434 140.846 22.3174 140.181 21.4778 139.244C20.6381 138.306 20.083 137.317 19.8124 136.275C19.5418 135.233 19.5548 134.221 19.8513 133.239C20.1479 132.257 20.7312 131.377 21.6013 130.598C22.4639 129.825 23.4032 129.342 24.4193 129.149C25.4279 128.962 26.435 129.06 27.4407 129.443C28.4464 129.827 29.369 130.487 30.2087 131.425ZM29.2523 132.281C28.5873 131.539 27.8709 131.018 27.103 130.719C26.3276 130.427 25.5506 130.359 24.7718 130.516C23.9931 130.672 23.2587 131.06 22.5686 131.678C21.871 132.302 21.4015 132.993 21.1602 133.75C20.9188 134.507 20.9045 135.283 21.1174 136.079C21.3302 136.875 21.7691 137.645 22.4341 138.387C23.0991 139.13 23.8156 139.651 24.5834 139.95C25.3513 140.249 26.128 140.324 26.9135 140.174C27.6922 140.018 28.4303 139.627 29.1279 139.002C29.818 138.384 30.2837 137.697 30.5251 136.94C30.7597 136.176 30.7744 135.392 30.5691 134.589C30.3562 133.793 29.9173 133.024 29.2523 132.281Z" fill="#474EFF"/>
<path d="M5.90738 114.32L16.035 109.246L16.6439 110.461L6.8133 115.386L6.5765 114.88L18.9575 115.079L19.634 116.43L12.3944 126.459L12.1306 125.966L21.9476 121.048L22.5565 122.263L12.4288 127.337L11.4682 125.419L18.6607 115.566L19.0598 116.363L6.86801 116.237L5.90738 114.32Z" fill="#474EFF"/>
<path d="M6.31266 96.1304L7.4934 95.8739L9.13139 103.416L7.95065 103.672L6.31266 96.1304ZM8.3519 102.673L13.7299 102.386L13.0193 103.313L11.1409 94.6644L12.3512 94.4016L14.3771 103.729L8.6436 104.016L3.30762 106.134L1.29778 96.8795L2.50804 96.6166L4.37042 105.192L3.33935 104.643L8.3519 102.673Z" fill="#474EFF"/>
<path d="M12.4415 74.3618C12.2799 75.61 11.8924 76.6817 11.279 77.577C10.6669 78.4623 9.89223 79.1133 8.95497 79.5301C8.00772 79.9455 6.95993 80.0789 5.81159 79.9303C4.65326 79.7803 3.67399 79.3845 2.87377 78.7428C2.07354 78.101 1.49019 77.2742 1.12372 76.2622C0.758534 75.2403 0.656742 74.1052 0.818342 72.857C0.979942 71.6088 1.3668 70.5421 1.9789 69.6568C2.59101 68.7715 3.3657 68.1205 4.30296 67.7037C5.24022 67.287 6.28801 67.1536 7.44633 67.3035C8.59467 67.4522 9.57395 67.848 10.3842 68.491C11.1844 69.1328 11.7677 69.9596 12.1342 70.9716C12.5007 71.9835 12.6031 73.1136 12.4415 74.3618ZM11.1684 74.197C11.2964 73.2084 11.2228 72.3257 10.9477 71.549C10.6626 70.7709 10.2064 70.1382 9.57913 69.6509C8.95183 69.1635 8.17884 68.8604 7.26017 68.7415C6.33151 68.6212 5.50182 68.7169 4.77109 69.0284C4.04036 69.3399 3.44308 69.8362 2.97924 70.5173C2.5154 71.1984 2.21949 72.0333 2.0915 73.0218C1.96351 74.0104 2.03706 74.8931 2.31215 75.6699C2.58725 76.4466 3.0378 77.0837 3.66381 77.581C4.29112 78.0683 5.0691 78.3721 5.99775 78.4923C6.91642 78.6113 7.74112 78.515 8.47185 78.2035C9.20387 77.882 9.8068 77.3813 10.2806 76.7015C10.7445 76.0204 11.0404 75.1856 11.1684 74.197Z" fill="#474EFF"/>
<path d="M10.5708 59.6997C11.2658 59.9685 11.926 60.062 12.5514 59.98C13.1711 59.8851 13.7254 59.6244 14.2142 59.1981C14.7029 58.7718 15.0872 58.1971 15.3669 57.474C15.6502 56.7416 15.7527 56.0579 15.6744 55.423C15.5961 54.7882 15.3597 54.2271 14.9652 53.7398C14.5614 53.2489 14.012 52.8691 13.317 52.6003L7.18954 50.23L7.70173 48.9059L13.8574 51.2871C14.7683 51.6394 15.4913 52.1566 16.0264 52.8386C16.5521 53.517 16.8658 54.2969 16.9675 55.1783C17.0728 56.0503 16.9384 56.9699 16.5642 57.9372C16.1901 58.9044 15.6688 59.6798 15.0004 60.2634C14.3321 60.8469 13.5752 61.2127 12.7299 61.3607C11.8787 61.4957 10.9977 61.3871 10.0868 61.0347L3.93115 58.6536L4.44334 57.3295L10.5708 59.6997Z" fill="#474EFF"/>
<path d="M16.9702 42.931L19.6925 38.901C20.1096 38.2836 20.2877 37.687 20.227 37.1114C20.1719 36.5274 19.8857 36.0607 19.3684 35.7112C18.8428 35.3561 18.3029 35.2649 17.7489 35.4375C17.1922 35.596 16.7053 35.984 16.2883 36.6015L13.4561 40.7942L13.1854 39.8458L22.1715 45.9159L21.3768 47.0924L11.9902 40.7517L15.2874 35.8707C15.7157 35.2366 16.2073 34.7606 16.7622 34.4428C17.3087 34.1194 17.8766 33.9623 18.4658 33.9715C19.0606 33.9723 19.6292 34.1559 20.1716 34.5222C20.7056 34.883 21.084 35.3391 21.3068 35.8906C21.5353 36.4338 21.6057 37.022 21.5181 37.6554C21.4221 38.2832 21.1599 38.9141 20.7316 39.5483L17.984 43.6158L16.9702 42.931ZM18.9368 41.2339L19.9175 39.7821L26.9566 38.8321L25.9675 40.2965L18.9368 41.2339Z" fill="#474EFF"/>
<path d="M34.1526 16.4898C34.7861 16.0088 35.4207 15.704 36.0563 15.5753C36.6919 15.4467 37.2932 15.4895 37.8604 15.7036C38.4215 15.9097 38.9029 16.2774 39.3048 16.8066C39.7067 17.3359 39.9346 17.9025 39.9885 18.5063C40.0363 19.1021 39.916 19.6928 39.6275 20.2786C39.3328 20.8563 38.8688 21.3856 38.2353 21.8667L34.1214 24.9903L33.3725 24.004L37.4623 20.8986C38.0717 20.4358 38.4372 19.9181 38.5586 19.3455C38.682 18.7587 38.5458 18.2047 38.15 17.6835C37.7543 17.1622 37.2602 16.8862 36.668 16.8555C36.0838 16.8187 35.4869 17.0317 34.8775 17.4944L30.908 20.5085L30.9931 19.5716L37.5144 28.1601L36.3837 29.0186L29.5336 19.9971L34.1526 16.4898Z" fill="#474EFF"/>
<path d="M47.4519 14.3668L51.863 12.3189C52.5388 12.0051 52.9992 11.586 53.2441 11.0615C53.4982 10.5328 53.4938 9.98537 53.231 9.41915C52.9638 8.8438 52.5485 8.48713 51.9849 8.34916C51.4261 8.19781 50.8089 8.27902 50.1331 8.59278L45.5439 10.7234L45.8013 9.77132L50.3678 19.6072L49.0801 20.205L44.3101 9.9308L49.6526 7.45039C50.3467 7.12815 51.0134 6.97404 51.6527 6.98807C52.2877 6.99297 52.8552 7.15133 53.3552 7.46315C53.8644 7.77073 54.2568 8.22133 54.5324 8.81495C54.8037 9.39943 54.8926 9.98539 54.799 10.5728C54.7145 11.156 54.4713 11.6963 54.0695 12.1937C53.6634 12.6819 53.1133 13.0872 52.4193 13.4094L47.9671 15.4764L47.4519 14.3668ZM50.0122 13.9275L51.6012 13.1897L58.1214 16.0074L56.5186 16.7515L50.0122 13.9275Z" fill="#474EFF"/>
<path d="M70.5156 6.27861L70.7792 7.45778L63.2472 9.14118L62.9836 7.962L70.5156 6.27861ZM63.985 8.35723L64.3045 13.7334L63.3731 13.0284L72.0106 11.098L72.2807 12.3066L62.9652 14.3886L62.6437 8.65701L60.4945 3.33388L69.7363 1.26834L70.0064 2.47699L61.4427 4.39099L61.9853 3.35664L63.985 8.35723Z" fill="#474EFF"/>
<path d="M77.8027 7.90784L79.2375 7.9005C79.3107 8.43378 79.5246 8.9009 79.879 9.30185C80.2335 9.7028 80.6983 10.0126 81.2733 10.2311C81.8584 10.4396 82.5285 10.5419 83.2837 10.538C84.4214 10.5322 85.3216 10.3363 85.9842 9.95029C86.6568 9.55415 86.9914 9.02382 86.988 8.35928C86.9854 7.84578 86.7719 7.45418 86.3476 7.18448C85.9334 6.91474 85.2075 6.7221 84.1698 6.60658L81.9784 6.34592C80.5982 6.19188 79.6047 5.86971 78.9981 5.37943C78.3914 4.87909 78.0859 4.20602 78.0815 3.36025C78.0781 2.68564 78.2765 2.10062 78.6767 1.6052C79.0769 1.0997 79.6388 0.714202 80.3624 0.448707C81.096 0.173092 81.9512 0.0327877 82.9278 0.0277933C83.9045 0.0227989 84.7712 0.169402 85.5279 0.467603C86.2946 0.755684 86.9009 1.16541 87.3466 1.69679C87.8024 2.21805 88.0522 2.83602 88.0962 3.55069L86.6614 3.55803C86.5985 3.07504 86.4051 2.6632 86.0811 2.32251C85.7571 1.97175 85.3228 1.70211 84.7781 1.51358C84.2434 1.31493 83.6186 1.21744 82.9037 1.2211C81.8667 1.2264 81.0369 1.41692 80.4146 1.79265C79.8022 2.15827 79.4977 2.66831 79.5011 3.32278C79.5037 3.82622 79.707 4.21284 80.1112 4.48263C80.5253 4.74231 81.221 4.93006 82.1983 5.0459L84.3444 5.32189C85.3419 5.43762 86.1332 5.60978 86.7183 5.83837C87.3136 6.06692 87.7431 6.37686 88.0069 6.7682C88.2706 7.14948 88.404 7.63714 88.4071 8.2312C88.4107 8.94608 88.1974 9.56642 87.7671 10.0922C87.3469 10.6179 86.7499 11.0238 85.976 11.3096C85.2022 11.5955 84.3018 11.7411 83.2747 11.7464C82.2377 11.7517 81.3155 11.5953 80.5084 11.2772C79.7012 10.949 79.0595 10.4992 78.5833 9.92772C78.1071 9.34615 77.8469 8.67286 77.8027 7.90784Z" fill="#474EFF"/>
<path d="M99.8718 2.51203L101.26 2.80751L99.0443 13.2222L97.6557 12.9267L99.8718 2.51203ZM95.2565 0.835091L106.159 3.15492L105.898 4.38105L94.9956 2.06122L95.2565 0.835091Z" fill="#474EFF"/>
<path d="M113.152 5.6321L114.474 6.14984L110.343 16.6972L109.021 16.1795L113.152 5.6321Z" fill="#474EFF"/>
<path d="M128.565 20.8858C128.182 21.4891 127.711 21.9852 127.152 22.374C126.601 22.7682 125.992 23.0372 125.324 23.1813C124.669 23.322 123.978 23.3216 123.249 23.18C122.528 23.0437 121.804 22.751 121.075 22.302C120.304 21.8266 119.664 21.2724 119.155 20.6395C118.66 20.0033 118.307 19.3188 118.097 18.5858C117.894 17.8581 117.852 17.1107 117.97 16.3436C118.093 15.5679 118.387 14.8029 118.852 14.0486C119.317 13.2943 119.866 12.692 120.498 12.2419C121.144 11.7885 121.842 11.4911 122.591 11.3497C123.341 11.2084 124.112 11.2227 124.906 11.3927C125.706 11.5541 126.5 11.8779 127.288 12.3638C128.231 12.9449 128.965 13.6159 129.49 14.3768C130.023 15.1429 130.341 15.9419 130.443 16.7738C130.551 17.5971 130.428 18.3909 130.075 19.1552L128.841 18.3945C129.069 17.8135 129.13 17.2245 129.025 16.6275C128.925 16.0219 128.671 15.4455 128.263 14.8984C127.864 14.3566 127.309 13.8665 126.597 13.4281C125.766 12.9157 124.944 12.6279 124.131 12.5647C123.327 12.5068 122.574 12.6637 121.872 13.0353C121.178 13.4122 120.583 14.0035 120.087 14.8093C119.595 15.6065 119.339 16.4064 119.317 17.2092C119.296 18.012 119.5 18.7647 119.93 19.4675C120.361 20.1703 120.996 20.7805 121.836 21.2982C122.659 21.8053 123.467 22.0964 124.261 22.1714C125.063 22.2517 125.796 22.1361 126.461 21.8245C127.126 21.5129 127.676 21.0238 128.111 20.3571L128.565 20.8858ZM124.023 18.814L124.617 17.8497L129.272 20.718L126.412 25.3597L125.473 24.7813L127.877 20.6212L127.958 21.2386L124.023 18.814Z" fill="#474EFF"/>
<path d="M141.635 30.8889L140.783 31.7459L135.31 26.305L136.161 25.4481L141.635 30.8889ZM136.367 26.5048L132.009 29.6684L132.102 28.504L138.379 34.7434L137.506 35.6218L130.736 28.8926L135.393 25.5358L138.721 20.8588L145.438 27.5347L144.565 28.4131L138.341 22.2269L139.505 22.1273L136.367 26.5048Z" fill="#474EFF"/>
<path d="M154.982 55.8545C154.13 56.1501 153.276 56.2069 152.419 56.0249C151.571 55.8387 150.788 55.4374 150.069 54.821C149.355 54.2138 148.759 53.4105 148.282 52.4112C147.743 51.2847 147.493 50.1881 147.53 49.1213C147.571 48.0637 147.874 47.1099 148.439 46.2597C149.012 45.4053 149.822 44.7284 150.866 44.2291C151.92 43.7255 152.955 43.5211 153.971 43.6158C154.987 43.7105 155.92 44.0739 156.769 44.7061C157.622 45.3473 158.318 46.2312 158.856 47.3577C159.334 48.357 159.584 49.3253 159.608 50.2625C159.636 51.2088 159.457 52.0703 159.069 52.847C158.69 53.6193 158.114 54.2463 157.34 54.7279L156.721 53.4333C157.269 53.0378 157.674 52.5541 157.936 51.9823C158.208 51.4062 158.322 50.771 158.281 50.0767C158.248 49.378 158.052 48.6517 157.691 47.8976C157.27 47.0164 156.735 46.329 156.087 45.8356C155.442 45.3512 154.727 45.0794 153.939 45.0204C153.152 44.9613 152.336 45.1336 151.491 45.5374C150.656 45.9368 150.014 46.4612 149.565 47.1108C149.117 47.7603 148.874 48.4901 148.837 49.3001C148.813 50.1148 149.012 50.9628 149.433 51.844C149.794 52.5981 150.231 53.2094 150.745 53.6779C151.268 54.1421 151.834 54.4517 152.444 54.6067C153.063 54.7574 153.703 54.7418 154.364 54.5599L154.982 55.8545Z" fill="#474EFF"/>
<path d="M157.859 63.7843C157.13 63.9363 156.525 64.2167 156.044 64.6254C155.575 65.0419 155.252 65.5618 155.073 66.1853C154.895 66.8088 154.884 67.5 155.043 68.259C155.203 69.0279 155.488 69.6575 155.899 70.1479C156.31 70.6383 156.813 70.9808 157.409 71.1754C158.015 71.368 158.683 71.3883 159.412 71.2363L165.844 69.8959L166.133 71.2858L159.672 72.6323C158.716 72.8316 157.828 72.7903 157.008 72.5086C156.198 72.2249 155.511 71.7407 154.947 71.056C154.384 70.3813 153.997 69.5362 153.786 68.521C153.574 67.5057 153.59 66.5715 153.834 65.7184C154.078 64.8653 154.515 64.147 155.144 63.5633C155.785 62.9874 156.584 62.5999 157.54 62.4006L164.001 61.0541L164.291 62.4439L157.859 63.7843Z" fill="#474EFF"/>
<path d="M159.324 79.5566L159.296 80.9911C158.761 81.0512 158.289 81.2534 157.879 81.5979C157.469 81.9424 157.148 82.3994 156.916 82.9688C156.693 83.5486 156.574 84.216 156.559 84.971C156.537 86.1086 156.711 87.0133 157.08 87.6852C157.46 88.3674 157.982 88.7149 158.646 88.7279C159.159 88.738 159.556 88.5342 159.836 88.1167C160.116 87.7093 160.327 86.9883 160.468 85.9538L160.782 83.7695C160.97 82.3935 161.317 81.4083 161.822 80.8139C162.337 80.2197 163.017 79.9309 163.863 79.9474C164.538 79.9606 165.118 80.1734 165.603 80.5857C166.098 80.9982 166.47 81.5695 166.718 82.2994C166.975 83.0396 167.094 83.8979 167.075 84.8744C167.056 85.8509 166.888 86.7137 166.571 87.4629C166.264 88.2222 165.84 88.8182 165.298 89.2507C164.765 89.6935 164.141 89.928 163.426 89.9543L163.454 88.5198C163.938 88.4688 164.355 88.2856 164.703 87.9702C165.062 87.6549 165.342 87.2273 165.544 86.6875C165.756 86.1579 165.869 85.5357 165.883 84.8209C165.903 83.784 165.733 82.9499 165.373 82.3184C165.022 81.6973 164.52 81.3803 163.866 81.3675C163.362 81.3576 162.971 81.5514 162.691 81.9488C162.421 82.3564 162.216 83.0473 162.076 84.0214L161.748 86.1601C161.607 87.1543 161.416 87.9412 161.173 88.5205C160.93 89.1099 160.609 89.5317 160.211 89.7857C159.824 90.04 159.333 90.1613 158.739 90.1497C158.024 90.1358 157.409 89.9072 156.894 89.4641C156.379 89.0311 155.988 88.4242 155.721 87.6435C155.455 86.8629 155.331 85.9591 155.352 84.9323C155.372 83.8954 155.551 82.9774 155.889 82.1784C156.237 81.3795 156.702 80.7491 157.285 80.2872C157.878 79.8254 158.558 79.5819 159.324 79.5566Z" fill="#474EFF"/>
<path d="M164.174 101.752L163.844 103.133L153.487 100.661L153.817 99.2797L164.174 101.752ZM165.964 97.1793L163.376 108.021L162.157 107.73L164.745 96.8883L165.964 97.1793Z" fill="#474EFF"/>
<path d="M147.799 115.572C148.363 114.447 149.082 113.563 149.956 112.919C150.826 112.285 151.771 111.926 152.794 111.841C153.825 111.761 154.858 111.98 155.893 112.498C156.938 113.022 157.732 113.718 158.276 114.587C158.82 115.457 159.099 116.43 159.111 117.506C159.12 118.591 158.842 119.696 158.278 120.822C157.714 121.947 156.998 122.827 156.128 123.461C155.258 124.095 154.313 124.455 153.29 124.54C152.268 124.624 151.235 124.405 150.191 123.882C149.155 123.363 148.361 122.667 147.808 121.793C147.264 120.923 146.985 119.951 146.973 118.874C146.96 117.798 147.235 116.697 147.799 115.572ZM148.947 116.147C148.501 117.038 148.279 117.896 148.283 118.72C148.296 119.549 148.518 120.296 148.95 120.963C149.382 121.63 150.012 122.171 150.84 122.586C151.677 123.005 152.492 123.188 153.285 123.135C154.077 123.081 154.805 122.809 155.467 122.319C156.129 121.829 156.684 121.138 157.13 120.247C157.577 119.356 157.798 118.498 157.794 117.674C157.79 116.85 157.575 116.1 157.147 115.424C156.716 114.757 156.081 114.214 155.244 113.795C154.416 113.38 153.605 113.199 152.813 113.253C152.016 113.315 151.282 113.589 150.61 114.075C149.948 114.565 149.394 115.256 148.947 116.147Z" fill="#474EFF"/>
<path d="M140.813 144.457L132.375 136.9L133.281 135.888L141.472 143.223L141.088 143.629L136.727 132.04L137.735 130.915L149.722 133.965L149.36 134.392L141.181 127.067L142.088 126.054L150.526 133.611L149.095 135.209L137.289 132.137L137.883 131.473L142.244 142.859L140.813 144.457Z" fill="#474EFF"/>
<path d="M123.746 150.76L123.074 149.756L129.487 145.462L130.159 146.467L123.746 150.76ZM129.083 146.46L126.841 141.563L127.964 141.884L120.609 146.807L119.92 145.778L127.852 140.468L130.225 145.696L134.154 149.881L126.284 155.149L125.595 154.12L132.887 149.239L132.755 150.399L129.083 146.46Z" fill="#474EFF"/>
<path d="M115.593 154.662L111.068 156.444C110.375 156.717 109.89 157.108 109.614 157.617C109.329 158.13 109.301 158.676 109.53 159.257C109.762 159.847 110.156 160.228 110.71 160.399C111.259 160.584 111.88 160.539 112.573 160.266L117.281 158.413L116.967 159.348L112.994 149.258L114.315 148.737L118.465 159.277L112.985 161.435C112.273 161.716 111.598 161.83 110.961 161.778C110.327 161.735 109.77 161.543 109.289 161.202C108.799 160.865 108.435 160.392 108.195 159.783C107.959 159.183 107.905 158.593 108.033 158.012C108.152 157.435 108.427 156.91 108.858 156.438C109.292 155.974 109.865 155.603 110.578 155.322L115.145 153.524L115.593 154.662ZM113.011 154.948L111.381 155.59L105.04 152.39L106.684 151.742L113.011 154.948Z" fill="#474EFF"/>
<path d="M92.6709 160.878L89.3778 161.188L89.2646 159.985L92.5577 159.675L92.6709 160.878Z" fill="#474EFF"/>
</svg>
