<svg width="36" height="35" viewBox="0 0 36 35" fill="none" xmlns="http://www.w3.org/2000/svg">
<g opacity="0.22">
<path fill-rule="evenodd" clip-rule="evenodd" d="M0.905273 17.2333V27.6202L6.67851 27.5935C12.7531 27.5668 12.8627 27.5602 14.1365 27.2473C14.8008 27.0809 15.876 26.5414 16.4171 26.102C17.499 25.2165 18.2456 23.9914 18.54 22.6198C18.6702 22.0272 18.6838 20.8154 18.5674 20.183C18.2797 18.5582 17.2868 17.3265 15.7185 16.6341L15.3555 16.4743L15.8212 16.208C16.4649 15.8284 17.1976 15.1027 17.4648 14.5634C18.1428 13.2118 18.1359 11.1877 17.4443 9.80275C16.6362 8.17149 14.9103 7.1661 12.4928 6.91308C12.0408 6.86647 9.85618 6.83984 6.34978 6.83984H0.905273V17.2333ZM11.7943 10.5951C12.5408 10.7482 13.0133 11.0012 13.2804 11.3874C13.5681 11.8002 13.6434 12.0799 13.6434 12.7057C13.6434 13.6911 13.2667 14.3104 12.4723 14.6633C11.7121 14.9961 11.2875 15.0295 8.12353 15.0295H5.21979V12.7257V10.422L8.25366 10.4553C10.6849 10.4819 11.3834 10.5085 11.7943 10.5951ZM12.1847 18.6381C12.801 18.818 13.1434 19.0177 13.4996 19.3972C13.9653 19.89 14.0885 20.2629 14.0817 21.1549C14.0611 22.8129 13.2393 23.7117 11.5409 23.9514C11.2807 23.9847 9.76032 24.0181 8.15092 24.0181H5.21979V21.2483V18.485L8.52759 18.5117C11.2944 18.5317 11.8902 18.5517 12.1847 18.6381ZM23.3118 9.10541V10.3705H27.9689H32.6257V9.10541V7.84035H27.9689H23.3118V9.10541ZM20.5429 16.8991C21.4058 14.1226 23.8439 12.2184 26.9394 11.9121C27.7749 11.8322 28.1105 11.8322 28.9596 11.9054C31.5758 12.1451 33.3631 13.1239 34.6438 15.0015C35.541 16.3198 35.8902 17.6049 35.9587 19.8087L35.9999 21.0938H30.1717H24.3369V21.3801C24.3369 21.773 24.563 22.6052 24.7957 23.0646C25.4738 24.4162 27.3913 25.1686 29.2129 24.7957C30.1101 24.6093 30.7881 24.1765 31.2197 23.5173L31.4594 23.1578H33.6097H35.7601L35.6985 23.4308C35.5068 24.2498 34.9178 25.182 34.0617 26.0208C32.8359 27.2327 31.4524 27.8385 29.3773 28.0915C27.4803 28.318 25.3299 27.9251 23.7753 27.0596C21.9674 26.0608 21.0224 24.9155 20.4744 23.0646C19.9471 21.3002 19.9745 18.7302 20.5429 16.8991ZM31.1855 16.8591C30.8087 16.1001 29.9048 15.4676 28.9323 15.2612C28.0557 15.0814 26.9325 15.2013 26.227 15.5475C25.8025 15.7538 25.2478 16.2998 24.967 16.7792C24.7821 17.1054 24.563 17.7181 24.4466 18.2441L24.4054 18.4305H28.0008H31.5963V18.2441C31.5963 17.9444 31.4045 17.2985 31.1855 16.8591Z" fill="white"/>
</g>
</svg>
