<svg width="112" height="33" viewBox="0 0 112 33" fill="none" xmlns="http://www.w3.org/2000/svg">
<path d="M29.6044 0.713867H34.6708V32.8758H29.6044V0.713867ZM52.4034 22.6161C52.4034 27.5382 48.3287 27.9306 47.1165 27.9306C44.0881 27.9306 43.5372 25.0515 43.5372 23.3148V11.0058H38.4707V23.289C38.4707 26.3379 39.4131 28.8544 41.0647 30.5319C42.5238 32.0151 44.71 32.8256 47.0785 32.8256C48.7581 32.8256 51.1368 32.2943 52.4034 31.1198V32.8758H57.4699V11.0058H52.4034V22.6161ZM67.6027 3.28688H62.5362V11.0058H58.7365V16.1516H62.5362V32.8758H67.6027V16.1516H71.4026V11.0058H67.6027V3.28688ZM87.3581 26.3367C86.2549 27.344 84.7983 27.9023 83.1998 27.9023C79.6762 27.9023 77.0883 25.2741 77.0883 21.6654C77.0883 18.0569 79.5938 15.5393 83.1998 15.5393C84.7705 15.5393 86.2549 16.0706 87.3859 17.0779L88.1548 17.7494L91.5708 14.2811L90.7158 13.4976C88.7058 11.6541 86.0369 10.6198 83.1985 10.6198C76.8655 10.6198 72.2664 15.2614 72.2664 21.6384C72.2664 27.9885 76.9757 32.796 83.1985 32.796C86.0901 32.796 88.7868 31.7618 90.7716 29.8886L91.5974 29.1052L88.1282 25.6394L87.3581 26.3367ZM109.654 12.9123C108.195 11.4303 106.485 10.6198 104.117 10.6198C102.437 10.6198 100.535 11.1511 99.268 12.3244V0.713867H94.2015V32.8758H99.268V20.8279C99.268 15.9059 102.711 15.5149 103.923 15.5149C106.951 15.5149 106.868 18.3953 106.868 20.1294V32.8758H111.934V20.1564C111.934 17.1075 111.307 14.5911 109.654 12.9123Z" fill="white"/>
<path d="M83.0336 17.999C84.0052 17.999 84.9368 18.3911 85.6238 19.0888C86.3108 19.7865 86.6967 20.7329 86.6967 21.7195C86.6967 22.7063 86.3108 23.6526 85.6238 24.3503C84.9368 25.048 84.0052 25.4401 83.0336 25.4401C82.0621 25.4401 81.1305 25.048 80.4435 24.3503C79.7565 23.6526 79.3707 22.7063 79.3707 21.7195C79.3707 20.7329 79.7565 19.7865 80.4435 19.0888C81.1305 18.3911 82.0621 17.999 83.0336 17.999Z" fill="white"/>
<path d="M22.5115 24.7988C20.5849 26.8121 17.968 27.9031 15.2145 27.9031C9.57044 27.9031 5.46662 23.4004 5.46662 17.2202C5.46662 11.0117 9.57044 6.50896 15.2145 6.50896C17.9414 6.50896 20.5292 7.59861 22.4849 9.58492L23.2549 10.3684L26.6418 6.92831L25.8984 6.14483C23.0903 3.20784 19.2904 1.61523 15.2145 1.61523C6.89917 1.61523 0.648438 8.32671 0.648438 17.2472C0.648438 26.1406 6.92703 32.8252 15.2145 32.8252C19.3182 32.8252 23.1181 31.2042 25.9262 28.2672L26.6698 27.4837L23.3107 23.9883L22.5115 24.7988Z" fill="white"/>
</svg>
