<svg width="117" height="52" viewBox="0 0 117 52" fill="none" xmlns="http://www.w3.org/2000/svg">
<path d="M28.0693 36.4643V44.8552H25.4263V24.1504H32.4472C34.2363 24.1504 35.7407 24.7497 36.9878 25.9485C38.2481 27.1471 38.8852 28.6047 38.8852 30.3209C38.8852 32.0373 38.2481 33.5357 36.9878 34.7208C35.7543 35.8921 34.2499 36.4916 32.4472 36.4916H28.0693V36.4643ZM28.0693 26.684V33.9171H32.5013C33.5585 33.9171 34.426 33.5629 35.1172 32.841C35.8221 32.1326 36.188 31.2744 36.188 30.2938C36.188 29.313 35.8356 28.4957 35.1172 27.7737C34.426 27.0381 33.5585 26.6703 32.5013 26.6703H28.0693V26.684Z" fill="white"/>
<path d="M45.9599 30.2245C47.9117 30.2245 49.4569 30.7558 50.5954 31.8046C51.7203 32.8534 52.2896 34.2974 52.2896 36.1227V44.8541H49.755V42.8926H49.6466C48.5488 44.5136 47.0984 45.3173 45.2687 45.3173C43.71 45.3173 42.4088 44.8541 41.3652 43.9278C40.3215 43.0016 39.7929 41.8437 39.7929 40.4544C39.7929 38.9832 40.3487 37.8253 41.4465 36.9536C42.5444 36.0818 44.0218 35.6459 45.865 35.6459C47.4373 35.6459 48.7385 35.932 49.755 36.5177V35.9047C49.755 34.9784 49.3891 34.1884 48.6572 33.5481C47.9253 32.908 47.0714 32.5811 46.0955 32.5811C44.6181 32.5811 43.4524 33.2076 42.585 34.4608L40.2538 32.9897C41.5413 31.1372 43.4389 30.2109 45.9463 30.2109L45.9599 30.2245ZM42.5308 40.5225C42.5308 41.2172 42.829 41.7893 43.4119 42.2525C43.9946 42.7155 44.6858 42.947 45.472 42.947C46.5834 42.947 47.5729 42.5384 48.4539 41.7076C49.3213 40.8766 49.7686 39.9095 49.7686 38.7926C48.9418 38.1387 47.7897 37.8118 46.3124 37.8118C45.2416 37.8118 44.3471 38.0706 43.6152 38.5882C42.8968 39.1058 42.5308 39.7597 42.5308 40.5225Z" fill="white"/>
<path d="M55.2861 30.6871H57.8207V33.0028H57.9291C58.7153 31.1911 60.3417 30.2785 62.795 30.2785L63.3372 30.3329V33.1118L62.158 33.0028C60.9246 33.0028 59.9215 33.3841 59.1219 34.147C58.3221 34.9098 57.9291 35.8769 57.9291 37.0484V44.8536H55.2861V30.6871ZM71.8083 45.0852C70.6563 45.0852 69.7075 44.7309 68.9484 44.0091C68.1894 43.3007 67.7963 42.3063 67.7828 41.0259V33.0981H65.3025V30.6735H67.7828V26.3418H70.4258V30.6735H73.882V33.0981H70.4258V40.1541C70.4258 41.0941 70.602 41.7342 70.968 42.0747C71.3339 42.4153 71.7405 42.5788 72.2014 42.5788C72.4182 42.5788 72.6215 42.5515 72.8248 42.5107C73.0281 42.4562 73.2179 42.4017 73.3806 42.32L74.2209 44.6901C73.5296 44.9353 72.73 45.0716 71.8083 45.0716V45.0852Z" fill="white"/>
<path d="M76.5511 30.6878H79.0857V32.6493H79.1941C79.6007 31.9546 80.2106 31.3825 81.051 30.9193C81.8913 30.4563 82.7588 30.2246 83.6533 30.2246C85.3747 30.2246 86.7029 30.7151 87.6381 31.7095C88.5733 32.7038 89.0342 34.1204 89.0342 35.9458V44.8543H86.3912V36.1228C86.3369 33.8072 85.1714 32.6493 82.9078 32.6493C81.8506 32.6493 80.9697 33.0852 80.2648 33.9297C79.56 34.7879 79.1941 35.8095 79.1941 37.0083V44.8406H76.5511V30.6742V30.6878Z" fill="white"/>
<path d="M98.4821 45.3174C96.4082 45.3174 94.7005 44.6091 93.3586 43.1788C92.0168 41.7485 91.3392 39.9504 91.3392 37.771C91.3392 35.5916 91.9896 33.8208 93.2909 32.3769C94.5921 30.9466 96.2592 30.2246 98.2922 30.2246C100.325 30.2246 102.047 30.9058 103.28 32.2679C104.514 33.6301 105.137 35.5371 105.137 37.9754L105.11 38.2615H94.0364C94.0771 39.6508 94.5378 40.7678 95.4189 41.6124C96.2998 42.4568 97.357 42.8792 98.5904 42.8792C100.285 42.8792 101.599 42.0346 102.562 40.3319L104.92 41.4897C104.283 42.6885 103.416 43.6147 102.291 44.2957C101.166 44.9769 99.8916 45.3038 98.4821 45.3038V45.3174ZM94.2532 36.0683H102.345C102.263 35.0875 101.87 34.2703 101.152 33.6301C100.434 32.9898 99.4714 32.663 98.2652 32.663C97.2621 32.663 96.4082 32.9762 95.6899 33.5892C94.9716 34.2021 94.4972 35.0331 94.2668 36.0819L94.2532 36.0683Z" fill="white"/>
<path d="M110.219 44.8554H107.576V30.689H110.11V33.0047H110.219C110.49 32.2554 111.046 31.6153 111.872 31.0841C112.713 30.5528 113.526 30.2939 114.339 30.2939C115.153 30.2939 115.762 30.4029 116.291 30.6345L115.491 33.209C115.166 33.0728 114.651 33.0047 113.933 33.0047C112.93 33.0047 112.062 33.4133 111.33 34.217C110.585 35.0206 110.219 35.9741 110.219 37.0503V44.8554Z" fill="white"/>
<path d="M31.4162 12.0422V13.8538H35.7128C35.5772 14.998 35.1029 15.8834 34.3032 16.51C33.5171 17.1366 32.5547 17.45 31.4162 17.45C30.088 17.45 28.9765 16.9868 28.0684 16.047C27.1603 15.1207 26.6994 13.9901 26.6994 12.6415C26.6994 11.293 27.1603 10.1624 28.0684 9.23615C28.9765 8.29619 30.1015 7.83313 31.4162 7.83313C32.6631 7.83313 33.7339 8.26905 34.6556 9.12717L35.9296 7.84671C34.6556 6.63437 33.1512 6.02148 31.4162 6.02148C30.237 6.02148 29.1256 6.32114 28.082 6.92046C27.0383 7.5062 26.2251 8.32347 25.6287 9.3587C25.0459 10.3666 24.7477 11.4564 24.7477 12.6279C24.7477 13.7994 25.0459 14.9028 25.6287 15.9243C26.2116 16.9459 27.0383 17.7496 28.082 18.349C29.1256 18.9483 30.237 19.2481 31.4162 19.2481C33.1917 19.2481 34.6691 18.6895 35.8348 17.5725C36.9869 16.4692 37.5696 14.998 37.5696 13.1728C37.5696 12.7369 37.5426 12.3691 37.4748 12.0422H31.4298H31.4162Z" fill="white"/>
<path d="M42.4504 10.7344C41.2442 10.7344 40.2276 11.143 39.4144 11.9603C38.6012 12.764 38.1946 13.7721 38.1946 14.998C38.1946 16.2239 38.6012 17.2047 39.428 18.0355C40.2412 18.8528 41.2442 19.2616 42.4504 19.2616C43.6568 19.2616 44.6597 18.8528 45.4729 18.0355C46.2998 17.2047 46.7064 16.1966 46.7064 14.998C46.7064 13.7992 46.2998 12.7777 45.4729 11.9603C44.6597 11.143 43.6568 10.7344 42.4504 10.7344ZM44.1311 16.8369C43.6704 17.3272 43.1146 17.5725 42.4504 17.5725C41.7864 17.5725 41.2035 17.3272 40.7426 16.8369C40.2819 16.3464 40.0514 15.7335 40.0514 14.998C40.0514 14.2624 40.2819 13.6358 40.7426 13.159C41.2035 12.6687 41.7728 12.4235 42.4504 12.4235C43.1282 12.4235 43.6974 12.6687 44.1583 13.159C44.6192 13.6358 44.8495 14.2487 44.8495 14.998C44.8495 15.7471 44.6192 16.3329 44.1447 16.8369H44.1311Z" fill="white"/>
<path d="M68.012 6.48242H66.1552V19.0007H68.012V6.48242Z" fill="white"/>
<path d="M51.7332 10.7344C50.5269 10.7344 49.5104 11.143 48.6972 11.9603C47.8838 12.764 47.4772 13.7721 47.4772 14.998C47.4772 16.2239 47.8838 17.2047 48.7106 18.0355C49.5239 18.8528 50.5269 19.2616 51.7332 19.2616C52.9395 19.2616 53.9425 18.8528 54.7557 18.0355C55.5825 17.2047 55.9891 16.1966 55.9891 14.998C55.9891 13.7992 55.5825 12.7777 54.7557 11.9603C53.9425 11.143 52.9395 10.7344 51.7332 10.7344ZM53.4139 16.8369C52.953 17.3272 52.3973 17.5725 51.7332 17.5725C51.0691 17.5725 50.4863 17.3272 50.0254 16.8369C49.5645 16.3464 49.3342 15.7335 49.3342 14.998C49.3342 14.2624 49.5645 13.6358 50.0254 13.159C50.4863 12.6687 51.0555 12.4235 51.7332 12.4235C52.4109 12.4235 52.9802 12.6687 53.4409 13.159C53.9018 13.6358 54.1323 14.2487 54.1323 14.998C54.1323 15.7471 53.9018 16.3329 53.4274 16.8369H53.4139Z" fill="white"/>
<path d="M73.1217 17.5734C72.1865 17.5734 71.5089 17.1376 71.0616 16.2793L76.7271 13.9228L76.5374 13.4324C76.3882 13.0374 76.1985 12.6696 75.9545 12.3291C75.7106 12.0021 75.4394 11.7025 75.1277 11.471C74.816 11.2257 74.4771 11.0486 74.0976 10.9125C73.7182 10.7898 73.325 10.7217 72.9048 10.7217C71.7663 10.7217 70.8175 11.1305 70.0451 11.934C69.286 12.7514 68.9066 13.7729 68.9066 14.9853C68.9066 16.1976 69.3132 17.2056 70.1128 18.023C70.9124 18.8402 71.9155 19.2489 73.1083 19.2489C74.6127 19.2489 75.7783 18.6223 76.6322 17.3555L75.182 16.3883C74.6534 17.1784 73.9621 17.5598 73.0947 17.5598L73.1217 17.5734ZM71.4004 13.0919C71.8748 12.6152 72.3898 12.3836 72.9727 12.3836C73.3386 12.3836 73.6639 12.4653 73.9486 12.6287C74.2332 12.7923 74.4365 13.0102 74.5449 13.2826L70.7634 14.8627C70.7363 14.1407 70.9531 13.555 71.4004 13.0919Z" fill="white"/>
<path d="M63.1063 11.6879H63.0386C62.51 11.0477 61.7645 10.7344 60.8022 10.7344C59.7044 10.7344 58.7556 11.1567 57.9423 11.9876C57.1426 12.8321 56.736 13.8265 56.736 14.998C56.736 16.1695 57.1426 17.1638 57.9423 17.9947C58.7692 18.8257 59.7178 19.2343 60.8022 19.2343C61.7509 19.2343 62.4964 18.9074 63.0386 18.2672H63.1063V18.703C63.1063 20.4875 62.3473 21.3865 60.8429 21.3865C60.3548 21.3865 59.9347 21.2503 59.5552 20.9642C59.1758 20.6782 58.891 20.3239 58.7013 19.8609L57.0749 20.5419C57.2375 20.9234 57.4408 21.2639 57.6848 21.5636C57.9288 21.8769 58.2134 22.1357 58.5387 22.3537C58.864 22.5715 59.2163 22.7486 59.6095 22.8713C59.989 22.9939 60.3956 23.062 60.8293 23.062C62.0898 23.062 63.0792 22.6805 63.7841 21.9041C64.4888 21.1414 64.8547 20.038 64.8547 18.6213V10.9796H63.0927V11.6743L63.1063 11.6879ZM62.5777 16.8505C62.144 17.3408 61.6018 17.5725 60.9783 17.5725C60.3143 17.5725 59.7585 17.3272 59.2976 16.8369C58.8505 16.3464 58.62 15.7335 58.62 15.0115C58.62 14.2897 58.8505 13.6631 59.3112 13.1726C59.7857 12.6687 60.3414 12.4099 60.9783 12.4099C61.6154 12.4099 62.1575 12.655 62.5777 13.1455C63.0115 13.6494 63.2419 14.276 63.2419 14.998C63.2419 15.7198 63.025 16.3329 62.5777 16.8369V16.8505Z" fill="white"/>
<path d="M14.4338 0.0820312H0.934143V51.6535H14.4338V0.0820312Z" fill="white"/>
</svg>
