<svg width="1040" height="198" viewBox="0 0 1040 198" fill="none" xmlns="http://www.w3.org/2000/svg">
<path d="M5.84 20H20.96V80H5.84V20ZM61.9169 20C68.9569 20 75.1169 21.2533 80.3969 23.76C85.6769 26.2667 89.7835 29.76 92.7169 34.24C95.7035 38.72 97.1969 43.9733 97.1969 50C97.1969 55.9733 95.7035 61.2267 92.7169 65.76C89.7835 70.24 85.6769 73.7333 80.3969 76.24C75.1169 78.7467 68.9569 80 61.9169 80H32.6369V20H61.9169ZM47.6769 73.84L40.3169 66.64H63.0369C66.8769 66.64 70.2102 65.9467 73.0369 64.56C75.8635 63.1733 78.0502 61.2533 79.5969 58.8C81.1435 56.2933 81.9169 53.36 81.9169 50C81.9169 46.5867 81.1435 43.6533 79.5969 41.2C78.0502 38.7467 75.8635 36.8267 73.0369 35.44C70.2102 34.0533 66.8769 33.36 63.0369 33.36H40.3169L47.6769 26.16V73.84ZM155.929 44.4V55.6H112.489V44.4H155.929ZM122.729 50L118.729 74.8L112.409 67.6H158.489V80H103.609L108.249 50L103.609 20H158.089V32.4H112.409L118.729 25.2L122.729 50ZM178.046 67.92V55.68H219.486V67.92H178.046ZM208.926 20L236.606 80H220.526L196.766 26.32H201.406L177.726 80H161.566L189.326 20H208.926ZM236.866 60.4H252.146C252.413 62.2133 253.24 63.8133 254.626 65.2C256.013 66.5867 257.853 67.6533 260.146 68.4C262.493 69.1467 265.213 69.52 268.306 69.52C272.733 69.52 276.2 68.9067 278.706 67.68C281.266 66.4533 282.546 64.72 282.546 62.48C282.546 60.7733 281.8 59.4667 280.306 58.56C278.866 57.6 276.146 56.9067 272.146 56.48L260.546 55.28C252.493 54.48 246.653 52.6133 243.026 49.68C239.453 46.7467 237.666 42.7467 237.666 37.68C237.666 33.68 238.84 30.2667 241.186 27.44C243.586 24.6133 246.92 22.4533 251.186 20.96C255.506 19.4667 260.546 18.72 266.306 18.72C272.013 18.72 277.053 19.5467 281.426 21.2C285.8 22.8533 289.293 25.1467 291.906 28.08C294.52 31.0133 295.933 34.4533 296.146 38.4H280.866C280.653 36.7467 279.906 35.36 278.626 34.24C277.4 33.0667 275.72 32.16 273.586 31.52C271.506 30.8267 269 30.48 266.066 30.48C262.013 30.48 258.786 31.0667 256.386 32.24C254.04 33.36 252.866 34.9867 252.866 37.12C252.866 38.72 253.56 39.9733 254.946 40.88C256.386 41.7867 258.92 42.4533 262.546 42.88L274.786 44.24C280.386 44.8267 284.866 45.76 288.226 47.04C291.586 48.32 294.013 50.08 295.506 52.32C297 54.56 297.746 57.3867 297.746 60.8C297.746 64.9067 296.493 68.5067 293.986 71.6C291.533 74.64 288.066 77.0133 283.586 78.72C279.16 80.4267 273.986 81.28 268.066 81.28C261.933 81.28 256.546 80.4 251.906 78.64C247.32 76.88 243.693 74.4533 241.026 71.36C238.413 68.2133 237.026 64.56 236.866 60.4ZM392.383 55.2C391.796 60.3733 390.01 64.9333 387.023 68.88C384.036 72.7733 380.09 75.8133 375.183 78C370.276 80.1867 364.703 81.28 358.463 81.28C351.53 81.28 345.45 79.9733 340.223 77.36C335.05 74.7467 331.023 71.0933 328.143 66.4C325.263 61.7067 323.823 56.24 323.823 50C323.823 43.76 325.263 38.2933 328.143 33.6C331.023 28.9067 335.05 25.2533 340.223 22.64C345.45 20.0267 351.53 18.72 358.463 18.72C364.703 18.72 370.276 19.8133 375.183 22C380.09 24.1867 384.036 27.2267 387.023 31.12C390.01 35.0133 391.796 39.5733 392.383 44.8H377.183C376.65 42.08 375.556 39.76 373.903 37.84C372.303 35.92 370.17 34.4533 367.503 33.44C364.89 32.3733 361.85 31.84 358.383 31.84C354.383 31.84 350.943 32.5867 348.063 34.08C345.183 35.52 342.97 37.6 341.423 40.32C339.876 43.04 339.103 46.2667 339.103 50C339.103 53.7333 339.876 56.96 341.423 59.68C342.97 62.4 345.183 64.5067 348.063 66C350.943 67.44 354.383 68.16 358.383 68.16C361.85 68.16 364.89 67.6533 367.503 66.64C370.17 65.6267 372.303 64.16 373.903 62.24C375.556 60.32 376.65 57.9733 377.183 55.2H392.383ZM617.69 69.68L612.81 70.56V20H627.45V80H608.41L571.85 29.44L576.73 28.56V80H562.09V20H581.69L617.69 69.68ZM694.721 69.68L689.841 70.56V20H704.481V80H685.441L648.881 29.44L653.761 28.56V80H639.121V20H658.721L694.721 69.68ZM766.633 44.4V55.6H723.193V44.4H766.633ZM733.433 50L729.433 74.8L723.113 67.6H769.193V80H714.313L718.953 50L714.313 20H768.793V32.4H723.113L729.433 25.2L733.433 50ZM844.024 55.2C843.437 60.3733 841.65 64.9333 838.664 68.88C835.677 72.7733 831.73 75.8133 826.824 78C821.917 80.1867 816.344 81.28 810.104 81.28C803.17 81.28 797.09 79.9733 791.864 77.36C786.69 74.7467 782.664 71.0933 779.784 66.4C776.904 61.7067 775.464 56.24 775.464 50C775.464 43.76 776.904 38.2933 779.784 33.6C782.664 28.9067 786.69 25.2533 791.864 22.64C797.09 20.0267 803.17 18.72 810.104 18.72C816.344 18.72 821.917 19.8133 826.824 22C831.73 24.1867 835.677 27.2267 838.664 31.12C841.65 35.0133 843.437 39.5733 844.024 44.8H828.824C828.29 42.08 827.197 39.76 825.544 37.84C823.944 35.92 821.81 34.4533 819.144 33.44C816.53 32.3733 813.49 31.84 810.024 31.84C806.024 31.84 802.584 32.5867 799.704 34.08C796.824 35.52 794.61 37.6 793.064 40.32C791.517 43.04 790.744 46.2667 790.744 50C790.744 53.7333 791.517 56.96 793.064 59.68C794.61 62.4 796.824 64.5067 799.704 66C802.584 67.44 806.024 68.16 810.024 68.16C813.49 68.16 816.53 67.6533 819.144 66.64C821.81 65.6267 823.944 64.16 825.544 62.24C827.197 60.32 828.29 57.9733 828.824 55.2H844.024ZM869.019 26.72H884.139V80H869.019V26.72ZM845.659 20H907.499V33.36H845.659V20Z" fill="white"/>
<path d="M24.8 125.72H39.92V179H24.8V125.72ZM1.44 119H63.28V132.36H1.44V119ZM70.5275 119H85.6475V179H70.5275V119ZM118.208 119H133.328V179H118.208V119ZM78.9275 141.96H124.608V155.24H78.9275V141.96ZM155.461 145.4H177.941C180.767 145.4 183.007 144.76 184.661 143.48C186.314 142.147 187.141 140.307 187.141 137.96C187.141 135.613 186.314 133.8 184.661 132.52C183.007 131.187 180.767 130.52 177.941 130.52H153.301L160.101 123.08V179H144.981V119H179.941C184.421 119 188.341 119.8 191.701 121.4C195.061 123 197.674 125.213 199.541 128.04C201.407 130.867 202.341 134.173 202.341 137.96C202.341 141.693 201.407 144.973 199.541 147.8C197.674 150.627 195.061 152.84 191.701 154.44C188.341 156.04 184.421 156.84 179.941 156.84H155.461V145.4ZM165.141 150.92H182.181L204.261 179H186.741L165.141 150.92ZM244.181 180.28C237.141 180.28 230.955 178.973 225.621 176.36C220.341 173.747 216.235 170.093 213.301 165.4C210.368 160.707 208.901 155.24 208.901 149C208.901 142.76 210.368 137.293 213.301 132.6C216.235 127.907 220.341 124.253 225.621 121.64C230.955 119.027 237.141 117.72 244.181 117.72C251.221 117.72 257.381 119.027 262.661 121.64C267.995 124.253 272.128 127.907 275.061 132.6C278.048 137.293 279.541 142.76 279.541 149C279.541 155.24 278.048 160.707 275.061 165.4C272.128 170.093 267.995 173.747 262.661 176.36C257.381 178.973 251.221 180.28 244.181 180.28ZM244.181 166.76C248.341 166.76 251.915 166.067 254.901 164.68C257.888 163.24 260.181 161.187 261.781 158.52C263.435 155.853 264.261 152.68 264.261 149C264.261 145.32 263.435 142.147 261.781 139.48C260.181 136.813 257.888 134.787 254.901 133.4C251.915 131.96 248.341 131.24 244.181 131.24C240.075 131.24 236.528 131.96 233.541 133.4C230.555 134.787 228.235 136.813 226.581 139.48C224.928 142.147 224.101 145.32 224.101 149C224.101 152.68 224.928 155.853 226.581 158.52C228.235 161.187 230.555 163.24 233.541 164.68C236.528 166.067 240.075 166.76 244.181 166.76ZM302.816 152.44C302.816 155.373 303.376 157.933 304.496 160.12C305.67 162.253 307.35 163.907 309.536 165.08C311.723 166.2 314.416 166.76 317.616 166.76C320.816 166.76 323.51 166.2 325.696 165.08C327.883 163.907 329.536 162.253 330.656 160.12C331.83 157.933 332.416 155.373 332.416 152.44V119H347.536V153.16C347.536 158.6 346.283 163.347 343.776 167.4C341.27 171.453 337.776 174.627 333.296 176.92C328.816 179.16 323.59 180.28 317.616 180.28C311.643 180.28 306.416 179.16 301.936 176.92C297.456 174.627 293.963 171.453 291.456 167.4C288.95 163.347 287.696 158.6 287.696 153.16V119H302.816V152.44ZM419.538 153C419.431 156.627 418.711 160.093 417.378 163.4C416.045 166.653 414.125 169.56 411.618 172.12C409.111 174.627 406.018 176.627 402.338 178.12C398.658 179.56 394.365 180.28 389.458 180.28C384.765 180.28 380.365 179.587 376.258 178.2C372.205 176.813 368.631 174.787 365.538 172.12C362.445 169.453 360.045 166.173 358.338 162.28C356.631 158.387 355.778 153.96 355.778 149C355.778 144.04 356.631 139.613 358.338 135.72C360.098 131.827 362.525 128.547 365.618 125.88C368.765 123.213 372.418 121.187 376.578 119.8C380.791 118.413 385.378 117.72 390.338 117.72C396.791 117.72 402.391 118.733 407.138 120.76C411.938 122.787 415.778 125.56 418.658 129.08C421.591 132.6 423.458 136.653 424.258 141.24H408.978C408.445 139 407.325 137.08 405.618 135.48C403.911 133.88 401.751 132.653 399.138 131.8C396.578 130.893 393.645 130.44 390.338 130.44C386.338 130.44 382.898 131.16 380.018 132.6C377.138 133.987 374.898 136.067 373.298 138.84C371.698 141.56 370.898 144.947 370.898 149C370.898 153.053 371.751 156.493 373.458 159.32C375.165 162.147 377.565 164.28 380.658 165.72C383.751 167.16 387.405 167.88 391.618 167.88C395.725 167.88 399.325 167.267 402.418 166.04C405.565 164.813 408.045 163.053 409.858 160.76C411.725 158.467 412.791 155.72 413.058 152.52L419.538 153ZM393.378 159.08V148.36H424.818V179H414.018L411.938 155L414.978 159.08H393.378ZM435.215 119H450.335V179H435.215V119ZM482.895 119H498.015V179H482.895V119ZM443.615 141.96H489.295V155.24H443.615V141.96Z" fill="white"/>
<path d="M456.899 81.5673C456.36 81.5673 438.208 81.5826 437.679 81.5673C431.298 81.3827 425.645 80.0837 420.72 77.6703C415.44 75.0569 411.333 71.4036 408.4 66.7103C405.467 62.017 404 56.5503 404 50.3103C404 44.0703 405.467 38.6036 408.4 33.9103C411.333 29.217 415.44 25.5636 420.72 22.9503C425.645 20.5369 431.298 19.2378 437.679 19.0532C438.208 19.0379 456.36 19.0074 456.899 19.0074C457.437 19.0074 516.692 18.9913 517.22 19.0066C523.597 19.1912 529.224 20.4902 534.1 22.9037C539.433 25.517 543.567 29.1703 546.5 33.8637C549.487 38.557 550.98 44.0237 550.98 50.2637C550.98 56.5037 549.487 61.9703 546.5 66.6637C543.567 71.357 539.433 75.0103 534.1 77.6237C529.224 80.0372 523.597 81.3362 517.219 81.5207C516.691 81.536 457.437 81.5673 456.899 81.5673ZM456.899 68.0473C457.442 68.0473 516.697 68.0118 517.22 67.9882C520.703 67.8307 523.743 67.1492 526.34 65.9437C529.327 64.5037 531.62 62.4503 533.22 59.7837C534.873 57.117 535.7 53.9437 535.7 50.2637C535.7 46.5837 534.873 43.4103 533.22 40.7437C531.62 38.077 529.327 36.0503 526.34 34.6637C523.743 33.4117 520.703 32.704 517.22 32.5405C516.697 32.516 457.442 32.5273 456.899 32.5273C456.355 32.5273 438.203 32.5629 437.679 32.5881C434.245 32.7534 431.232 33.4608 428.64 34.7103C425.653 36.097 423.333 38.1236 421.68 40.7903C420.027 43.457 419.2 46.6303 419.2 50.3103C419.2 53.9903 420.027 57.1636 421.68 59.8303C423.333 62.497 425.653 64.5503 428.64 65.9903C431.232 67.1935 434.245 67.8747 437.679 68.0339C438.203 68.0581 456.355 68.0473 456.899 68.0473Z" fill="#474EFF"/>
</svg>
