<svg width="21" height="251" viewBox="0 0 21 251" fill="none" xmlns="http://www.w3.org/2000/svg">
<path d="M10.7502 145L10.7502 144.25L9.25024 144.25L9.25024 145L10.7502 145ZM9.46991 250.53C9.7628 250.823 10.2377 250.823 10.5306 250.53L15.3035 245.757C15.5964 245.464 15.5964 244.99 15.3035 244.697C15.0106 244.404 14.5358 244.404 14.2429 244.697L10.0002 248.939L5.7576 244.697C5.46471 244.404 4.98983 244.404 4.69694 244.697C4.40405 244.99 4.40405 245.464 4.69694 245.757L9.46991 250.53ZM9.25024 145L9.25024 250L10.7502 250L10.7502 145L9.25024 145Z" fill="#6A6868"/>
<path d="M6 0.480999L6.988 0.480999L15.23 8.125L14.71 8.775L14.71 0.533L15.75 0.533L15.75 9.269L14.775 9.269L6.52 1.625L7.04 1.04L7.04 9.308L6 9.308L6 0.480999ZM6 17.3118L8.769 17.0518L9.666 17.3768L10.55 17.0518L13.319 17.3118L13.319 18.5338L9.666 18.1958L6 18.5338L6 17.3118ZM9.666 17.7798C8.90333 17.5892 8.23167 17.2945 7.651 16.8958C7.079 16.5058 6.63267 16.0292 6.312 15.4658C5.99133 14.9112 5.831 14.2958 5.831 13.6198C5.831 12.9005 5.99133 12.2635 6.312 11.7088C6.64133 11.1542 7.092 10.7165 7.664 10.3958C8.24467 10.0838 8.912 9.92784 9.666 9.92784C10.4287 9.92784 11.096 10.0838 11.668 10.3958C12.24 10.7165 12.6863 11.1542 13.007 11.7088C13.3277 12.2635 13.488 12.9005 13.488 13.6198C13.488 14.2958 13.3277 14.9112 13.007 15.4658C12.6863 16.0292 12.24 16.5102 11.668 16.9088C11.096 17.3075 10.4287 17.5978 9.666 17.7798ZM9.666 11.1498C9.11133 11.1498 8.62167 11.2625 8.197 11.4878C7.77233 11.7218 7.43867 12.0382 7.196 12.4368C6.962 12.8442 6.845 13.3035 6.845 13.8148C6.845 14.3348 6.962 14.8115 7.196 15.2448C7.43867 15.6868 7.77233 16.0768 8.197 16.4148C8.62167 16.7615 9.11133 17.0432 9.666 17.2598C10.2207 17.0432 10.7103 16.7615 11.135 16.4148C11.5597 16.0768 11.889 15.6868 12.123 15.2448C12.3657 14.8115 12.487 14.3348 12.487 13.8148C12.487 13.3035 12.3657 12.8442 12.123 12.4368C11.889 12.0382 11.5597 11.7218 11.135 11.4878C10.7103 11.2625 10.2207 11.1498 9.666 11.1498ZM13.319 20.3227L13.319 21.5187L10.55 21.5187L10.316 21.4537L9.133 21.4537L8.756 21.5187L3.855 21.5187L3.855 20.3227L13.319 20.3227ZM9.666 20.9597C10.4287 21.1503 11.096 21.4407 11.668 21.8307C12.24 22.2293 12.6863 22.706 13.007 23.2607C13.3277 23.824 13.488 24.4437 13.488 25.1197C13.488 25.839 13.3277 26.476 13.007 27.0307C12.6863 27.5853 12.24 28.0187 11.668 28.3307C11.096 28.6513 10.4287 28.8117 9.666 28.8117C8.912 28.8117 8.24467 28.6513 7.664 28.3307C7.092 28.0187 6.64133 27.5853 6.312 27.0307C5.99133 26.476 5.831 25.839 5.831 25.1197C5.831 24.4437 5.99133 23.824 6.312 23.2607C6.63267 22.706 7.079 22.2293 7.651 21.8307C8.23167 21.4407 8.90333 21.1503 9.666 20.9597ZM9.666 27.5897C10.2207 27.5897 10.7103 27.4727 11.135 27.2387C11.5597 27.0133 11.889 26.697 12.123 26.2897C12.3657 25.891 12.487 25.436 12.487 24.9247C12.487 24.4047 12.3657 23.9237 12.123 23.4817C11.889 23.0483 11.5597 22.6627 11.135 22.3247C10.7103 21.9867 10.2207 21.705 9.666 21.4797C9.11133 21.705 8.62167 21.9867 8.197 22.3247C7.77233 22.6627 7.43867 23.0483 7.196 23.4817C6.962 23.9237 6.845 24.4047 6.845 24.9247C6.845 25.436 6.962 25.891 7.196 26.2897C7.43867 26.697 7.77233 27.0133 8.197 27.2387C8.62167 27.4727 9.11133 27.5897 9.666 27.5897ZM13.319 29.9886L13.319 31.1846L10.823 31.6006L6 31.6006L6 30.4046L11.044 30.4046L13.319 29.9886ZM13.345 35.4876L12.266 35.4876C12.318 35.3229 12.357 35.1279 12.383 34.9026C12.409 34.6859 12.422 34.4779 12.422 34.2786C12.422 33.7586 12.305 33.2949 12.071 32.8876C11.837 32.4802 11.4947 32.1639 11.044 31.9386C10.602 31.7132 10.0777 31.6006 9.471 31.6006L9.939 31.2626C10.4503 31.2799 10.9227 31.3622 11.356 31.5096C11.7893 31.6569 12.162 31.8649 12.474 32.1336C12.7947 32.4109 13.0417 32.7402 13.215 33.1216C13.397 33.5116 13.488 33.9492 13.488 34.4346C13.488 34.6166 13.475 34.8029 13.449 34.9936C13.423 35.1929 13.3883 35.3576 13.345 35.4876ZM6 43.223L8.769 42.963L9.666 43.288L10.55 42.963L13.319 43.223L13.319 44.445L9.666 44.107L6 44.445L6 43.223ZM9.666 43.691C8.90333 43.5003 8.23166 43.2056 7.651 42.807C7.079 42.417 6.63266 41.9403 6.312 41.377C5.99133 40.8223 5.831 40.207 5.831 39.531C5.831 38.8116 5.99133 38.1746 6.312 37.62C6.64133 37.0653 7.092 36.6276 7.664 36.307C8.24467 35.995 8.912 35.839 9.666 35.839C10.4287 35.839 11.096 35.995 11.668 36.307C12.24 36.6276 12.6863 37.0653 13.007 37.62C13.3277 38.1746 13.488 38.8116 13.488 39.531C13.488 40.207 13.3277 40.8223 13.007 41.377C12.6863 41.9403 12.24 42.4213 11.668 42.82C11.096 43.2186 10.4287 43.509 9.666 43.691ZM9.666 37.061C9.11133 37.061 8.62167 37.1736 8.197 37.399C7.77233 37.633 7.43867 37.9493 7.196 38.348C6.962 38.7553 6.845 39.2146 6.845 39.726C6.845 40.246 6.962 40.7226 7.196 41.156C7.43866 41.598 7.77233 41.988 8.197 42.326C8.62166 42.6726 9.11133 42.9543 9.666 43.171C10.2207 42.9543 10.7103 42.6726 11.135 42.326C11.5597 41.988 11.889 41.598 12.123 41.156C12.3657 40.7226 12.487 40.246 12.487 39.726C12.487 39.2146 12.3657 38.7553 12.123 38.348C11.889 37.9493 11.5597 37.633 11.135 37.399C10.7103 37.1736 10.2207 37.061 9.666 37.061ZM8.145 53.3708C7.677 53.3708 7.26966 53.2278 6.923 52.9418C6.57633 52.6645 6.30766 52.2528 6.117 51.7068C5.92633 51.1695 5.831 50.5151 5.831 49.7438C5.831 48.9551 5.93933 48.2575 6.156 47.6508C6.38133 47.0528 6.69333 46.5848 7.092 46.2468C7.49066 45.9088 7.95433 45.7268 8.483 45.7008L8.483 46.9228C8.145 46.9748 7.846 47.1265 7.586 47.3778C7.33466 47.6291 7.13966 47.9585 7.001 48.3658C6.86233 48.7731 6.793 49.2368 6.793 49.7568C6.793 50.5108 6.90566 51.1001 7.131 51.5248C7.365 51.9581 7.68133 52.1748 8.08 52.1748C8.392 52.1748 8.62166 52.0361 8.769 51.7588C8.925 51.4815 9.042 50.9658 9.12 50.2118L9.263 48.7948C9.33233 48.0928 9.458 47.5295 9.64 47.1048C9.83066 46.6888 10.0647 46.3898 10.342 46.2078C10.628 46.0258 10.9443 45.9348 11.291 45.9348C11.7677 45.9348 12.1663 46.0778 12.487 46.3638C12.8163 46.6585 13.0633 47.0658 13.228 47.5858C13.4013 48.1058 13.488 48.7081 13.488 49.3928C13.488 50.1208 13.384 50.7665 13.176 51.3298C12.968 51.9018 12.6777 52.3568 12.305 52.6948C11.9323 53.0328 11.5033 53.2191 11.018 53.2538L11.018 52.0448C11.2953 52.0015 11.5467 51.8715 11.772 51.6548C12.006 51.4381 12.1923 51.1348 12.331 50.7448C12.4697 50.3635 12.539 49.8911 12.539 49.3278C12.539 48.6345 12.4393 48.0928 12.24 47.7028C12.0407 47.3215 11.7503 47.1308 11.369 47.1308C11.0917 47.1308 10.8707 47.2565 10.706 47.5078C10.5413 47.7591 10.4243 48.2055 10.355 48.8468L10.186 50.4588C10.1167 51.1955 9.99533 51.7761 9.822 52.2008C9.64866 52.6255 9.42333 52.9245 9.146 53.0978C8.86866 53.2798 8.535 53.3708 8.145 53.3708ZM6 54.2831L6.91 54.2831L12.786 60.3411L12.37 60.9781L12.37 54.3351L13.319 54.3351L13.319 61.4461L12.422 61.4461L6.546 55.3881L6.962 54.8291L6.962 61.4721L6 61.4721L6 54.2831ZM6 69.68L8.769 69.42L9.666 69.745L10.55 69.42L13.319 69.68L13.319 70.902L9.666 70.564L6 70.902L6 69.68ZM9.666 70.148C8.90333 69.9573 8.23166 69.6627 7.651 69.264C7.079 68.874 6.63266 68.3973 6.312 67.834C5.99133 67.2793 5.831 66.664 5.831 65.988C5.831 65.2687 5.99133 64.6317 6.312 64.077C6.64133 63.5223 7.092 63.0847 7.664 62.764C8.24466 62.452 8.912 62.296 9.666 62.296C10.4287 62.296 11.096 62.452 11.668 62.764C12.24 63.0847 12.6863 63.5223 13.007 64.077C13.3277 64.6317 13.488 65.2687 13.488 65.988C13.488 66.664 13.3277 67.2793 13.007 67.834C12.6863 68.3973 12.24 68.8783 11.668 69.277C11.096 69.6757 10.4287 69.966 9.666 70.148ZM9.666 63.518C9.11133 63.518 8.62166 63.6307 8.197 63.856C7.77233 64.09 7.43866 64.4063 7.196 64.805C6.962 65.2123 6.845 65.6717 6.845 66.183C6.845 66.703 6.962 67.1797 7.196 67.613C7.43866 68.055 7.77233 68.445 8.197 68.783C8.62166 69.1297 9.11133 69.4113 9.666 69.628C10.2207 69.4113 10.7103 69.1297 11.135 68.783C11.5597 68.445 11.889 68.055 12.123 67.613C12.3657 67.1797 12.487 66.703 12.487 66.183C12.487 65.6717 12.3657 65.2123 12.123 64.805C11.889 64.4063 11.5597 64.09 11.135 63.856C10.7103 63.6307 10.2207 63.518 9.666 63.518ZM13.319 72.3528L13.319 73.5488L10.836 73.9648L6 73.9648L6 72.7688L11.005 72.7688L13.319 72.3528ZM13.488 76.7598C13.488 77.3925 13.3493 77.9298 13.072 78.3718C12.8033 78.8138 12.409 79.1518 11.889 79.3858C11.3777 79.6198 10.758 79.7368 10.03 79.7368L6 79.7368L6 78.5408L9.822 78.5408C10.6973 78.5408 11.356 78.3588 11.798 77.9948C12.2487 77.6308 12.474 77.1022 12.474 76.4088C12.474 75.9148 12.3527 75.4815 12.11 75.1088C11.8673 74.7448 11.5293 74.4632 11.096 74.2638C10.6713 74.0645 10.173 73.9648 9.601 73.9648L9.939 73.4838C10.667 73.5445 11.2953 73.7178 11.824 74.0038C12.3527 74.2985 12.76 74.6798 13.046 75.1478C13.3407 75.6245 13.488 76.1618 13.488 76.7598ZM13.488 82.5188C13.488 83.1515 13.3493 83.6888 13.072 84.1308C12.8033 84.5815 12.409 84.9238 11.889 85.1578C11.3777 85.3918 10.758 85.5088 10.03 85.5088L6 85.5088L6 84.3128L9.822 84.3128C10.6973 84.3128 11.356 84.1308 11.798 83.7668C12.2487 83.4028 12.474 82.8742 12.474 82.1808C12.474 81.6868 12.3527 81.2535 12.11 80.8808C11.8673 80.5168 11.5293 80.2352 11.096 80.0358C10.6713 79.8365 10.173 79.7368 9.601 79.7368L9.939 79.2558C10.667 79.3165 11.2953 79.4898 11.824 79.7758C12.3527 80.0705 12.76 80.4518 13.046 80.9198C13.3407 81.3965 13.488 81.9295 13.488 82.5188ZM3.686 88.4544C3.686 88.0818 3.73366 87.7481 3.829 87.4534C3.92433 87.1588 4.063 86.8684 4.245 86.5824L5.194 86.5824C5.012 86.8684 4.87766 87.1458 4.791 87.4144C4.70433 87.6831 4.661 87.9908 4.661 88.3374C4.661 88.7101 4.74766 89.0308 4.921 89.2994C5.08566 89.5681 5.35866 89.7934 5.74 89.9754L13.319 93.6284L13.319 94.9024L5.298 90.8984C4.92533 90.7164 4.622 90.4998 4.388 90.2484C4.14533 90.0058 3.96766 89.7328 3.855 89.4294C3.74233 89.1348 3.686 88.8098 3.686 88.4544ZM6.234 89.6764L13.319 86.2054L13.319 87.5184L6.234 90.8854L6.234 89.6764ZM6 106.167L8.795 105.907L9.653 106.258L10.576 105.933L16.01 106.44L16.01 107.662L9.718 107.051L6 107.389L6 106.167ZM9.666 106.622C8.90333 106.431 8.23166 106.136 7.651 105.738C7.079 105.348 6.63266 104.871 6.312 104.308C5.99133 103.753 5.831 103.138 5.831 102.462C5.831 101.742 5.99133 101.105 6.312 100.551C6.64133 99.996 7.092 99.5583 7.664 99.2376C8.24466 98.9256 8.912 98.7696 9.666 98.7696C10.4287 98.7696 11.096 98.9256 11.668 99.2376C12.24 99.5583 12.6863 99.996 13.007 100.551C13.3277 101.105 13.488 101.742 13.488 102.462C13.488 103.138 13.3277 103.753 13.007 104.308C12.6863 104.871 12.24 105.352 11.668 105.751C11.096 106.149 10.4287 106.44 9.666 106.622ZM9.666 99.9916C9.11133 99.9916 8.62166 100.104 8.197 100.33C7.77233 100.564 7.43866 100.88 7.196 101.279C6.962 101.686 6.845 102.145 6.845 102.657C6.845 103.177 6.962 103.653 7.196 104.087C7.43866 104.529 7.77233 104.919 8.197 105.257C8.62166 105.603 9.11133 105.885 9.666 106.102C10.2207 105.885 10.7103 105.603 11.135 105.257C11.5597 104.919 11.889 104.529 12.123 104.087C12.3657 103.653 12.487 103.177 12.487 102.657C12.487 102.145 12.3657 101.686 12.123 101.279C11.889 100.88 11.5597 100.564 11.135 100.33C10.7103 100.104 10.2207 99.9916 9.666 99.9916ZM5.99999 116.119L8.769 115.859L9.66599 116.184L10.55 115.859L13.319 116.119L13.319 117.341L9.66599 117.003L5.99999 117.341L5.99999 116.119ZM9.66599 116.587C8.90333 116.397 8.23166 116.102 7.65099 115.703C7.079 115.313 6.63266 114.837 6.312 114.273C5.99133 113.719 5.831 113.103 5.831 112.427C5.831 111.708 5.99133 111.071 6.312 110.516C6.64133 109.962 7.092 109.524 7.664 109.203C8.24466 108.891 8.912 108.735 9.666 108.735C10.4287 108.735 11.096 108.891 11.668 109.203C12.24 109.524 12.6863 109.962 13.007 110.516C13.3277 111.071 13.488 111.708 13.488 112.427C13.488 113.103 13.3277 113.719 13.007 114.273C12.6863 114.837 12.24 115.318 11.668 115.716C11.096 116.115 10.4287 116.405 9.66599 116.587ZM9.666 109.957C9.11133 109.957 8.62166 110.07 8.197 110.295C7.77233 110.529 7.43866 110.846 7.196 111.244C6.962 111.652 6.845 112.111 6.845 112.622C6.845 113.142 6.962 113.619 7.196 114.052C7.43866 114.494 7.77233 114.884 8.197 115.222C8.62166 115.569 9.11133 115.851 9.66599 116.067C10.2207 115.851 10.7103 115.569 11.135 115.222C11.5597 114.884 11.889 114.494 12.123 114.052C12.3657 113.619 12.487 113.142 12.487 112.622C12.487 112.111 12.3657 111.652 12.123 111.244C11.889 110.846 11.5597 110.529 11.135 110.295C10.7103 110.07 10.2207 109.957 9.666 109.957ZM16.01 119.13L16.01 120.326L5.99999 120.326L5.99999 119.13L16.01 119.13ZM5.83099 126.127C5.83099 125.286 5.99133 124.541 6.31199 123.891C6.64133 123.25 7.09199 122.743 7.66399 122.37C8.24466 122.006 8.91199 121.824 9.66599 121.824C10.4287 121.824 11.096 121.997 11.668 122.344C12.24 122.691 12.6863 123.172 13.007 123.787C13.3277 124.402 13.488 125.109 13.488 125.906C13.488 126.695 13.3147 127.384 12.968 127.973C12.6213 128.562 12.1317 129.017 11.499 129.338C10.875 129.667 10.147 129.832 9.31499 129.832L9.31499 122.734L10.264 122.734L10.264 129.325L9.83499 128.623C10.381 128.597 10.8533 128.467 11.252 128.233C11.6507 127.999 11.9583 127.683 12.175 127.284C12.3917 126.885 12.5 126.422 12.5 125.893C12.5 125.321 12.383 124.823 12.149 124.398C11.9237 123.973 11.603 123.64 11.187 123.397C10.771 123.163 10.2813 123.046 9.71799 123.046C9.12866 123.046 8.61733 123.18 8.18399 123.449C7.75066 123.718 7.41699 124.095 7.18299 124.58C6.94899 125.065 6.83199 125.637 6.83199 126.296C6.83199 126.894 6.93166 127.479 7.13099 128.051C7.33033 128.632 7.60333 129.152 7.94999 129.611L7.01399 129.611C6.64999 129.16 6.35966 128.623 6.14299 127.999C5.93499 127.375 5.83099 126.751 5.83099 126.127ZM13.345 131.318L13.241 131.916L13.345 132.514L3.85499 132.514L3.85499 131.318L13.345 131.318ZM14.424 131.903C14.424 131.66 14.4977 131.452 14.645 131.279C14.801 131.114 14.996 131.032 15.23 131.032C15.4553 131.032 15.6417 131.114 15.789 131.279C15.945 131.452 16.023 131.66 16.023 131.903C16.023 132.163 15.945 132.375 15.789 132.54C15.6417 132.704 15.4553 132.787 15.23 132.787C14.996 132.787 14.801 132.704 14.645 132.54C14.4977 132.375 14.424 132.163 14.424 131.903Z" fill="#6A6868"/>
</svg>
