<svg width="76" height="41" viewBox="0 0 76 41" fill="none" xmlns="http://www.w3.org/2000/svg">
<path d="M75.1655 20.4136C75.1655 25.9533 73.4292 30.6248 69.9565 34.4282C66.4839 38.2316 62.0811 40.1333 56.748 40.1333C49.0999 40.1333 42.7127 35.6478 37.5864 26.6768C32.4188 35.4411 26.2383 39.8232 19.0449 39.8232C13.4225 39.8232 8.89567 38.0042 5.46436 34.3662C2.07438 30.7282 0.379395 25.9946 0.379395 20.1655C0.379395 14.5018 2.11572 9.83024 5.58838 6.15088C9.10238 2.47152 13.5879 0.631836 19.0449 0.631836C26.4863 0.631836 32.7082 5.07601 37.7104 13.9644C42.8368 5.24137 49.1826 0.879883 56.748 0.879883C62.2051 0.879883 66.6286 2.67822 70.0186 6.2749C73.4499 9.87158 75.1655 14.5845 75.1655 20.4136ZM19.541 31.5757C22.1455 31.5757 24.564 30.6868 26.7964 28.9092C29.0288 27.0902 31.2199 24.1756 33.3696 20.1655C31.3439 16.2795 29.2148 13.4062 26.9824 11.5459C24.7913 9.68555 22.2695 8.75537 19.417 8.75537C16.2337 8.75537 13.6499 9.85091 11.6655 12.042C9.72249 14.1917 8.75098 16.9409 8.75098 20.2896C8.75098 23.6382 9.72249 26.3667 11.6655 28.4751C13.6086 30.5422 16.2337 31.5757 19.541 31.5757ZM56.0039 9.00342C53.3994 9.00342 50.981 9.93359 48.7485 11.7939C46.5575 13.613 44.3664 16.4862 42.1753 20.4136C44.201 24.2996 46.3301 27.1729 48.5625 29.0332C50.7949 30.8936 53.3167 31.8237 56.1279 31.8237C59.2699 31.8237 61.833 30.7489 63.8174 28.5991C65.8018 26.4494 66.7939 23.7209 66.7939 20.4136C66.7939 17.189 65.8018 14.4811 63.8174 12.29C61.8743 10.099 59.2699 9.00342 56.0039 9.00342Z" fill="white"/>
</svg>
