<svg width="35" height="35" viewBox="0 0 35 35" fill="none" xmlns="http://www.w3.org/2000/svg">
<path d="M24.5061 12.0689C25.376 12.0689 26.0811 11.3638 26.0811 10.4939C26.0811 9.62409 25.376 8.91895 24.5061 8.91895C23.6362 8.91895 22.9311 9.62409 22.9311 10.4939C22.9311 11.3638 23.6362 12.0689 24.5061 12.0689Z" fill="white"/>
<path d="M17.5 10.7598C16.1669 10.7598 14.8639 11.1551 13.7555 11.8956C12.6471 12.6362 11.7833 13.6889 11.2731 14.9205C10.763 16.152 10.6296 17.5071 10.8896 18.8145C11.1497 20.122 11.7916 21.323 12.7342 22.2655C13.6768 23.2082 14.8776 23.85 16.1852 24.11C17.4926 24.3702 18.8477 24.2366 20.0792 23.7265C21.3108 23.2163 22.3634 22.3526 23.1041 21.2442C23.8446 20.1358 24.24 18.8327 24.24 17.4997C24.24 15.7122 23.5298 13.9978 22.2658 12.7338C21.0019 11.4699 19.2875 10.7598 17.5 10.7598ZM17.5 21.8747C16.6348 21.8747 15.7888 21.6182 15.0694 21.1373C14.3499 20.6567 13.7892 19.9733 13.458 19.174C13.1269 18.3745 13.0403 17.4949 13.2091 16.6461C13.3779 15.7975 13.7946 15.0179 14.4064 14.4061C15.0182 13.7942 15.7978 13.3775 16.6464 13.2087C17.4952 13.0399 18.3749 13.1266 19.1743 13.4577C19.9736 13.7888 20.657 14.3496 21.1377 15.0691C21.6185 15.7885 21.875 16.6344 21.875 17.4997C21.875 18.6599 21.414 19.7728 20.5936 20.5932C19.7731 21.4137 18.6603 21.8747 17.5 21.8747Z" fill="white"/>
<path d="M17.5 6.73991C21.0045 6.73991 21.4197 6.75325 22.8037 6.81647C23.6359 6.82637 24.4603 6.97925 25.2408 7.26841C25.8068 7.48681 26.3209 7.82127 26.7499 8.25026C27.1788 8.67926 27.5134 9.1933 27.7317 9.75931C28.0209 10.5398 28.1737 11.3642 28.1836 12.1965C28.2467 13.5804 28.2602 13.9956 28.2602 17.5001C28.2602 21.0045 28.2469 21.4197 28.1836 22.8037C28.1737 23.6359 28.0209 24.4603 27.7317 25.241C27.5134 25.807 27.1788 26.321 26.7499 26.7499C26.3209 27.179 25.8068 27.5134 25.2408 27.7318C24.4603 28.021 23.6359 28.1738 22.8037 28.1838C21.4199 28.2469 21.0048 28.2603 17.5 28.2603C13.9952 28.2603 13.5802 28.247 12.1964 28.1838C11.3641 28.1738 10.5397 28.021 9.7592 27.7318C9.19319 27.5134 8.67915 27.179 8.25016 26.7499C7.82116 26.321 7.4867 25.807 7.26829 25.241C6.97913 24.4603 6.82627 23.6359 6.81637 22.8037C6.75325 21.4197 6.73979 21.0045 6.73979 17.5001C6.73979 13.9956 6.75313 13.5804 6.81637 12.1965C6.82627 11.3642 6.97913 10.5398 7.26829 9.75931C7.48669 9.19327 7.82114 8.67921 8.25014 8.2502C8.67914 7.82119 9.19317 7.48672 9.7592 7.26829C10.5397 6.97913 11.3641 6.82627 12.1964 6.81637C13.5803 6.75325 13.9955 6.73991 17.5 6.73991ZM17.5 4.375C13.9355 4.375 13.4884 4.39009 12.0886 4.45397C10.9999 4.47583 9.92282 4.68211 8.90313 5.06406C8.03111 5.40129 7.23918 5.91697 6.57808 6.57808C5.91697 7.23918 5.40129 8.03111 5.06406 8.90313C4.68205 9.923 4.47576 11.0003 4.45397 12.0891C4.39009 13.4885 4.375 13.9355 4.375 17.5C4.375 21.0646 4.39009 21.5116 4.45397 22.9114C4.47577 24.0002 4.68207 25.0775 5.06406 26.0975C5.40129 26.9694 5.91697 27.7614 6.57808 28.4225C7.23918 29.0835 8.03111 29.5992 8.90313 29.9365C9.923 30.3185 11.0003 30.5248 12.0891 30.5465C13.4885 30.61 13.9355 30.625 17.5 30.625C21.0646 30.625 21.5116 30.6098 22.9114 30.5461C24.0002 30.5242 25.0775 30.3179 26.0975 29.9359C26.9694 29.5988 27.7614 29.083 28.4225 28.4219C29.0835 27.7608 29.5992 26.969 29.9365 26.0969C30.3185 25.0771 30.5248 23.9998 30.5465 22.9109C30.61 21.5116 30.625 21.0646 30.625 17.5C30.625 13.9355 30.6098 13.4884 30.5461 12.0886C30.5242 10.9999 30.3179 9.92282 29.9359 8.90313C29.5986 8.03122 29.083 7.23939 28.4219 6.57838C27.7607 5.91738 26.9688 5.40177 26.0969 5.0646C25.0771 4.68261 23.9998 4.47632 22.9109 4.45452C21.5116 4.39009 21.0646 4.375 17.5 4.375Z" fill="white"/>
</svg>
