<svg width="147" height="63" viewBox="0 0 147 63" fill="none" xmlns="http://www.w3.org/2000/svg">
<path d="M52.8987 62.5673C52.3601 62.5673 34.2079 62.5826 33.6794 62.5673C27.2985 62.3827 21.6454 61.0837 16.72 58.6703C11.44 56.0569 7.33333 52.4036 4.4 47.7103C1.46667 43.017 0 37.5503 0 31.3103C0 25.0703 1.46667 19.6036 4.4 14.9103C7.33333 10.217 11.44 6.56362 16.72 3.95029C21.6454 1.53687 27.2985 0.237847 33.6794 0.0532302C34.2079 0.037938 52.3601 0.0073542 52.8987 0.0073542C53.4371 0.0073542 112.692 -0.00868262 113.22 0.00660686C119.597 0.191209 125.224 1.49023 130.1 3.90367C135.433 6.517 139.567 10.1703 142.5 14.8637C145.487 19.557 146.98 25.0237 146.98 31.2637C146.98 37.5037 145.487 42.9703 142.5 47.6637C139.567 52.357 135.433 56.0103 130.1 58.6237C125.224 61.0372 119.597 62.3362 113.219 62.5207C112.691 62.536 53.4369 62.5673 52.8987 62.5673ZM52.8987 49.0473C53.442 49.0473 112.697 49.0118 113.22 48.9882C116.703 48.8307 119.743 48.1492 122.34 46.9437C125.327 45.5037 127.62 43.4503 129.22 40.7837C130.873 38.117 131.7 34.9437 131.7 31.2637C131.7 27.5837 130.873 24.4103 129.22 21.7437C127.62 19.077 125.327 17.0503 122.34 15.6637C119.743 14.4117 116.703 13.704 113.22 13.5405C112.697 13.516 53.442 13.5273 52.8987 13.5273C52.3553 13.5273 34.2031 13.5629 33.6794 13.5881C30.2446 13.7534 27.2315 14.4608 24.64 15.7103C21.6533 17.097 19.3333 19.1236 17.68 21.7903C16.0267 24.457 15.2 27.6303 15.2 31.3103C15.2 34.9903 16.0267 38.1636 17.68 40.8303C19.3333 43.497 21.6533 45.5503 24.64 46.9903C27.2315 48.1935 30.2446 48.8747 33.6794 49.0339C34.2031 49.0581 52.3553 49.0473 52.8987 49.0473Z" fill="#474EFF"/>
</svg>
