<svg width="242" height="39" viewBox="0 0 242 39" fill="none" xmlns="http://www.w3.org/2000/svg">
<path d="M32.7954 3.73337V30.8511H28.7V5.17965L30.0326 5.25196L18.6891 30.8511H14.1062L2.76274 5.28812L4.09536 5.2158V30.8511H0V3.73337H6.56557L17.4865 28.7902H15.3413L26.2298 3.73337H32.7954Z" fill="white"/>
<path d="M53.3996 30.8511L52.6845 23.2582L53.5296 20.6187L52.6845 18.0154L53.3996 10.3863H57.755L56.7799 20.6187L57.755 30.8511H53.3996ZM54.6997 20.6187C54.288 22.764 53.6055 24.6442 52.652 26.2592C51.6986 27.8742 50.5177 29.1277 49.1092 30.0195C47.7225 30.9114 46.1731 31.3573 44.4613 31.3573C42.6628 31.3573 41.0702 30.9114 39.6834 30.0195C38.2966 29.1035 37.2132 27.8381 36.4331 26.223C35.6531 24.608 35.263 22.7399 35.263 20.6187C35.263 18.4734 35.6531 16.6053 36.4331 15.0144C37.2132 13.3993 38.2966 12.1459 39.6834 11.254C41.0702 10.338 42.6628 9.88006 44.4613 9.88006C46.1731 9.88006 47.7225 10.326 49.1092 11.2179C50.5177 12.1097 51.6986 13.3632 52.652 14.9782C53.6271 16.5691 54.3097 18.4493 54.6997 20.6187ZM39.5534 20.6187C39.5534 21.9927 39.8026 23.21 40.301 24.2706C40.821 25.3071 41.5252 26.1266 42.4137 26.7292C43.3021 27.3077 44.3205 27.597 45.4689 27.597C46.639 27.597 47.7224 27.3077 48.7192 26.7292C49.716 26.1266 50.5935 25.3071 51.3519 24.2706C52.132 23.21 52.7495 21.9927 53.2046 20.6187C52.7495 19.2447 52.132 18.0395 51.3519 17.003C50.5935 15.9424 49.716 15.1228 48.7192 14.5443C47.7224 13.9417 46.639 13.6404 45.4689 13.6404C44.3205 13.6404 43.3021 13.9417 42.4137 14.5443C41.5252 15.1228 40.821 15.9424 40.301 17.003C39.8026 18.0395 39.5534 19.2447 39.5534 20.6187Z" fill="white"/>
<path d="M59.6437 10.3863H63.8691L64.9742 17.8346V30.8511H60.7488V16.9307L59.6437 10.3863ZM74.3025 10.2416V14.3635C73.8258 14.2189 73.3057 14.1104 72.7423 14.0381C72.179 13.9658 71.6481 13.9296 71.1497 13.9296C69.9579 13.9296 68.8962 14.2189 67.9644 14.7974C67.0327 15.3759 66.296 16.2437 65.7542 17.4007C65.2342 18.5336 64.9742 19.9317 64.9742 21.5949L63.9991 20.2571C64.0858 18.8108 64.3024 17.461 64.6491 16.2075C65.0175 14.93 65.5159 13.8212 66.1443 12.8811C66.7943 11.941 67.5852 11.2058 68.517 10.6755C69.4487 10.1452 70.5322 9.88006 71.7673 9.88006C72.2006 9.88006 72.6448 9.91622 73.0999 9.98853C73.5549 10.0367 73.9558 10.1211 74.3025 10.2416Z" fill="white"/>
<path d="M79.8884 26.7654L78.6533 26.2592L90.3543 10.3863H95.2297L79.5959 30.8511H75.663V3.01023H79.8884V26.7654ZM85.1213 20.7272L88.0791 17.7623L95.7823 30.8511H90.8093L85.1213 20.7272Z" fill="white"/>
<path d="M105.736 31.3573C103.591 31.3573 101.684 30.9114 100.016 30.0195C98.3473 29.1035 97.0363 27.8381 96.0829 26.223C95.1295 24.608 94.6528 22.7279 94.6528 20.5825C94.6528 18.4613 95.097 16.6053 95.9854 15.0144C96.8955 13.3993 98.1414 12.1459 99.7232 11.254C101.327 10.338 103.158 9.88006 105.216 9.88006C107.275 9.88006 109.052 10.3983 110.547 11.4348C112.063 12.4472 113.234 13.8814 114.057 15.7375C114.88 17.5936 115.292 19.775 115.292 22.2819H97.9681V18.7024H113.179L111.067 20.0402C111.002 18.6903 110.709 17.5333 110.189 16.5691C109.691 15.6049 109.008 14.8697 108.141 14.3635C107.296 13.8332 106.289 13.5681 105.119 13.5681C103.884 13.5681 102.8 13.8453 101.868 14.3997C100.958 14.9541 100.243 15.7375 99.7232 16.7499C99.2032 17.7382 98.9432 18.9193 98.9432 20.2933C98.9432 21.8119 99.2465 23.1256 99.8533 24.2344C100.482 25.3432 101.359 26.1989 102.486 26.8015C103.634 27.3801 104.989 27.6693 106.549 27.6693C107.957 27.6693 109.398 27.4283 110.872 26.9462C112.345 26.44 113.645 25.7409 114.772 24.8491V28.2478C113.645 29.212 112.269 29.9713 110.644 30.5257C109.041 31.0801 107.405 31.3573 105.736 31.3573Z" fill="white"/>
<path d="M115.007 14.002V11.8687L118.94 10.7478L120.695 5.03502H123.166V10.3863H131.714V14.002H123.166V22.8604C123.166 24.5719 123.491 25.7771 124.141 26.4761C124.812 27.1511 125.896 27.4885 127.391 27.4885C128.344 27.4885 129.19 27.3801 129.926 27.1631C130.663 26.9221 131.367 26.5846 132.039 26.1507V30.0195C131.476 30.3329 130.674 30.6342 129.634 30.9235C128.615 31.2127 127.564 31.3573 126.481 31.3573C124.682 31.3573 123.231 31.0319 122.126 30.3811C121.02 29.7062 120.208 28.7902 119.688 27.6332C119.189 26.452 118.94 25.1022 118.94 23.5836V14.002H115.007Z" fill="white"/>
<path d="M133.816 10.2416L135.929 10.6755L138.042 10.2416V30.8511H133.816V10.2416ZM135.929 7.67448C135.127 7.67448 134.466 7.43343 133.946 6.95134C133.426 6.44514 133.166 5.79432 133.166 4.99886C133.166 4.20341 133.426 3.56463 133.946 3.08254C134.466 2.57634 135.127 2.32324 135.929 2.32324C136.753 2.32324 137.413 2.57634 137.912 3.08254C138.432 3.56463 138.692 4.20341 138.692 4.99886C138.692 5.79432 138.432 6.44514 137.912 6.95134C137.413 7.43343 136.753 7.67448 135.929 7.67448Z" fill="white"/>
<path d="M140.336 10.3863H144.561L145.666 17.7623V30.8511H141.441V17.0753L140.336 10.3863ZM152.979 9.88006C154.713 9.88006 156.186 10.2657 157.4 11.0371C158.613 11.8084 159.534 12.9172 160.163 14.3635C160.813 15.7857 161.138 17.5092 161.138 19.534V30.8511H156.912V20.2933C156.912 18.148 156.457 16.533 155.547 15.4482C154.659 14.3394 153.348 13.785 151.614 13.785C150.423 13.785 149.372 14.0863 148.462 14.6889C147.573 15.2675 146.88 16.087 146.381 17.1476C145.905 18.2082 145.666 19.4496 145.666 20.8718L144.171 19.9679C144.366 17.8467 144.865 16.0388 145.666 14.5443C146.468 13.0498 147.497 11.9049 148.754 11.1094C150.011 10.2898 151.419 9.88006 152.979 9.88006Z" fill="white"/>
<path d="M180.775 25.8253V22.2096L180.937 21.5588V17.6177L180.775 16.8945V10.3863H185V25.3914C185 28.0188 184.502 30.2124 183.505 31.972C182.508 33.7558 181.143 35.0936 179.41 35.9854C177.676 36.8773 175.683 37.3232 173.429 37.3232C171.782 37.3232 170.265 37.0822 168.879 36.6001C167.492 36.118 166.148 35.3828 164.848 34.3945V30.4896C166.17 31.6466 167.535 32.4541 168.944 32.9121C170.352 33.3942 171.761 33.6352 173.169 33.6352C175.639 33.6352 177.524 32.9603 178.824 31.6104C180.125 30.2606 180.775 28.3322 180.775 25.8253ZM171.934 29.2602C170.244 29.2602 168.727 28.8625 167.383 28.067C166.04 27.2475 164.978 26.1146 164.198 24.6683C163.418 23.222 163.028 21.5226 163.028 19.5701C163.028 17.6177 163.418 15.9183 164.198 14.472C164.978 13.0257 166.04 11.9049 167.383 11.1094C168.727 10.2898 170.244 9.88006 171.934 9.88006C173.191 9.88006 174.35 10.097 175.412 10.5309C176.495 10.9648 177.459 11.5433 178.304 12.2664C179.171 12.9655 179.897 13.7489 180.482 14.6166C181.089 15.4603 181.555 16.3281 181.88 17.2199C182.205 18.0877 182.367 18.8832 182.367 19.6063C182.367 20.5464 182.118 21.5829 181.62 22.7158C181.121 23.8246 180.406 24.8732 179.475 25.8615C178.564 26.8498 177.47 27.6693 176.192 28.3201C174.913 28.9469 173.494 29.2602 171.934 29.2602ZM173.234 25.7892C174.772 25.7892 176.181 25.295 177.459 24.3067C178.759 23.3184 179.919 21.7396 180.937 19.5701C179.919 17.3525 178.759 15.7616 177.459 14.7974C176.181 13.8091 174.772 13.315 173.234 13.315C171.977 13.315 170.905 13.5801 170.016 14.1104C169.128 14.6407 168.445 15.3759 167.969 16.316C167.513 17.2561 167.286 18.3408 167.286 19.5701C167.286 20.7754 167.513 21.848 167.969 22.7881C168.445 23.7282 169.128 24.4634 170.016 24.9937C170.905 25.524 171.977 25.7892 173.234 25.7892Z" fill="white"/>
<g filter="url(#filter0_d_127_193)">
<path fill-rule="evenodd" clip-rule="evenodd" d="M223.877 2.61523L214.171 30.9124H205.682L195.79 2.61523H200.938L209.997 28.054L218.968 2.61523H223.877Z" fill="url(#paint0_linear_127_193)" shape-rendering="crispEdges"/>
</g>
<mask id="mask0_127_193" style="mask-type:alpha" maskUnits="userSpaceOnUse" x="217" y="2" width="25" height="31">
<path d="M241.521 32.2887L240.419 2.11719H227.186L217.261 30.7008L241.521 32.2887Z" fill="#D9D9D9"/>
</mask>
<g mask="url(#mask0_127_193)">
<path d="M218.743 22.9738C218.743 20.6365 219.655 18.7744 221.479 17.3874C222.261 16.8481 223.173 16.4371 224.215 16.1546V15.9234C223.407 15.6152 222.691 15.1914 222.065 14.652C220.632 13.4449 219.915 11.8524 219.915 9.87474C219.915 7.84567 220.788 6.12482 222.534 4.71218C224.306 3.27385 226.691 2.55469 229.687 2.55469C232.684 2.55469 235.055 3.27385 236.801 4.71218C238.573 6.12482 239.459 7.84567 239.459 9.87474C239.459 11.8011 238.743 13.3935 237.309 14.652C236.632 15.1914 235.915 15.6152 235.16 15.9234V16.1546C236.15 16.4114 237.062 16.8352 237.896 17.426C239.72 18.8129 240.632 20.6622 240.632 22.9738C240.632 25.2083 239.642 27.1218 237.661 28.7143C235.707 30.281 233.049 31.0644 229.687 31.0644C226.326 31.0644 223.655 30.281 221.674 28.7143C219.72 27.1218 218.743 25.2083 218.743 22.9738ZM224.606 10.26C224.606 11.3901 225.049 12.3148 225.935 13.0339C226.821 13.7531 228.072 14.1127 229.687 14.1127C231.303 14.1127 232.554 13.7531 233.44 13.0339C234.326 12.3148 234.769 11.3901 234.769 10.26C234.769 9.23263 234.313 8.3722 233.401 7.67873C232.515 6.95956 231.277 6.59998 229.687 6.59998C228.098 6.59998 226.847 6.95956 225.935 7.67873C225.049 8.3722 224.606 9.23263 224.606 10.26ZM225.075 19.4679C223.981 20.3154 223.433 21.3557 223.433 22.5885C223.433 23.8214 223.981 24.8744 225.075 25.7477C226.196 26.5953 227.733 27.0191 229.687 27.0191C231.642 27.0191 233.166 26.5953 234.261 25.7477C235.381 24.8744 235.941 23.8214 235.941 22.5885C235.941 21.3557 235.381 20.3154 234.261 19.4679C233.166 18.5946 231.642 18.158 229.687 18.158C227.733 18.158 226.196 18.5946 225.075 19.4679Z" fill="white"/>
</g>
<mask id="mask1_127_193" style="mask-type:alpha" maskUnits="userSpaceOnUse" x="193" y="0" width="19" height="33">
<path d="M193 0H200.168L211.747 32.8182H193V0Z" fill="#D9D9D9"/>
</mask>
<g mask="url(#mask1_127_193)">
<path fill-rule="evenodd" clip-rule="evenodd" d="M223.877 2.61523L214.171 30.9124H205.682L195.79 2.61523H200.938L209.997 28.054L218.968 2.61523H223.877Z" fill="white"/>
</g>
<defs>
<filter id="filter0_d_127_193" x="191.79" y="2.61523" width="36.0872" height="36.2969" filterUnits="userSpaceOnUse" color-interpolation-filters="sRGB">
<feFlood flood-opacity="0" result="BackgroundImageFix"/>
<feColorMatrix in="SourceAlpha" type="matrix" values="0 0 0 0 0 0 0 0 0 0 0 0 0 0 0 0 0 0 127 0" result="hardAlpha"/>
<feOffset dy="4"/>
<feGaussianBlur stdDeviation="2"/>
<feComposite in2="hardAlpha" operator="out"/>
<feColorMatrix type="matrix" values="0 0 0 0 0 0 0 0 0 0 0 0 0 0 0 0 0 0 0.25 0"/>
<feBlend mode="normal" in2="BackgroundImageFix" result="effect1_dropShadow_127_193"/>
<feBlend mode="normal" in="SourceGraphic" in2="effect1_dropShadow_127_193" result="shape"/>
</filter>
<linearGradient id="paint0_linear_127_193" x1="209.834" y1="2.61523" x2="209.834" y2="30.9124" gradientUnits="userSpaceOnUse">
<stop stop-color="#474EFF"/>
<stop offset="1" stop-color="#474EFF" stop-opacity="0.47"/>
</linearGradient>
</defs>
</svg>
