<svg width="21" height="284" viewBox="0 0 21 284" fill="none" xmlns="http://www.w3.org/2000/svg">
<path d="M10.75 178L10.75 177.25L9.25 177.25L9.25 178L10.75 178ZM9.46967 283.53C9.76256 283.823 10.2374 283.823 10.5303 283.53L15.3033 278.757C15.5962 278.464 15.5962 277.99 15.3033 277.697C15.0104 277.404 14.5355 277.404 14.2426 277.697L10 281.939L5.75736 277.697C5.46446 277.404 4.98959 277.404 4.69669 277.697C4.4038 277.99 4.4038 278.464 4.69669 278.757L9.46967 283.53ZM9.25 178L9.25 283L10.75 283L10.75 178L9.25 178Z" fill="#6A6868"/>
<path d="M6.403 12.675L6.403 12.116L15.75 15.392L15.75 16.666L6 13.182L6 11.661L15.243 8.138L15.243 8.788L6 5.265L6 3.731L15.75 0.26L15.75 1.534L6.403 4.797L6.403 4.264L15.75 7.787L15.75 9.139L6.403 12.675ZM5.831 20.8575C5.831 20.0168 5.99133 19.2715 6.312 18.6215C6.64133 17.9802 7.092 17.4732 7.664 17.1005C8.24467 16.7365 8.912 16.5545 9.666 16.5545C10.4287 16.5545 11.096 16.7278 11.668 17.0745C12.24 17.4212 12.6863 17.9022 13.007 18.5175C13.3277 19.1328 13.488 19.8392 13.488 20.6365C13.488 21.4252 13.3147 22.1142 12.968 22.7035C12.6213 23.2928 12.1317 23.7478 11.499 24.0685C10.875 24.3978 10.147 24.5625 9.315 24.5625L9.315 17.4645L10.264 17.4645L10.264 24.0555L9.835 23.3535C10.381 23.3275 10.8533 23.1975 11.252 22.9635C11.6507 22.7295 11.9583 22.4132 12.175 22.0145C12.3917 21.6158 12.5 21.1522 12.5 20.6235C12.5 20.0515 12.383 19.5532 12.149 19.1285C11.9237 18.7038 11.603 18.3702 11.187 18.1275C10.771 17.8935 10.2813 17.7765 9.718 17.7765C9.12867 17.7765 8.61733 17.9108 8.184 18.1795C7.75067 18.4482 7.417 18.8252 7.183 19.3105C6.949 19.7958 6.832 20.3678 6.832 21.0265C6.832 21.6245 6.93167 22.2095 7.131 22.7815C7.33033 23.3622 7.60333 23.8822 7.95 24.3415L7.014 24.3415C6.65 23.8908 6.35967 23.3535 6.143 22.7295C5.935 22.1055 5.831 21.4815 5.831 20.8575ZM13.345 29.641L13.241 30.239L13.345 30.837L6 30.837L6 29.641L13.345 29.641ZM14.424 30.226C14.424 29.9833 14.4977 29.7753 14.645 29.602C14.801 29.4373 14.996 29.355 15.23 29.355C15.4553 29.355 15.6417 29.4373 15.789 29.602C15.945 29.7753 16.023 29.9833 16.023 30.226C16.023 30.486 15.945 30.6983 15.789 30.863C15.6417 31.0277 15.4553 31.11 15.23 31.11C14.996 31.11 14.801 31.0277 14.645 30.863C14.4977 30.6983 14.424 30.486 14.424 30.226ZM13.319 32.4388L13.319 33.6348L10.836 34.0508L6 34.0508L6 32.8548L11.005 32.8548L13.319 32.4388ZM13.488 37.0798C13.488 37.7644 13.3493 38.3451 13.072 38.8218C12.8033 39.2984 12.409 39.6624 11.889 39.9138C11.3777 40.1651 10.758 40.2908 10.03 40.2908L6 40.2908L6 39.0948L9.822 39.0948C10.6973 39.0948 11.356 38.8911 11.798 38.4838C12.2487 38.0851 12.474 37.5001 12.474 36.7288C12.474 36.1914 12.3527 35.7191 12.11 35.3118C11.8673 34.9131 11.5293 34.6011 11.096 34.3758C10.6713 34.1591 10.173 34.0508 9.601 34.0508L9.939 33.5698C10.667 33.6304 11.2953 33.8168 11.824 34.1288C12.3527 34.4408 12.76 34.8481 13.046 35.3508C13.3407 35.8621 13.488 36.4384 13.488 37.0798ZM6.559 45.5347L6.559 45.0667L13.319 48.3037L13.319 49.5777L6 45.9377L6 44.6117L13.319 40.9587L13.319 42.2847L6.559 45.5347ZM13.345 50.7025L13.241 51.3005L13.345 51.8985L6 51.8985L6 50.7025L13.345 50.7025ZM14.424 51.2875C14.424 51.0449 14.4977 50.8369 14.645 50.6635C14.801 50.4989 14.996 50.4165 15.23 50.4165C15.4553 50.4165 15.6417 50.4989 15.789 50.6635C15.945 50.8369 16.023 51.0449 16.023 51.2875C16.023 51.5475 15.945 51.7599 15.789 51.9245C15.6417 52.0892 15.4553 52.1715 15.23 52.1715C14.996 52.1715 14.801 52.0892 14.645 51.9245C14.4977 51.7599 14.424 51.5475 14.424 51.2875ZM12.357 52.9153L12.929 52.9153L13.228 54.5273L15.217 55.0083L15.217 55.7233L13.319 55.7233L13.319 59.2853L12.357 59.2853L12.357 55.7233L8.639 55.7233C7.98033 55.7233 7.51666 55.8663 7.248 56.1523C6.988 56.4469 6.858 56.8976 6.858 57.5043C6.858 57.9029 6.90566 58.2496 7.001 58.5443C7.09633 58.8476 7.235 59.1423 7.417 59.4283L6.364 59.4283C6.234 59.2203 6.11266 58.9126 6 58.5053C5.88733 58.1066 5.831 57.6906 5.831 57.2573C5.831 56.5986 5.94366 56.0656 6.169 55.6583C6.403 55.2596 6.715 54.9693 7.105 54.7873C7.50366 54.6139 7.95433 54.5273 8.457 54.5273L12.357 54.5273L12.357 52.9153ZM5.831 64.3262C5.831 63.4856 5.99133 62.7402 6.312 62.0902C6.64133 61.4489 7.092 60.9419 7.664 60.5692C8.24466 60.2052 8.912 60.0232 9.666 60.0232C10.4287 60.0232 11.096 60.1966 11.668 60.5432C12.24 60.8899 12.6863 61.3709 13.007 61.9862C13.3277 62.6016 13.488 63.3079 13.488 64.1052C13.488 64.8939 13.3147 65.5829 12.968 66.1722C12.6213 66.7616 12.1317 67.2166 11.499 67.5372C10.875 67.8666 10.147 68.0312 9.315 68.0312L9.315 60.9332L10.264 60.9332L10.264 67.5242L9.835 66.8222C10.381 66.7962 10.8533 66.6662 11.252 66.4322C11.6507 66.1982 11.9583 65.8819 12.175 65.4832C12.3917 65.0846 12.5 64.6209 12.5 64.0922C12.5 63.5202 12.383 63.0219 12.149 62.5972C11.9237 62.1726 11.603 61.8389 11.187 61.5962C10.771 61.3622 10.2813 61.2452 9.718 61.2452C9.12866 61.2452 8.61733 61.3796 8.184 61.6482C7.75066 61.9169 7.417 62.2939 7.183 62.7792C6.949 63.2646 6.832 63.8366 6.832 64.4952C6.832 65.0932 6.93166 65.6782 7.131 66.2502C7.33033 66.8309 7.60333 67.3509 7.95 67.8102L7.014 67.8102C6.65 67.3596 6.35966 66.8222 6.143 66.1982C5.935 65.5742 5.831 64.9502 5.831 64.3262ZM3.686 74.1468C3.686 73.7742 3.73366 73.4405 3.829 73.1458C3.92433 72.8512 4.063 72.5608 4.245 72.2748L5.194 72.2748C5.012 72.5608 4.87766 72.8382 4.791 73.1068C4.70433 73.3755 4.661 73.6832 4.661 74.0298C4.661 74.4025 4.74766 74.7232 4.921 74.9918C5.08566 75.2605 5.35866 75.4858 5.74 75.6678L13.319 79.3208L13.319 80.5948L5.298 76.5908C4.92533 76.4088 4.622 76.1922 4.388 75.9408C4.14533 75.6982 3.96766 75.4252 3.855 75.1218C3.74233 74.8272 3.686 74.5022 3.686 74.1468ZM6.234 75.3688L13.319 71.8978L13.319 73.2108L6.234 76.5778L6.234 75.3688ZM5.831 85.2617C5.831 84.4037 5.99133 83.6454 6.312 82.9867C6.63266 82.3367 7.08333 81.8297 7.664 81.4657C8.24466 81.1017 8.912 80.9197 9.666 80.9197C10.4287 80.9197 11.096 81.1017 11.668 81.4657C12.24 81.8297 12.6863 82.3367 13.007 82.9867C13.3277 83.6454 13.488 84.4037 13.488 85.2617C13.488 86.1284 13.3277 86.8867 13.007 87.5367C12.6863 88.1867 12.24 88.6937 11.668 89.0577C11.096 89.4304 10.4287 89.6167 9.666 89.6167C8.912 89.6167 8.24466 89.4304 7.664 89.0577C7.08333 88.6937 6.63266 88.1867 6.312 87.5367C5.99133 86.8867 5.831 86.1284 5.831 85.2617ZM6.832 85.2617C6.832 85.9031 6.94466 86.4577 7.17 86.9257C7.404 87.3937 7.73333 87.7534 8.158 88.0047C8.58266 88.2647 9.08533 88.3947 9.666 88.3947C10.238 88.3947 10.7363 88.2647 11.161 88.0047C11.5857 87.7534 11.915 87.3937 12.149 86.9257C12.383 86.4577 12.5 85.9031 12.5 85.2617C12.5 84.6291 12.383 84.0744 12.149 83.5977C11.915 83.1297 11.5857 82.7701 11.161 82.5187C10.7363 82.2674 10.238 82.1417 9.666 82.1417C9.08533 82.1417 8.58266 82.2674 8.158 82.5187C7.73333 82.7701 7.404 83.1297 7.17 83.5977C6.94466 84.0744 6.832 84.6291 6.832 85.2617ZM5.831 94.1407C5.831 93.4734 5.96533 92.9057 6.234 92.4377C6.51133 91.9784 6.91 91.6231 7.43 91.3717C7.95 91.1291 8.574 91.0077 9.302 91.0077L13.319 91.0077L13.319 92.2037L9.497 92.2037C8.63033 92.2037 7.97166 92.3987 7.521 92.7887C7.079 93.1787 6.858 93.7464 6.858 94.4917C6.858 95.0204 6.975 95.4797 7.209 95.8697C7.45166 96.2597 7.78966 96.5631 8.223 96.7797C8.65633 96.9964 9.159 97.1047 9.731 97.1047L9.458 97.5727C8.72133 97.5207 8.08 97.3387 7.534 97.0267C6.988 96.7234 6.56766 96.3247 6.273 95.8307C5.97833 95.3367 5.831 94.7734 5.831 94.1407ZM6 97.5077L8.496 97.1047L13.319 97.1047L13.319 98.3007L8.314 98.3007L6 98.7037L6 97.5077ZM15.204 107.85C15.204 107.192 15.0523 106.689 14.749 106.342C14.4543 105.996 13.9603 105.822 13.267 105.822L6 105.822L6 104.626L13.098 104.626C13.6873 104.626 14.2117 104.73 14.671 104.938C15.139 105.146 15.5073 105.476 15.776 105.926C16.0447 106.386 16.179 106.984 16.179 107.72C16.179 108.084 16.1443 108.405 16.075 108.682C16.0143 108.968 15.9363 109.237 15.841 109.488L14.84 109.488C14.97 109.237 15.061 108.977 15.113 108.708C15.1737 108.44 15.204 108.154 15.204 107.85ZM11.902 103.014L12.877 103.014L12.877 109.358L11.902 109.358L11.902 103.014ZM5.831 113.463C5.831 112.796 5.96533 112.228 6.234 111.76C6.51133 111.301 6.91 110.945 7.43 110.694C7.95 110.451 8.574 110.33 9.302 110.33L13.319 110.33L13.319 111.526L9.497 111.526C8.63033 111.526 7.97166 111.721 7.521 112.111C7.079 112.501 6.858 113.069 6.858 113.814C6.85799 114.343 6.97499 114.802 7.20899 115.192C7.45166 115.582 7.78966 115.885 8.22299 116.102C8.65633 116.319 9.159 116.427 9.73099 116.427L9.45799 116.895C8.72133 116.843 8.08 116.661 7.534 116.349C6.98799 116.046 6.56766 115.647 6.27299 115.153C5.97833 114.659 5.831 114.096 5.831 113.463ZM5.99999 116.83L8.49599 116.427L13.319 116.427L13.319 117.623L8.31399 117.623L5.99999 118.026L5.99999 116.83ZM13.319 119.3L13.319 120.496L10.823 120.912L5.99999 120.912L5.99999 119.716L11.044 119.716L13.319 119.3ZM13.345 124.799L12.266 124.799C12.318 124.634 12.357 124.439 12.383 124.214C12.409 123.997 12.422 123.789 12.422 123.59C12.422 123.07 12.305 122.606 12.071 122.199C11.837 121.792 11.4947 121.475 11.044 121.25C10.602 121.025 10.0777 120.912 9.47099 120.912L9.93899 120.574C10.4503 120.591 10.9227 120.674 11.356 120.821C11.7893 120.968 12.162 121.176 12.474 121.445C12.7947 121.722 13.0417 122.052 13.215 122.433C13.397 122.823 13.488 123.261 13.488 123.746C13.488 123.928 13.475 124.114 13.449 124.305C13.423 124.504 13.3883 124.669 13.345 124.799ZM12.357 125.101L12.929 125.101L13.228 126.713L15.217 127.194L15.217 127.909L13.319 127.909L13.319 131.471L12.357 131.471L12.357 127.909L8.63899 127.909C7.98033 127.909 7.51666 128.052 7.24799 128.338C6.98799 128.632 6.85799 129.083 6.85799 129.69C6.85799 130.088 6.90566 130.435 7.00099 130.73C7.09633 131.033 7.23499 131.328 7.41699 131.614L6.36399 131.614C6.23399 131.406 6.11266 131.098 5.99999 130.691C5.88733 130.292 5.83099 129.876 5.83099 129.443C5.83099 128.784 5.94366 128.251 6.16899 127.844C6.40299 127.445 6.71499 127.155 7.10499 126.973C7.50366 126.799 7.95433 126.713 8.45699 126.713L12.357 126.713L12.357 125.101ZM16.01 132.905L16.01 134.101L5.99999 134.101L5.99999 132.905L16.01 132.905ZM13.488 137.117C13.488 137.801 13.3493 138.382 13.072 138.859C12.8033 139.335 12.409 139.699 11.889 139.951C11.3777 140.202 10.758 140.328 10.03 140.328L5.99999 140.328L5.99999 139.132L9.82199 139.132C10.6973 139.132 11.356 138.932 11.798 138.534C12.2487 138.135 12.474 137.546 12.474 136.766C12.474 136.237 12.3527 135.769 12.11 135.362C11.8673 134.963 11.5293 134.651 11.096 134.426C10.6713 134.209 10.173 134.101 9.60099 134.101L9.93899 133.62C10.667 133.68 11.2953 133.867 11.824 134.179C12.3527 134.491 12.76 134.898 13.046 135.401C13.3407 135.912 13.488 136.484 13.488 137.117ZM5.83099 146.033C5.83099 145.193 5.99133 144.447 6.31199 143.797C6.64133 143.156 7.09199 142.649 7.66399 142.276C8.24466 141.912 8.91199 141.73 9.66599 141.73C10.4287 141.73 11.096 141.904 11.668 142.25C12.24 142.597 12.6863 143.078 13.007 143.693C13.3277 144.309 13.488 145.015 13.488 145.812C13.488 146.601 13.3147 147.29 12.968 147.879C12.6213 148.469 12.1317 148.924 11.499 149.244C10.875 149.574 10.147 149.738 9.31499 149.738L9.31499 142.64L10.264 142.64L10.264 149.231L9.83499 148.529C10.381 148.503 10.8533 148.373 11.252 148.139C11.6507 147.905 11.9583 147.589 12.175 147.19C12.3917 146.792 12.5 146.328 12.5 145.799C12.5 145.227 12.383 144.729 12.149 144.304C11.9237 143.88 11.603 143.546 11.187 143.303C10.771 143.069 10.2813 142.952 9.71799 142.952C9.12866 142.952 8.61733 143.087 8.18399 143.355C7.75066 143.624 7.41699 144.001 7.18299 144.486C6.94899 144.972 6.83199 145.544 6.83199 146.202C6.83199 146.8 6.93166 147.385 7.13099 147.957C7.33033 148.538 7.60333 149.058 7.94999 149.517L7.01399 149.517C6.64999 149.067 6.35966 148.529 6.14299 147.905C5.93499 147.281 5.83099 146.657 5.83099 146.033ZM13.319 150.886L13.319 152.082L10.823 152.498L5.99999 152.498L5.99999 151.302L11.044 151.302L13.319 150.886ZM13.345 156.385L12.266 156.385C12.318 156.22 12.357 156.025 12.383 155.8C12.409 155.583 12.422 155.375 12.422 155.176C12.422 154.656 12.305 154.192 12.071 153.785C11.837 153.378 11.4947 153.061 11.044 152.836C10.602 152.611 10.0777 152.498 9.47099 152.498L9.93899 152.16C10.4503 152.177 10.9227 152.26 11.356 152.407C11.7893 152.554 12.162 152.762 12.474 153.031C12.7947 153.308 13.0417 153.638 13.215 154.019C13.397 154.409 13.488 154.847 13.488 155.332C13.488 155.514 13.475 155.7 13.449 155.891C13.423 156.09 13.3883 156.255 13.345 156.385Z" fill="#6A6868"/>
</svg>
