<svg width="172" height="171" viewBox="0 0 172 171" fill="none" xmlns="http://www.w3.org/2000/svg">
<path d="M80.3957 14V12.936L88.6277 4.06L89.3277 4.62H80.4517V3.5H89.8597V4.55L81.6277 13.44L80.9977 12.88H89.9017V14H80.3957Z" fill="#474EFF"/>
<path d="M97.6284 15.2076C96.4804 14.9993 95.5065 14.5901 94.7066 13.9802C93.9158 13.3719 93.3496 12.6241 93.0078 11.7368C92.6678 10.8403 92.5936 9.86407 92.7852 8.80799C92.9785 7.74272 93.3911 6.85477 94.0228 6.14415C94.6545 5.43352 95.4474 4.93238 96.4014 4.64072C97.3647 4.35072 98.4203 4.30988 99.5682 4.51819C100.716 4.72651 101.685 5.13482 102.476 5.74312C103.267 6.35143 103.833 7.09922 104.175 7.9865C104.517 8.87377 104.591 9.85005 104.398 10.9153C104.206 11.9714 103.793 12.8593 103.16 13.5792C102.528 14.2898 101.735 14.7909 100.781 15.0826C99.8273 15.3742 98.7763 15.4159 97.6284 15.2076ZM97.8409 14.0367C98.75 14.2017 99.5706 14.1751 100.303 13.957C101.036 13.7297 101.644 13.3372 102.124 12.7793C102.605 12.2215 102.922 11.5202 103.075 10.6753C103.23 9.82128 103.181 9.04869 102.927 8.35756C102.673 7.66644 102.241 7.09015 101.633 6.62871C101.024 6.16727 100.265 5.85406 99.3557 5.68907C98.4466 5.52408 97.626 5.55065 96.8939 5.76878C96.1619 5.98691 95.5509 6.37404 95.0611 6.93018C94.5804 7.48799 94.2626 8.19392 94.1076 9.04797C93.9543 9.89284 94.0047 10.6608 94.2587 11.352C94.5219 12.0448 94.957 12.6265 95.564 13.0971C96.1728 13.5585 96.9317 13.8717 97.8409 14.0367Z" fill="#474EFF"/>
<path d="M106.569 13.3861L107.814 13.8534C107.701 14.3395 107.732 14.8147 107.907 15.279C108.082 15.7433 108.382 16.1651 108.808 16.5443C109.246 16.918 109.792 17.2278 110.448 17.4738C111.435 17.8443 112.28 17.9718 112.981 17.8562C113.694 17.7352 114.159 17.3863 114.376 16.8096C114.543 16.3639 114.487 15.9542 114.209 15.5806C113.939 15.2102 113.374 14.8037 112.513 14.361L110.701 13.4118C109.557 12.8227 108.802 12.2157 108.439 11.5907C108.079 10.9571 108.036 10.2732 108.312 9.53921C108.531 8.95375 108.896 8.51252 109.407 8.21553C109.92 7.9098 110.534 7.7614 111.248 7.77033C111.975 7.7738 112.762 7.93459 113.609 8.2527C114.457 8.57081 115.159 8.98392 115.716 9.49203C116.285 9.99468 116.675 10.5497 116.886 11.1571C117.109 11.7591 117.121 12.3768 116.923 13.0104L115.678 12.543C115.783 12.1039 115.751 11.6834 115.583 11.2813C115.418 10.8705 115.131 10.4936 114.722 10.1505C114.324 9.80189 113.815 9.51118 113.195 9.27834C112.295 8.94055 111.513 8.83165 110.85 8.95164C110.199 9.06616 109.767 9.40742 109.554 9.9754C109.39 10.4123 109.438 10.8143 109.699 11.1814C109.972 11.5431 110.513 11.9354 111.321 12.3584L113.089 13.3059C113.914 13.7355 114.543 14.1458 114.974 14.537C115.414 14.9315 115.684 15.3417 115.784 15.7678C115.886 16.1851 115.841 16.6515 115.647 17.1671C115.414 17.7875 115.025 18.2544 114.478 18.5678C113.941 18.8844 113.29 19.0388 112.525 19.031C111.76 19.0231 110.932 18.8519 110.041 18.5174C109.141 18.1796 108.394 17.7398 107.8 17.1978C107.209 16.6471 106.802 16.0456 106.578 15.3934C106.358 14.7324 106.354 14.0633 106.569 13.3861Z" fill="#474EFF"/>
<path d="M126.405 15.1313L127.535 15.8062L122.472 24.2791L121.342 23.6042L126.405 15.1313ZM122.858 12.2783L131.728 17.5776L131.132 18.5751L122.262 13.2758L122.858 12.2783Z" fill="#474EFF"/>
<path d="M130.95 26.7857L131.687 25.9423L137.253 30.8058L136.516 31.6492L130.95 26.7857ZM139.55 23.8147L136.532 35.1208L135.457 34.1813L138.412 23.4152L138.939 23.8757L128.656 28.2401L127.581 27.3006L138.38 22.7922L139.55 23.8147Z" fill="#474EFF"/>
<path d="M144.529 43.775L144.095 43.2977L151.822 37.1351L152.617 38.1312L144.407 44.6778L143.351 43.3534L146.095 30.9409L146.529 31.4182L138.768 37.6069L137.974 36.6109L146.183 30.0643L147.248 31.3996L144.529 43.775ZM152.406 33.1961L153.401 34.4439L150.437 33.9605L149.564 32.8659L152.406 33.1961Z" fill="#474EFF"/>
<path d="M155.387 67.1446L155.148 66.5451L164.548 63.4908L164.942 64.7024L154.956 67.9471L154.433 66.336L161.363 55.6789L161.601 56.2784L152.161 59.3457L151.768 58.1341L161.754 54.8894L162.282 56.5138L155.387 67.1446Z" fill="#474EFF"/>
<path d="M158.293 71.1107L159.403 70.9604L160.395 78.2855L159.285 78.4358L158.293 71.1107ZM166.725 74.5319L157.013 81.0606L156.821 79.6455L166.13 73.4821L166.224 74.1758L155.609 70.6972L155.418 69.2821L166.516 72.9919L166.725 74.5319Z" fill="#474EFF"/>
<path d="M160.525 83.1021L160.466 84.4307C159.969 84.4738 159.526 84.6502 159.139 84.9597C158.751 85.2693 158.443 85.6852 158.214 86.2075C157.994 86.7395 157.868 87.3551 157.837 88.0544C157.789 89.108 157.929 89.9505 158.256 90.5818C158.591 91.2228 159.067 91.5571 159.682 91.5848C160.158 91.6061 160.53 91.4267 160.799 91.0464C161.068 90.6754 161.28 90.0122 161.435 89.0569L161.778 87.0402C161.985 85.7696 162.329 84.8648 162.811 84.3259C163.302 83.7874 163.939 83.5357 164.723 83.5709C165.347 83.5989 165.88 83.8097 166.32 84.2032C166.769 84.5971 167.1 85.1351 167.312 85.8173C167.534 86.5093 167.624 87.3075 167.583 88.2119C167.543 89.1163 167.367 89.9119 167.056 90.5986C166.753 91.2951 166.346 91.8374 165.833 92.2254C165.33 92.6232 164.746 92.8259 164.082 92.8335L164.142 91.5048C164.592 91.469 164.982 91.309 165.313 91.0249C165.653 90.7411 165.922 90.3515 166.122 89.856C166.331 89.3702 166.45 88.7963 166.48 88.1343C166.523 87.1739 166.385 86.397 166.066 85.8034C165.756 85.2195 165.298 84.914 164.692 84.8868C164.225 84.8659 163.858 85.0362 163.59 85.3979C163.33 85.7693 163.124 86.4047 162.971 87.3041L162.616 89.2781C162.463 90.1962 162.267 90.9208 162.028 91.4519C161.789 91.9924 161.482 92.3757 161.108 92.6018C160.743 92.8283 160.285 92.9292 159.735 92.9045C159.073 92.8748 158.508 92.6485 158.042 92.2258C157.574 91.8125 157.226 91.2409 156.997 90.5113C156.769 89.7816 156.676 88.9412 156.718 87.9902C156.761 87.0298 156.949 86.1834 157.281 85.4509C157.622 84.7188 158.068 84.1456 158.619 83.7312C159.18 83.3173 159.815 83.1076 160.525 83.1021Z" fill="#474EFF"/>
<path d="M156.308 96.2154L157.345 96.4522L164.167 106.453L163.465 107.011L165.44 98.3572L166.532 98.6065L164.438 107.779L163.415 107.545L156.579 97.5411L157.266 97.0515L155.284 105.732L154.192 105.483L156.308 96.2154Z" fill="#474EFF"/>
<path d="M151.574 112.56L156.144 114.513L155.626 115.723L151.056 113.77L151.574 112.56ZM163.182 112.117L162.588 113.507L155.611 115.473L155.947 114.688L159.358 121.064L158.764 122.454L154.857 115.136L155.169 114.371L163.182 112.117Z" fill="#474EFF"/>
<path d="M150.61 135.467L141.847 129.683L142.542 128.631L151.048 134.246L150.75 134.671L145.179 124.635L145.951 123.467L157.356 124.638L157.083 125.078L148.588 119.471L149.282 118.42L158.045 124.204L156.95 125.863L145.707 124.649L146.162 123.959L151.706 133.808L150.61 135.467Z" fill="#474EFF"/>
<path d="M132.92 152.179C132.323 152.612 131.729 152.882 131.138 152.989C130.546 153.096 129.99 153.045 129.468 152.835C128.952 152.633 128.513 152.283 128.151 151.785C127.789 151.286 127.589 150.757 127.551 150.196C127.518 149.643 127.641 149.098 127.92 148.561C128.205 148.031 128.645 147.55 129.242 147.116L133.115 144.302L133.79 145.231L129.939 148.028C129.365 148.445 129.016 148.918 128.893 149.446C128.767 149.988 128.882 150.504 129.239 150.995C129.595 151.485 130.048 151.751 130.596 151.791C131.137 151.836 131.694 151.651 132.268 151.234L136.005 148.518L135.908 149.385L130.033 141.298L131.097 140.524L137.269 149.019L132.92 152.179Z" fill="#474EFF"/>
<path d="M122.571 152.933L118.509 154.889C117.887 155.189 117.466 155.583 117.245 156.072C117.017 156.566 117.028 157.073 117.279 157.595C117.534 158.124 117.924 158.449 118.448 158.57C118.968 158.703 119.539 158.62 120.161 158.32L124.387 156.285L124.161 157.171L119.799 148.114L120.985 147.543L125.541 157.003L120.622 159.372C119.982 159.68 119.367 159.832 118.774 159.827C118.185 159.831 117.657 159.692 117.19 159.409C116.714 159.131 116.344 158.718 116.081 158.172C115.822 157.633 115.732 157.091 115.811 156.546C115.881 156.004 116.1 155.5 116.466 155.034C116.836 154.576 117.34 154.193 117.979 153.885L122.079 151.911L122.571 152.933ZM120.203 153.374L118.74 154.078L112.66 151.552L114.136 150.842L120.203 153.374Z" fill="#474EFF"/>
<path d="M102.562 160.759L102.264 159.679L109.16 157.776L109.458 158.856L102.562 160.759ZM108.513 158.536L107.971 153.573L108.866 154.183L100.957 156.365L100.652 155.259L109.181 152.905L109.741 158.197L111.975 163.026L103.513 165.362L103.207 164.255L111.048 162.091L110.593 163.074L108.513 158.536Z" fill="#474EFF"/>
<path d="M97.8851 159.349L96.5604 159.468C96.451 158.981 96.2169 158.567 95.8581 158.224C95.4992 157.882 95.0457 157.632 94.4974 157.475C93.9407 157.328 93.3138 157.286 92.6166 157.349C91.5662 157.444 90.7501 157.695 90.1684 158.104C89.5782 158.522 89.3107 159.038 89.3659 159.652C89.4086 160.126 89.6364 160.471 90.0494 160.687C90.4531 160.903 91.1387 161.024 92.1063 161.05L94.1507 161.119C95.4376 161.153 96.3804 161.373 96.9791 161.778C97.5787 162.192 97.9136 162.79 97.9839 163.571C98.04 164.194 97.9026 164.75 97.5717 165.239C97.2417 165.737 96.753 166.137 96.1054 166.439C95.4494 166.751 94.6706 166.948 93.7689 167.029C92.8672 167.11 92.0552 167.042 91.3329 166.826C90.6022 166.62 90.0102 166.289 89.5568 165.834C89.095 165.388 88.8158 164.837 88.7192 164.18L90.0439 164.061C90.1398 164.502 90.3507 164.867 90.6766 165.156C91.0034 165.455 91.4257 165.67 91.9435 165.801C92.4529 165.943 93.0376 165.984 93.6976 165.925C94.6551 165.839 95.4065 165.598 95.9519 165.202C96.4888 164.816 96.7301 164.321 96.6757 163.717C96.6339 163.252 96.4158 162.911 96.0214 162.693C95.6185 162.486 94.9612 162.367 94.0494 162.337L92.0456 162.25C91.1153 162.221 90.3709 162.124 89.8125 161.959C89.2448 161.795 88.8238 161.542 88.5495 161.201C88.276 160.87 88.1146 160.43 88.0652 159.881C88.0058 159.221 88.1542 158.632 88.5105 158.112C88.8574 157.594 89.377 157.172 90.0694 156.847C90.7617 156.523 91.582 156.318 92.5301 156.232C93.4876 156.146 94.3515 156.218 95.122 156.449C95.8932 156.689 96.5212 157.054 97.0058 157.544C97.4912 158.044 97.7843 158.646 97.8851 159.349Z" fill="#474EFF"/>
<path d="M79.2564 166.383L77.9457 166.265L78.8304 156.435L80.1411 156.553L79.2564 166.383ZM83.6898 167.415L73.3994 166.489L73.5035 165.331L83.7939 166.257L83.6898 167.415Z" fill="#474EFF"/>
<path d="M64.5544 164.514L63.2858 164.164L66.0792 154.042L67.3477 154.392L64.5544 164.514Z" fill="#474EFF"/>
<path d="M59.2617 151.929L58.8001 152.888L47.5321 157.313L47.1444 156.505L55.1414 160.356L54.6555 161.365L46.1792 157.283L46.6348 156.337L57.9088 151.899L58.2334 152.677L50.2112 148.814L50.6971 147.805L59.2617 151.929ZM49.901 160.396C50.1365 160.509 50.3039 160.678 50.4032 160.902C50.4901 161.13 50.4788 161.358 50.3695 161.585C50.2642 161.804 50.0952 161.95 49.8626 162.025C49.6215 162.095 49.3832 162.074 49.1478 161.96C48.8955 161.839 48.7259 161.664 48.6391 161.435C48.5522 161.207 48.5614 160.984 48.6667 160.765C48.776 160.538 48.947 160.387 49.1797 160.313C49.4083 160.247 49.6487 160.275 49.901 160.396Z" fill="#474EFF"/>
<path d="M44.2596 143.364C45.2034 144.05 45.9034 144.841 46.3595 145.738C46.808 146.629 46.9937 147.548 46.9166 148.496C46.834 149.451 46.4773 150.363 45.8464 151.231C45.21 152.107 44.4531 152.728 43.5756 153.094C42.6982 153.46 41.7664 153.568 40.7802 153.417C39.7865 153.26 38.8177 152.839 37.8739 152.153C36.93 151.467 36.2339 150.679 35.7853 149.788C35.3368 148.897 35.1511 147.977 35.2282 147.03C35.3053 146.082 35.662 145.17 36.2984 144.294C36.9293 143.426 37.6862 142.805 38.5692 142.431C39.4466 142.065 40.3785 141.957 41.3646 142.109C42.3507 142.26 43.3157 142.678 44.2596 143.364ZM43.5601 144.327C42.8126 143.784 42.0617 143.451 41.3075 143.33C40.5479 143.217 39.8305 143.307 39.1554 143.601C38.4803 143.895 37.8904 144.389 37.3857 145.084C36.8755 145.786 36.5849 146.504 36.5139 147.237C36.4429 147.97 36.5815 148.676 36.9297 149.356C37.2779 150.036 37.8258 150.647 38.5734 151.19C39.3209 151.734 40.0717 152.066 40.8259 152.187C41.5801 152.308 42.2985 152.224 42.9812 151.936C43.6563 151.642 44.2489 151.143 44.7591 150.441C45.2638 149.747 45.5517 149.033 45.6227 148.3C45.6861 147.561 45.5465 146.849 45.2038 146.161C44.8555 145.481 44.3077 144.87 43.5601 144.327Z" fill="#474EFF"/>
<path d="M31.026 132.242L31.442 132.677L21.7283 137.083L20.7801 136.092L30.9624 131.547L32.0943 132.731L27.5215 142.353L27.0378 141.847L36.8544 137.71L37.996 138.904L32.9898 148.862L32.0417 147.87L36.889 138.374L37.2856 138.789L27.3881 143.003L26.3819 141.951L31.026 132.242Z" fill="#474EFF"/>
<path d="M26.521 125.487L22.3732 128.224L21.6482 127.126L25.7961 124.388L26.521 125.487ZM20.496 135.419L19.663 134.157L21.8651 127.251L22.3356 127.964L15.1358 127.298L14.3028 126.037L22.5622 126.808L23.0289 127.49L20.496 135.419Z" fill="#474EFF"/>
<path d="M7.93365 112.063L17.5887 107.936L18.0839 109.095L8.71207 113.101L8.52136 112.619L19.9657 113.498L20.5159 114.785L13.2552 123.659L13.0388 123.188L22.3977 119.188L22.8929 120.346L13.2379 124.473L12.4566 122.645L19.6638 113.931L19.9884 114.691L8.71498 113.891L7.93365 112.063Z" fill="#474EFF"/>
<path d="M14.4859 93.5093L3.99644 93.9804L3.9374 92.6657L13.252 92.2474L13.063 92.7184L3.61769 85.5469L3.55236 84.0924L14.4344 92.3625L14.4859 93.5093ZM8.84972 88.7734L7.78917 87.9382L14.0343 83.4535L14.1027 84.9779L8.84972 88.7734Z" fill="#474EFF"/>
<path d="M4.01728 77.4594L13.8396 78.7899L13.1918 79.2956L14.2574 71.4294L15.4089 71.5854L14.2456 80.173L3.84063 78.7635L4.01728 77.4594Z" fill="#474EFF"/>
<path d="M7.45407 60.8321L7.86074 59.5805L17.8468 62.8251L17.4402 64.0767L7.45407 60.8321Z" fill="#474EFF"/>
<path d="M19.3403 45.565L20.3265 46.0957L16.9365 52.3955L15.9502 51.8647L19.3403 45.565ZM16.8348 51.4027L20.7962 54.4407L19.7371 54.6657L23.6247 47.4413L24.6357 47.9853L20.4429 55.7768L16.2311 52.5246L11.1966 50.8012L15.3562 43.0713L16.3671 43.6153L12.5127 50.7781L12.117 49.7702L16.8348 51.4027Z" fill="#474EFF"/>
<path d="M31.8911 37.1525L31.5224 37.6821L23.7948 31.5196L24.5891 30.5235L32.7984 37.0702L31.7422 38.3946L19.0304 38.482L19.3991 37.9523L27.1595 44.141L26.3652 45.1371L18.156 38.5905L19.2209 37.2551L31.8911 37.1525Z" fill="#474EFF"/>
<path d="M31.3808 24.8327L32.3718 23.9668L38.8657 31.3997L37.8746 32.2655L31.3808 24.8327ZM27.5714 27.3242L35.3521 20.5264L36.1167 21.4015L28.3359 28.1993L27.5714 27.3242Z" fill="#474EFF"/>
<path d="M49.1346 17.2315L49.709 18.193L43.5677 21.8623L42.9932 20.9008L49.1346 17.2315ZM43.9895 20.9579L45.832 25.5976L44.8075 25.2476L51.8502 21.0397L52.439 22.0252L44.8434 26.5634L42.8959 21.6113L39.458 17.5497L46.9935 13.0474L47.5823 14.0329L40.5996 18.2048L40.7769 17.1367L43.9895 20.9579Z" fill="#474EFF"/>
<path d="M62.3926 6.62194L66.082 16.4524L64.9024 16.8951L61.3212 7.35303L61.8111 7.18413L60.4197 18.5775L59.1089 19.0694L50.5699 11.4179L51.05 11.2228L54.6263 20.7518L53.4466 21.1946L49.7572 11.3641L51.6184 10.6656L60.0001 18.2565L59.2268 18.5467L60.5314 7.32047L62.3926 6.62194Z" fill="#474EFF"/>
</svg>
